<svg width="128" height="128" viewBox="0 0 128 128" fill="none" xmlns="http://www.w3.org/2000/svg">
<g clip-path="url(#clip0_5320_1229)">
<path d="M124.602 102.497C123.385 98.0113 121.5 92.9597 119.674 88.0745C118.74 85.5778 117.864 83.2143 117.08 80.9506C116.063 78.0129 115.045 75.0751 114.028 72.129C110.258 61.2268 106.364 49.9585 102.311 39.023C102.044 38.2989 101.769 37.4501 101.485 36.5596C99.9339 31.6994 97.8073 25.0415 91.9529 26.2233L70.9371 33.7466V12.4582C70.9371 11.7009 68.8356 9.06274 68.2184 8.65495C67.0092 7.85601 66.0418 7.76446 64.8075 7.64795C60.079 7.20687 54.9084 7.41492 49.913 7.61466C45.4763 7.78943 40.8979 7.97252 36.6364 7.69788C35.6606 7.69788 34.3597 8.54676 33.5674 9.31241C33.1754 9.69523 32.2497 10.6773 32.2497 11.5345V27.9294H8.89052C7.79803 27.9294 6.48037 28.6784 5.27113 29.985C4.1703 31.1834 3.03612 33.0143 3.16121 34.5705L3.14453 113.374C3.23627 116.936 5.52132 119.591 8.83214 119.99C11.2423 120.282 15.1452 120.398 19.1732 120.398C23.8768 120.398 28.7388 120.24 31.5659 119.999C32.2414 119.941 32.8085 119.674 33.3089 119.433C33.6758 119.258 34.0261 119.092 34.2846 119.092C34.5431 119.092 34.8934 119.258 35.2603 119.433C35.7607 119.674 36.3278 119.941 37.0033 119.999C41.7819 120.407 46.9274 120.224 51.8978 120.04C56.4763 119.874 61.2132 119.708 65.5748 119.982C66.2336 120.157 67.0509 119.849 68.0183 119.1C69.3359 118.076 70.9288 116.104 70.9288 115.197V50.2248L91.8111 111.66L92.1531 112.542C93.7209 116.62 94.9552 119.841 100.701 118.942C104.479 118.351 116.054 114.048 119.724 112.467C124.736 110.312 126.012 107.698 124.594 102.505L124.602 102.497ZM97.2069 36.8509L73.5975 45.3146C72.9053 44.2827 71.1957 39.0146 71.3625 37.9577L92.9954 30.1181H93.0204C95.1553 30.1181 95.9893 32.8894 96.7315 35.3362C96.89 35.8771 97.0484 36.3848 97.2152 36.8509H97.2069ZM116.872 93.9834L92.912 102.256L74.7317 48.8849L98.4328 40.5876L116.88 93.9834H116.872ZM121.317 105.576C121.383 107.216 120.207 107.923 118.656 108.681C115.479 110.228 111.459 111.377 107.573 112.492C104.546 113.358 101.41 114.256 98.7414 115.33C97.0901 115.263 96.2228 112.367 95.4556 109.812C95.0636 108.514 94.6967 107.274 94.2296 106.425L118.414 97.8615C118.665 97.8449 118.723 97.9198 118.923 98.286L119.007 98.4275C119.298 98.9351 121.275 105.019 121.325 105.568L121.317 105.576ZM66.8674 105.693V114.598C66.6339 114.872 65.825 115.688 65.5414 115.913H37.1784C36.9699 115.738 36.4862 115.247 36.3111 115.047V105.693H66.8674ZM66.8674 23.2439V101.648H36.3111V23.2439H66.8674ZM36.3111 19.6487V12.1753L36.7615 11.7259H65.5498C65.8583 12.0088 66.7256 13.1323 66.8674 13.4403V19.6487H36.3111ZM32.2414 31.9906V39.4474H7.17256C7.01411 37.8578 7.19758 33.6468 8.29006 32.3235C8.48187 32.0988 8.67369 31.9823 8.88218 31.9823H32.2414V31.9906ZM32.2414 43.5087V101.64H7.23094V43.5087H32.2497H32.2414ZM32.2414 105.693V114.656C32.1163 114.897 31.5742 115.655 31.3407 115.921H8.54859C8.24003 115.638 7.37271 114.514 7.23094 114.207V105.701H32.2497L32.2414 105.693Z" fill="#189EC7"/>
<path d="M57.6852 66.6864C58.2106 66.3952 59.2197 66.5616 59.8535 66.6282C61.9468 74.9921 44.7255 74.6925 43.7414 69.0999C42.7574 63.5073 47.5109 68.9335 48.8703 69.5327C51.197 70.5646 53.5822 70.5313 55.7254 69.0999C56.6595 68.4757 57.5518 66.7697 57.6936 66.6948L57.6852 66.6864Z" fill="#189EC7"/>
<path d="M57.4601 54.6941C60.5791 53.787 62.197 58.5057 59.2197 59.7374C55.8088 61.1522 54.3161 55.6096 57.4601 54.6941Z" fill="#189EC7"/>
<path d="M44.5341 54.694C48.387 53.5788 48.412 59.7457 45.2847 60.0369C42.7327 60.27 41.6986 55.5179 44.5341 54.694Z" fill="#189EC7"/>
<path d="M17.9552 62.0425C20.307 60.5445 21.8749 64.5392 22.05 66.3534C22.4586 70.6893 19.6815 73.211 19.6982 76.49C19.7149 78.7536 21.5663 80.4014 21.9332 82.5819C22.2835 84.6375 22.3752 91.6532 19.4814 91.9361C16.1789 92.269 18.4973 88.241 18.6975 86.9677C19.4814 81.966 15.6785 79.694 16.6126 74.2846C16.9378 72.3954 18.6558 70.0485 18.7975 68.1344C18.9226 66.4533 16.5792 62.8997 17.9552 62.0342V62.0425Z" fill="#189EC7"/>
<path d="M91.5859 56.5083C95.2303 55.2932 92.6951 60.22 92.6367 61.2936C92.4782 64.4311 97.1317 66.52 97.999 69.7989C98.6662 72.3289 97.6404 74.8672 97.949 76.748C98.416 79.6359 105.696 84.0051 102.552 87.7418C100.101 88.2911 100.409 85.7777 99.5335 84.3879C98.0824 82.0993 95.297 80.4099 94.9718 77.4222C94.7299 75.1918 95.7807 73.2527 95.2303 71.1804C94.5131 68.5007 90.8186 66.961 90.1265 64.2979C89.6928 62.6335 89.6177 57.1657 91.5942 56.5083H91.5859Z" fill="#189EC7"/>
</g>
<defs>
<clipPath id="clip0_5320_1229">
<rect width="122" height="113" fill="white" transform="translate(3.14453 7.39014)"/>
</clipPath>
</defs>
</svg>
