<svg width="160" height="102" viewBox="0 0 160 102" fill="none" xmlns="http://www.w3.org/2000/svg">
<g clip-path="url(#clip0_5350_1572)">
<path d="M158.16 5.58609C156.98 4.76657 155.48 4.60623 154.104 5.12289C153.747 5.2476 153.407 5.39012 153.05 5.53265L100.419 26.0385C100.151 26.1453 99.8834 26.2344 99.6154 26.3591C98.2041 26.9471 97.2036 28.2654 97.0071 29.8154C96.8106 31.3297 97.418 32.7728 98.615 33.6814C99.2939 34.198 100.116 34.4296 100.848 34.6256L118.588 39.899L129.254 43.0702C129.915 43.2484 130.451 43.4087 130.79 43.8719C131.076 44.2639 131.362 44.6914 131.63 45.1012L148.066 69.277C149.191 70.9339 150.603 71.7 152.246 71.5753C152.353 71.5753 152.461 71.5574 152.568 71.5396C154.515 71.2368 155.998 69.5977 156.141 67.5133L159.893 11.1089L160.018 9.22048C160.018 7.74179 159.357 6.42343 158.177 5.60391L158.16 5.58609ZM154.229 8.45441L130.844 40.2732C130.683 40.2197 130.522 40.1663 130.361 40.1128L102.527 31.8285C102.027 31.686 101.509 31.5435 101.009 31.3832C100.384 31.1872 100.134 30.6883 100.116 30.2964C100.098 29.8332 100.366 29.4412 100.848 29.2275C101.724 28.8711 102.599 28.5326 103.492 28.1941L154.211 8.4366L154.229 8.45441ZM156.766 10.3072L152.997 66.9075C152.925 67.9409 152.621 68.2259 152.175 68.3684C151.496 68.5644 151.121 68.2081 150.478 67.2461L137.49 48.1477C137.025 47.4529 136.561 46.7759 136.096 46.0811C135.203 44.7449 134.31 43.4087 133.381 42.1082L156.748 10.3072H156.766Z" fill="#6ABFDD"/>
<path d="M22.4029 96.82C21.1345 96.82 19.884 96.8022 18.6334 96.7488C17.6508 96.7131 16.8826 95.8758 16.9183 94.8959C16.9541 93.9161 17.7937 93.1322 18.7763 93.1856C20.009 93.2391 21.2774 93.2569 22.528 93.2569C23.9036 93.2569 25.2792 93.2213 26.6727 93.1678C27.6374 93.1678 28.495 93.8804 28.5307 94.8603C28.5664 95.8402 27.8161 96.6775 26.8156 96.7131C25.3328 96.7844 23.8322 96.8022 22.4029 96.8022V96.82ZM10.7013 96.0718C10.7013 96.0718 10.5583 96.0718 10.469 96.0718C7.71777 95.7333 4.9844 95.2522 2.39395 94.6821C1.42923 94.4684 0.821819 93.5241 1.0362 92.5621C1.25058 91.6 2.2153 90.9943 3.16216 91.2081C5.66328 91.7604 8.27159 92.2058 10.9156 92.5443C11.8982 92.669 12.595 93.5598 12.4699 94.5396C12.3627 95.4482 11.5945 96.1074 10.7013 96.1074V96.0718ZM34.7478 96.0183C33.8724 96.0183 33.1042 95.3591 32.9791 94.4684C32.8541 93.4885 33.5329 92.5977 34.5155 92.473C37.1417 92.1345 39.7322 91.6713 42.2511 91.1012C43.2159 90.8874 44.1627 91.4753 44.395 92.4374C44.6093 93.3994 44.0019 94.3437 43.0551 94.5753C40.4289 95.1632 37.7134 95.662 34.98 96.0183C34.9086 96.0183 34.8192 96.0183 34.7478 96.0183ZM50.3798 92.4552C49.6295 92.4552 48.9327 91.992 48.6826 91.2437C48.361 90.3173 48.8791 89.3018 49.8081 88.9811C52.3092 88.1438 54.7568 87.1818 57.0971 86.095C57.9904 85.6852 59.0623 86.0772 59.4732 86.968C59.8841 87.8588 59.491 88.9277 58.5978 89.3374C56.1502 90.4598 53.5777 91.4753 50.9515 92.3661C50.755 92.4374 50.5763 92.4552 50.3798 92.4552ZM64.9399 85.7209C64.3325 85.7209 63.7608 85.418 63.4214 84.8657C63.0641 84.2778 63.0819 83.583 63.4035 83.0307C63.0998 82.6566 62.9569 82.1756 63.0105 81.6589C63.1355 80.6791 64.0288 80.0021 65.0114 80.1268C65.7081 80.2158 66.4048 80.3049 67.1016 80.3762C68.2271 79.5923 69.3347 78.7728 70.3888 77.9176C71.157 77.2941 72.2825 77.4366 72.9078 78.2027C73.5152 78.9509 73.408 80.0555 72.6755 80.6791C73.7117 80.6791 74.5871 81.4451 74.5871 82.4606C74.5871 83.4405 73.7832 84.2422 72.8006 84.2422C71.2284 84.2422 69.6742 84.1709 68.0663 84.0462C67.3517 84.5272 66.6192 84.9904 65.8868 85.4358C65.6009 85.614 65.2793 85.7031 64.9578 85.7031L64.9399 85.7209ZM80.7863 83.6543C79.9288 83.6543 79.1606 83.0307 79.0177 82.1399C78.8747 81.1601 79.5358 80.2515 80.5005 80.1089C83.0373 79.717 85.5742 79.1113 88.0217 78.3096C88.9507 78.0067 89.969 78.5234 90.2727 79.4498C90.5764 80.3762 90.0583 81.3917 89.1293 81.6945C86.4853 82.5497 83.7698 83.1911 81.0543 83.6186C80.965 83.6186 80.8756 83.6364 80.7863 83.6364V83.6543ZM56.8827 82.2112C56.7398 82.2112 56.5969 82.2112 56.454 82.1577C53.7563 81.4986 51.1123 80.6256 48.5575 79.5388C47.6464 79.1469 47.2177 78.1136 47.6107 77.205C48.0037 76.2964 49.0399 75.8688 49.951 76.2608C52.3092 77.2584 54.7925 78.078 57.2936 78.7015C58.2583 78.9331 58.83 79.8952 58.5978 80.8572C58.4013 81.6767 57.6688 82.2112 56.8648 82.2112H56.8827ZM96.0074 78.755C95.3464 78.755 94.7211 78.3986 94.3996 77.7751C93.9529 76.9021 94.3102 75.8332 95.2035 75.3878C97.4545 74.2654 99.7234 72.9292 101.921 71.4505C102.743 70.8983 103.85 71.112 104.404 71.9316C104.958 72.7511 104.743 73.8557 103.922 74.4079C101.581 75.9757 99.1874 77.3832 96.7935 78.5768C96.5434 78.7015 96.2575 78.7728 95.9896 78.7728L96.0074 78.755ZM42.144 75.9757C41.8224 75.9757 41.4829 75.8866 41.1792 75.6907C38.7853 74.1585 36.5522 72.4482 34.5691 70.5954C33.8545 69.9184 33.8188 68.796 34.4977 68.0834C35.1765 67.3708 36.302 67.3351 37.0166 68.0121C38.8389 69.7224 40.8755 71.2902 43.1087 72.7155C43.9483 73.2499 44.1806 74.3545 43.6446 75.174C43.3052 75.7085 42.7335 75.9935 42.144 75.9935V75.9757ZM77.4277 75.7263C76.981 75.7263 76.5344 75.566 76.195 75.2275C75.4804 74.5505 75.4625 73.4103 76.1414 72.7155C77.9279 70.8626 79.6251 68.8673 81.1793 66.7828C81.7689 65.999 82.8765 65.8208 83.6805 66.4087C84.4665 66.9966 84.6452 68.119 84.0556 68.9029C82.412 71.112 80.6255 73.2143 78.7318 75.1918C78.3745 75.5481 77.91 75.7441 77.4455 75.7441L77.4277 75.7263ZM109.317 69.8293C108.817 69.8293 108.317 69.6155 107.959 69.2058C107.316 68.4575 107.405 67.3351 108.156 66.6938C110.085 65.0547 112.015 63.2553 113.908 61.3313C114.605 60.6364 115.731 60.6186 116.427 61.2956C117.124 61.9726 117.142 63.1128 116.463 63.8076C114.498 65.803 112.479 67.6914 110.478 69.3839C110.139 69.669 109.728 69.8115 109.317 69.8115V69.8293ZM30.5852 65.0013C30.0135 65.0013 29.4418 64.7162 29.1024 64.2174C27.4231 61.7232 26.1904 59.1399 25.4043 56.5567C25.1184 55.6124 25.6544 54.6148 26.6013 54.3297C27.5481 54.0447 28.5486 54.5791 28.8344 55.5234C29.5133 57.7859 30.6031 60.0307 32.0859 62.2399C32.6397 63.0594 32.4074 64.1639 31.6035 64.7162C31.2998 64.9122 30.9604 65.0191 30.6031 65.0191L30.5852 65.0013ZM86.9319 62.8634C86.6461 62.8634 86.3781 62.7921 86.1101 62.6674C85.2347 62.2042 84.8953 61.1353 85.3598 60.2623C86.5746 57.9285 87.5215 55.5412 88.1468 53.1895C88.3969 52.2453 89.3795 51.6752 90.3263 51.9246C91.2732 52.174 91.8448 53.1539 91.5947 54.0981C90.898 56.717 89.8618 59.3359 88.5219 61.9014C88.2004 62.5071 87.5751 62.8634 86.9319 62.8634ZM120.572 58.4273C120.161 58.4273 119.75 58.2848 119.429 58.0175C118.678 57.3762 118.571 56.2538 119.214 55.5055C120.715 53.724 122.233 51.8177 123.698 49.858C124.288 49.0741 125.414 48.9137 126.2 49.5017C126.986 50.0896 127.146 51.212 126.557 51.9959C125.038 54.0268 123.484 55.9687 121.93 57.8038C121.572 58.2135 121.072 58.4451 120.554 58.4451L120.572 58.4273ZM26.3154 49.8936C26.3154 49.8936 26.1904 49.8936 26.1189 49.8936C25.1363 49.7867 24.4217 48.9137 24.5289 47.9339C24.8505 45.0299 25.7973 42.2507 27.3695 39.6852C27.8875 38.8479 28.9773 38.5807 29.817 39.0795C30.6566 39.5962 30.9246 40.6829 30.4244 41.5203C29.1381 43.6403 28.352 45.9207 28.0841 48.308C27.9769 49.2166 27.2087 49.8936 26.3154 49.8936ZM90.8801 47.4885C89.9154 47.4885 89.1115 46.7046 89.0936 45.7426C89.0579 43.1771 88.6113 40.7364 87.7716 38.4738C87.4322 37.5474 87.9145 36.5319 88.8256 36.1934C89.7546 35.8549 90.7729 36.3359 91.1124 37.2445C92.0771 39.8812 92.5952 42.7139 92.6488 45.6713C92.6488 46.6512 91.8806 47.4707 90.898 47.4885H90.8623H90.8801ZM34.2654 36.4606C33.7295 36.4606 33.1935 36.2112 32.8362 35.7658C32.2466 34.9819 32.3896 33.8595 33.1756 33.2716C35.5874 31.4366 38.2672 29.9935 40.7326 29.174C41.6616 28.8711 42.6799 29.37 42.9836 30.3142C43.2873 31.2584 42.7871 32.2561 41.8402 32.559C39.7679 33.236 37.4097 34.5365 35.3373 36.1043C35.0157 36.3537 34.6406 36.4784 34.2475 36.4784L34.2654 36.4606ZM50.6835 33.3785C49.9332 33.3785 49.2007 33.2716 48.4861 33.04C47.5392 32.7371 47.0211 31.7395 47.3249 30.8131C47.6286 29.8688 48.6111 29.3522 49.558 29.655C51.1659 30.1539 53.0596 29.4769 54.2387 27.9982C54.3995 27.8022 54.5781 27.6062 54.7568 27.4103C55.4535 26.7155 56.579 26.6976 57.2757 27.4103C57.9725 28.1051 57.9904 29.2275 57.2757 29.9223C57.1864 30.0113 57.0971 30.1182 57.0078 30.2251C55.4356 32.2205 53.0417 33.4141 50.6478 33.4141L50.6835 33.3785ZM85.3062 32.844C84.8238 32.844 84.3415 32.6481 83.9842 32.2739C82.3406 30.4924 80.3575 29.0493 78.1065 28.016C77.2133 27.6062 76.8202 26.5373 77.2311 25.6465C77.642 24.7557 78.714 24.3638 79.6072 24.7735C82.3048 26.0206 84.663 27.7309 86.6282 29.8688C87.2892 30.5993 87.2535 31.7216 86.521 32.3808C86.1816 32.7015 85.7528 32.844 85.3062 32.844ZM63.1891 26.8936C62.4031 26.8936 61.6884 26.377 61.4741 25.5931C61.2061 24.6488 61.7599 23.669 62.7246 23.4017C64.922 22.796 67.1552 22.4397 68.8524 22.4397H69.0846C69.8528 22.4397 70.6032 22.4931 71.3356 22.5644C72.3182 22.6535 73.0328 23.5265 72.9435 24.5063C72.8542 25.4862 72.0324 26.1988 70.9962 26.1097C70.3531 26.0563 69.7099 26.0028 69.031 26.0028H68.8702C67.4768 26.0028 65.6009 26.3057 63.6893 26.8223C63.5286 26.858 63.3678 26.8936 63.207 26.8936H63.1891Z" fill="#6ABFDD"/>
<path d="M80.9643 53.2963C79.9281 58.1422 77.2126 62.5605 73.8718 66.3018C72.3176 68.0477 70.6204 69.6867 68.8517 71.2367C66.9401 72.9114 64.3497 73.6062 61.8486 73.0717C59.544 72.5907 57.2751 72.0028 55.0419 71.2367C50.2898 69.5977 45.752 67.1035 42.4649 63.38C39.1777 59.6565 37.2304 54.6147 37.9807 49.7154C38.731 44.8161 42.447 40.2553 47.3956 39.1151C50.7543 38.349 54.3273 39.2042 57.1679 41.0926C58.7222 38.0461 61.4019 35.552 64.707 34.5721C69.5663 33.1468 75.0509 35.2847 78.1237 39.1863C81.1965 43.088 82.0005 48.4327 80.9643 53.2785V53.2963Z" fill="#FC7B69"/>
<path d="M154.23 8.45434L130.844 40.2731C130.683 40.2196 130.523 40.1662 130.362 40.1127L102.528 31.8285C102.028 31.6859 101.51 31.5434 101.009 31.3831C100.384 31.1871 100.134 30.6883 100.116 30.2963C100.098 29.8331 100.366 29.4412 100.849 29.2274C101.724 28.8711 102.599 28.5326 103.493 28.1941L154.212 8.43652L154.23 8.45434Z" fill="white"/>
<path d="M156.766 10.3074L152.997 66.9077C152.925 67.941 152.622 68.226 152.175 68.3686C151.496 68.5645 151.121 68.2082 150.478 67.2462L137.49 48.1478C137.025 47.453 136.561 46.776 136.096 46.0812C135.203 44.745 134.31 43.4088 133.381 42.1083L156.749 10.3074H156.766Z" fill="white"/>
</g>
<defs>
<clipPath id="clip0_5350_1572">
<rect width="159" height="92" fill="white" transform="translate(1 4.82007)"/>
</clipPath>
</defs>
</svg>
