<svg width="160" height="102" viewBox="0 0 160 102" fill="none" xmlns="http://www.w3.org/2000/svg">
<path d="M108.113 3.29004C112.15 4.47869 111.921 10.6047 107.571 10.7852C102.649 10.9899 102.098 4.62397 106.575 3.29004H108.113ZM108.28 8.07988C109.647 6.71073 107.002 4.45668 106.024 6.59846C105.409 7.94781 107.388 8.97357 108.28 8.07988Z" fill="#6ABFDD"/>
<path d="M45.4918 47.7546C44.0021 44.6069 44.9359 40.6271 48.3525 39.2822C51.6637 37.9768 54.041 39.3042 55.8581 42.1041C59.9009 48.338 63.3768 56.817 66.989 63.5307C67.8678 65.1618 69.1532 66.7093 70.0035 68.435C74.3671 77.3037 74.5187 88.6752 70.9856 97.8345C68.4655 98.0876 65.9189 97.8653 63.3922 97.9313C60.3865 98.0084 57.194 98.4464 54.1641 98.1712C51.9229 97.9665 52.7205 96.5952 52.4986 94.9971C51.1254 85.0894 46.7178 81.6621 41.4929 74.1054C31.0366 58.994 24.6626 39.3658 25.9303 20.781C26.205 16.7373 27.9605 12.6233 32.6493 12.9688C40.1966 13.5258 38.2279 23.0394 38.6849 28.2717C39.2672 34.9414 41.0821 42.617 45.4918 47.7546ZM54.9528 95.7301C56.7128 95.5364 68.7709 96.1109 69.34 95.5298C69.9618 94.8936 70.9197 88.0809 70.99 86.8372C71.5437 77.0066 69.608 73.423 65.2312 65.2939C61.4477 58.2676 58.0047 50.3323 53.9575 43.5701C51.2286 39.0136 46.0455 41.8708 47.4605 46.1169C48.1416 48.1619 51.0199 51.8577 51.3802 53.6407C51.6241 54.8447 51.088 55.5227 49.8334 55.1881C48.9919 54.9636 45.2721 51.4615 44.5031 50.6206C39.2255 44.8556 36.9096 35.9253 36.2681 28.2739C36.022 25.3177 36.3494 21.8662 36.0483 19.0288C35.5737 14.5515 29.8215 13.8427 28.6021 18.8351C27.6529 22.7224 28.4703 32.1656 29.0481 36.3876C30.7619 48.9411 35.7385 61.2745 42.7695 71.7281C45.8082 76.2493 49.7631 80.1213 52.057 85.096C53.6082 88.4595 54.5947 92.0343 54.955 95.7279L54.9528 95.7301Z" fill="#6ABFDD"/>
<path d="M114.048 47.7546C118.444 42.6214 120.274 34.9325 120.855 28.2717C121.305 23.1186 119.36 13.6952 126.681 12.9776C134.846 12.1786 133.844 24.0475 133.598 29.3723C132.858 45.3267 127.046 61.0852 118.049 74.1076C112.806 81.6951 108.429 85.0454 107.043 94.9993C106.79 96.8175 107.68 97.9621 105.156 98.1712C99.8078 98.6159 93.9633 97.6473 88.5538 97.8366C85.0208 88.6774 85.1724 77.3059 89.536 68.4372C90.3863 66.7093 91.6716 65.164 92.5505 63.5329C96.4395 56.3041 99.9857 48.8794 103.895 41.6595C108.418 35.2385 117.315 40.6579 114.048 47.7568V47.7546ZM104.587 95.7301C104.903 92.0012 105.927 88.4749 107.485 85.0982C109.59 80.5351 112.918 77.2003 115.761 73.139C123.693 61.8072 129.149 48.4788 130.715 34.631C131.142 30.8625 131.803 22.0532 130.902 18.6502C129.634 13.8647 123.937 14.6109 123.496 19.0332C123.208 21.9014 123.52 25.3022 123.271 28.2739C122.619 36.086 120.261 45.0075 114.817 50.8407C114.061 51.6508 110.675 54.8205 109.86 55.1199C108.568 55.5931 107.896 54.9416 108.159 53.6407C108.52 51.8577 111.396 48.1618 112.079 46.1169C113.096 43.066 110.532 40.2815 107.52 41.5516C106.452 42.0006 106.144 42.6346 105.582 43.5723C101.53 50.3388 98.1027 58.2698 94.3082 65.2961C89.9271 73.4098 87.9957 77.0242 88.5494 86.8394C88.6197 88.0831 89.5777 94.8958 90.1995 95.532C90.7686 96.1153 102.829 95.5386 104.587 95.7323V95.7301Z" fill="#6ABFDD"/>
<path d="M50.0506 27.334C54.6515 26.6054 55.3063 33.4247 51.0701 33.8716C46.834 34.3184 46.1638 27.9481 50.0506 27.334ZM49.921 31.2125C50.1473 31.5845 51.5183 31.8134 51.4458 30.4729C51.3601 28.8924 49.1256 29.9072 49.921 31.2125Z" fill="#6ABFDD"/>
<path d="M112.508 13.8559C115.384 13.4003 115.41 16.6471 112.508 16.2795C112.705 19.2269 109.733 19.2489 109.86 16.2883C108.928 16.3279 107.999 16.2927 107.709 15.2361C107.735 13.8977 108.707 13.7106 109.871 13.8559C109.656 10.8182 112.734 10.8469 112.508 13.8559Z" fill="#6ABFDD"/>
<path d="M44.4088 23.0856C44.6285 23.2947 46.4412 22.729 46.116 24.479C45.9029 25.6192 44.734 25.2758 44.4418 25.5708C44.0836 25.9296 44.5451 27.2965 42.9807 27.2745C41.6382 27.2569 42.1523 25.7381 41.9612 25.5378C41.8667 25.4387 39.7157 25.3925 40.087 23.9771C40.3792 22.8655 41.3306 23.2881 41.7678 23.0042C42.0227 22.8413 41.9524 20.6665 43.4465 21.2784C44.4989 21.7077 44.3056 22.991 44.4066 23.0856H44.4088Z" fill="#6ABFDD"/>
<path d="M101.9 35.599C99.6057 40.1086 95.763 43.74 91.4745 46.57C89.4688 47.893 87.3643 49.0549 85.2074 50.1286C82.8742 51.2905 80.1264 51.2905 77.7932 50.1286C75.6363 49.0549 73.5299 47.893 71.5261 46.57C67.2376 43.74 63.3949 40.1086 61.1004 35.599C58.806 31.0895 58.2072 25.6308 60.2303 21.0024C62.2535 16.372 67.1407 12.846 72.3245 13.0052C75.8534 13.1126 79.1671 14.8861 81.5003 17.4764C83.8354 14.8861 87.1492 13.1145 90.6761 13.0052C95.8618 12.848 100.747 16.3739 102.77 21.0024C104.793 25.6327 104.193 31.0914 101.9 35.599Z" fill="#FC7B69"/>
<path d="M104.587 95.73C104.903 92.0011 105.927 88.4748 107.485 85.0981C109.59 80.535 112.918 77.2001 115.762 73.1389C123.693 61.807 129.149 48.4787 130.716 34.6309C131.142 30.8624 131.803 22.0531 130.902 18.65C129.635 13.8646 123.937 14.6108 123.496 19.033C123.208 21.9012 123.52 25.3021 123.272 28.2737C122.619 36.0859 120.261 45.0074 114.817 50.8406C114.061 51.6506 110.675 54.8204 109.86 55.1198C108.568 55.593 107.896 54.9415 108.159 53.6405C108.52 51.8576 111.396 48.1617 112.079 46.1168C113.096 43.0659 110.532 40.2814 107.52 41.5515C106.452 42.0005 106.145 42.6345 105.582 43.5722C101.531 50.3387 98.1029 58.2697 94.3084 65.296C89.9272 73.4096 87.9959 77.024 88.5496 86.8393C88.6199 88.0829 89.5779 94.8957 90.1997 95.5318C90.7687 96.1152 102.829 95.5385 104.587 95.7322V95.73Z" fill="white"/>
<path d="M54.9534 95.7301C56.7133 95.5364 68.7714 96.1109 69.3405 95.5298C69.9623 94.8937 70.9202 88.0809 70.9905 86.8372C71.5442 77.0066 69.6085 73.423 65.2318 65.2939C61.4482 58.2676 58.0052 50.3323 53.958 43.5701C51.2291 39.0136 46.046 41.8708 47.461 46.1169C48.1421 48.1619 51.0204 51.8577 51.3808 53.6407C51.6246 54.8448 51.0885 55.5227 49.8339 55.1881C48.9924 54.9636 45.2726 51.4615 44.5036 50.6206C39.226 44.8556 36.9101 35.9253 36.2686 28.2739C36.0225 25.3177 36.3499 21.8662 36.0489 19.0288C35.5743 14.5515 29.8221 13.8427 28.6026 18.8351C27.6534 22.7224 28.4708 32.1656 29.0487 36.3876C30.7624 48.9411 35.7391 61.2745 42.77 71.7281C45.8087 76.2494 49.7636 80.1213 52.0575 85.096C53.6087 88.4595 54.5952 92.0343 54.9556 95.7279L54.9534 95.7301Z" fill="white"/>
</svg>
