<svg width="65" height="48" viewBox="0 0 65 48" fill="none" xmlns="http://www.w3.org/2000/svg">
<g clip-path="url(#clip0_5250_1391)">
<path d="M46.9444 11.7185C42.8799 11.7185 39.1289 13.0689 36.1111 15.3453V3.62815C36.1111 1.62483 34.4939 0 32.5 0C30.5061 0 28.8889 1.62483 28.8889 3.62815V12.8756C33.0341 15.5548 36.1394 19.7223 37.4511 24.6225C39.2971 21.2593 42.8597 18.9748 46.9444 18.9748C52.9181 18.9748 57.7778 23.8574 57.7778 29.8592C57.7778 35.8611 52.9181 40.7437 46.9444 40.7437C40.9708 40.7437 36.1111 35.8611 36.1111 29.8592H36.1044C36.1044 19.8602 28.0076 11.7253 18.0556 11.7253V11.7185C13.991 11.7185 10.24 13.0689 7.22222 15.3453V3.62815C7.22222 1.62483 5.60503 0 3.61111 0C1.6172 0 0 1.62483 0 3.62815V29.8579C0 39.8772 8.08329 48 18.0556 48C23.2085 48 27.8569 45.8304 31.1465 42.351C29.4903 40.2422 28.2458 37.7941 27.53 35.1284C25.6801 38.4727 22.1268 40.7423 18.0556 40.7423C12.0819 40.7423 7.22222 35.8598 7.22222 29.8579C7.22222 23.856 12.0819 18.9734 18.0556 18.9734C24.0292 18.9734 28.8889 23.856 28.8889 29.8579C28.8889 30.0093 28.8835 30.1593 28.8781 30.308C28.9696 34.2201 30.3002 37.8306 32.4906 40.7545C32.4933 40.7505 32.4973 40.7464 32.5 40.7423C35.7936 45.1478 41.038 47.9973 46.9444 47.9973C56.9167 47.9973 65 39.8759 65 29.8565C65 19.8372 56.9167 11.7158 46.9444 11.7158V11.7185Z" fill="#6ABFDD"/>
</g>
<defs>
<clipPath id="clip0_5250_1391">
<rect width="65" height="48" fill="white"/>
</clipPath>
</defs>
</svg>
