<svg width="218" height="74" viewBox="0 0 218 74" fill="none" xmlns="http://www.w3.org/2000/svg">
<mask id="path-1-outside-1_5503_3338" maskUnits="userSpaceOnUse" x="0" y="0" width="218" height="74" fill="black">
<rect fill="white" width="218" height="74"/>
<path d="M49.5396 68C46.4118 68 43.8052 67.7121 41.72 67.1363C39.6348 66.6017 37.8206 65.8408 36.2776 64.8537C34.7345 63.8667 32.6284 62.3244 29.9593 60.2269L27.7073 58.4378C27.457 58.2733 27.1234 58.0265 26.7063 57.6975C26.2893 57.3685 25.9348 57.06 25.6429 56.7721C25.0173 56.8133 23.4534 57.8003 20.9511 59.7333C19.1995 61.0494 17.7816 62.0365 16.6972 62.6945C15.6129 63.3937 14.758 63.7433 14.1324 63.7433C13.7988 63.7433 13.486 63.6405 13.194 63.4348C12.9438 63.2703 12.8187 63.0235 12.8187 62.6945C12.8187 61.872 15.175 59.7333 19.8876 56.2786C20.4298 55.9085 21.0137 55.4766 21.6392 54.9831C21.6392 54.9831 22.1814 54.4484 23.2657 53.3791C23.1406 53.2146 22.8278 52.7211 22.3274 51.8985C21.8269 51.076 21.4307 50.6647 21.1388 50.6647C21.0554 50.6647 20.7843 50.932 20.3255 51.4667C19.8668 52.0013 19.5749 52.3509 19.4497 52.5154C18.0318 54.1605 16.8849 55.4149 16.0091 56.2786C15.1333 57.1834 14.4035 57.6358 13.8196 57.6358C13.4026 57.6358 13.0272 57.533 12.6936 57.3274C12.36 57.1629 12.1931 56.8955 12.1931 56.5254C12.1931 55.7851 12.7979 54.6335 14.0073 53.0706C15.2584 51.5078 17.0309 49.4308 19.3246 46.8398C19.6166 46.5108 20.3255 45.7088 21.4516 44.4338C22.5776 43.1589 23.2032 42.3158 23.3283 41.9045C22.1188 41.4932 21.2013 40.7735 20.5758 39.7453C19.9502 38.7171 19.6374 37.5244 19.6374 36.1672C19.6374 35.6736 19.7417 35.0773 19.9502 34.3781C20.117 33.6378 20.2004 33.062 20.2004 32.6507L20.0753 32.5891C19.7 32.6302 19.3246 33.0003 18.9493 33.6995C18.5739 34.3575 18.0526 35.468 17.3854 37.0308C16.593 38.9638 15.8631 40.5061 15.1959 41.6577C14.5286 42.7682 13.8405 43.3234 13.1315 43.3234C11.7969 43.3234 11.1297 42.5214 11.1297 40.9174C11.1297 39.9303 11.5884 38.6554 12.5059 37.0925C13.4651 35.4886 14.5912 34.1108 15.884 32.9592C17.1768 31.7665 18.3446 31.1701 19.3872 31.1701C19.5957 31.1701 19.8042 31.2935 20.0128 31.5403C20.263 31.7459 20.4298 31.8899 20.5132 31.9721C20.7217 31.931 20.9303 31.6842 21.1388 31.2318C21.3473 30.7383 21.5558 30.3476 21.7643 30.0597C21.9729 29.7718 22.2857 29.6279 22.7027 29.6279C23.2032 29.6279 23.5159 29.8746 23.6411 30.3682C23.8079 30.8617 23.8913 31.458 23.8913 32.1572C23.8913 32.3217 23.8704 32.8358 23.8287 33.6995C23.787 34.5632 23.8704 35.3446 24.079 36.0438C24.3292 36.7018 24.7045 37.0308 25.205 37.0308C25.622 37.0308 26.2267 36.8252 27.0191 36.4139C27.8115 36.0027 28.2286 35.6119 28.2703 35.2418C28.312 35.2829 27.9783 34.8922 27.2694 34.0697C26.6021 33.3705 26.1016 32.7741 25.768 32.2806C25.4761 31.7459 25.3301 31.1085 25.3301 30.3682C25.3301 29.8746 25.4761 29.3605 25.768 28.8259C26.1016 28.2912 26.5187 28.0239 27.0191 28.0239C27.3945 28.0239 27.7698 28.209 28.1452 28.5791C28.5205 28.9493 28.7707 29.1755 28.8958 29.2577C29.2712 29.6279 30.2304 30.4298 31.7735 31.6637C32.6493 32.3217 33.3374 32.8564 33.8378 33.2677C33.8378 34.1313 33.7544 34.7483 33.5876 35.1184C33.4208 35.4886 32.962 35.8381 32.2114 36.1672C31.836 36.3317 31.5024 36.5784 31.2104 36.9075C30.9185 37.1954 30.6474 37.5244 30.3972 37.8945C30.147 38.2235 29.9802 38.4292 29.8967 38.5114C29.3963 39.2929 28.8958 39.9509 28.3954 40.4856C27.8949 40.9791 27.3111 41.3287 26.6438 41.5343C26.3102 41.6166 26.0808 41.74 25.9557 41.9045L25.8931 42.2129C25.8931 42.5831 25.9557 42.9532 26.0808 43.3234C26.2476 43.6524 26.4978 43.8169 26.8315 43.8169C27.04 43.8169 27.3319 43.7552 27.7073 43.6318C28.1243 43.5085 28.4371 43.4468 28.6456 43.4468C29.6465 43.4468 30.5223 43.7141 31.273 44.2488C32.0237 44.7834 32.399 45.5237 32.399 46.4697C32.399 47.4156 31.7318 48.8756 30.3972 50.8498C29.8133 51.7957 29.3963 52.536 29.1461 53.0706C29.1461 53.0706 29.7299 53.6464 30.8977 54.798C32.4407 56.3197 33.3791 57.2245 33.7127 57.5124C36.1733 59.5688 38.9467 61.1934 42.0328 62.3861C45.1189 63.6199 48.3093 64.3396 51.604 64.5453C52.1879 65.2856 52.4798 65.9436 52.4798 66.5194C52.4798 67.1363 52.1879 67.527 51.604 67.6915C51.0201 67.8972 50.332 68 49.5396 68ZM6 34.7483C6 34.4604 6.27108 33.8846 6.81324 33.0209C7.3554 32.1161 7.68904 31.5609 7.81415 31.3552C9.39893 28.8464 10.2747 27.1808 10.4415 26.3582C11.359 24.8776 12.2348 24.1373 13.0689 24.1373C13.3192 24.1373 13.5068 24.3224 13.6319 24.6925C13.7571 25.0216 13.903 25.1861 14.0698 25.1861C14.2784 25.1861 14.6329 25.0833 15.1333 24.8776C17.8441 23.7672 21.1596 22.6773 25.0799 21.608C29.0001 20.4975 31.982 19.9423 34.0255 19.9423C35.5686 19.9423 36.8823 20.3124 37.9666 21.0527C39.0509 21.7519 39.5931 22.8418 39.5931 24.3224C39.5931 26.0909 38.9675 26.9751 37.7164 26.9751C37.341 26.9751 37.0491 26.8929 36.8406 26.7284C36.6738 26.5638 36.4861 26.2965 36.2776 25.9264C36.0273 25.5151 35.7563 25.2066 35.4643 25.001C35.2141 24.7542 34.797 24.6308 34.2132 24.6308C32.7118 24.6308 30.3555 24.7954 27.1442 25.1244C23.9747 25.4534 20.9928 25.9058 18.1986 26.4816C15.4044 27.0163 13.6528 27.6332 12.9438 28.3323C12.6936 28.6202 12.4434 29.0932 12.1931 29.7512C11.9429 30.3682 11.6927 31.0262 11.4425 31.7254C10.942 33.3294 10.4415 34.5837 9.94109 35.4886C9.48234 36.3522 8.85677 36.7841 8.06438 36.7841C7.52222 36.7841 7.04262 36.5784 6.62557 36.1672C6.20852 35.7559 6 35.2829 6 34.7483ZM8.68995 13.8965C8.68995 12.8272 10.379 11.7167 13.7571 10.5652C14.1741 10.4007 15.4044 9.90713 17.4479 9.08458C20.0336 8.01526 21.9937 7.23383 23.3283 6.7403C24.7045 6.24677 25.7263 6 26.3936 6C27.1025 6 27.8115 6.18507 28.5205 6.55522C29.2295 6.92537 29.584 7.41891 29.584 8.03582C29.584 8.85837 29.3337 9.43416 28.8333 9.76318C28.3328 10.0511 27.5821 10.2978 26.5812 10.5035C25.8305 10.668 25.2675 10.8325 24.8922 10.997C24.5586 11.1204 24.3292 11.3672 24.2041 11.7373C24.2458 11.8607 24.4126 12.0252 24.7045 12.2308C25.3718 12.6833 25.8931 13.4647 26.2684 14.5751C26.6855 15.6856 26.894 16.7343 26.894 17.7214C26.894 18.3383 26.6646 18.7907 26.2059 19.0786C25.7471 19.3665 25.205 19.5104 24.5794 19.5104C23.9121 19.5104 23.2032 19.0992 22.4525 18.2766C21.7435 17.4129 21.389 16.6521 21.389 15.994C21.389 15.5828 21.4099 15.192 21.4516 14.8219C21.535 14.4106 21.5767 13.9993 21.5767 13.5881V13.1562C21.2013 13.1973 20.4507 13.403 19.3246 13.7731C18.2403 14.1433 17.6981 14.4312 17.6981 14.6368C17.6981 14.6779 17.9692 15.1098 18.5114 15.9323C20.263 18.2766 21.1388 19.8806 21.1388 20.7443C21.1388 21.1144 20.9303 21.5257 20.5132 21.9781C20.1379 22.4305 19.7625 22.6567 19.3872 22.6567C18.0943 22.6567 17.0517 22.1837 16.2593 21.2378C15.5087 20.2507 14.758 18.9141 14.0073 17.2279C13.9656 17.1045 13.8196 16.7755 13.5694 16.2408C13.3192 15.665 13.0898 15.3154 12.8813 15.192C12.5476 15.2743 12.1514 15.3154 11.6927 15.3154C10.9003 15.3154 10.1913 15.2126 9.56575 15.007C8.98188 14.7602 8.68995 14.39 8.68995 13.8965ZM24.9548 49.3075C24.9548 49.5131 25.0799 49.6982 25.3301 49.8627C25.5803 50.0272 25.8097 50.1095 26.0182 50.1095C26.4353 49.6982 26.7898 49.1635 27.0817 48.5055L26.8315 48.3821C26.4978 48.3821 26.1016 48.4643 25.6429 48.6289C25.1841 48.7934 24.9548 49.0196 24.9548 49.3075ZM29.5214 16.5493C29.5214 16.138 29.6882 15.4799 30.0219 14.5751C30.3972 13.6703 30.8143 12.8683 31.273 12.1692C31.7735 11.47 32.2322 11.1204 32.6493 11.1204C33.4416 11.1204 34.0255 11.3877 34.4009 11.9224C34.8179 12.4159 35.0264 13.074 35.0264 13.8965C35.0264 14.4312 34.8179 15.0892 34.4009 15.8706C34.0255 16.6521 33.5251 17.3307 32.8995 17.9065C32.3156 18.4411 31.7526 18.7085 31.2104 18.7085C30.8351 18.7085 30.4598 18.4617 30.0844 17.9682C29.7091 17.4335 29.5214 16.9605 29.5214 16.5493ZM35.2141 33.3294C35.2141 32.6302 35.7354 32.2806 36.778 32.2806C38.0292 32.2806 39.3846 32.5685 40.8442 33.1443C42.3456 33.6789 43.0963 34.4398 43.0963 35.4269C43.0963 35.8381 42.9294 36.2494 42.5958 36.6607C42.2622 37.0308 41.8868 37.2159 41.4698 37.2159C40.9693 37.2159 40.1978 37.0103 39.1552 36.599C38.1543 36.1466 37.2368 35.6119 36.4027 34.995C35.6103 34.3781 35.2141 33.8229 35.2141 33.3294Z"/>
<path d="M80.9432 25.4945C81.1517 25.4945 81.3186 25.5768 81.4437 25.7413C81.5688 25.8647 81.6313 26.0292 81.6313 26.2348C81.6313 26.4405 81.4645 26.8723 81.1309 27.5303C80.7972 28.1473 80.6304 28.7642 80.6304 29.3811C80.6304 30.327 80.7347 31.3552 80.9432 32.4657C81.1934 33.535 81.5271 34.5015 81.9441 35.3652C81.9858 35.4474 82.1109 35.6942 82.3195 36.1055C82.528 36.4756 82.6322 36.8869 82.6322 37.3393C82.6322 37.7095 82.4654 37.9768 82.1318 38.1413C81.8399 38.3058 81.4854 38.3881 81.0683 38.3881C79.8172 38.3881 78.9831 37.5861 78.566 35.9821C78.149 34.337 77.9405 32.6096 77.9405 30.8C77.9405 29.6484 78.1907 28.4763 78.6912 27.2836C79.1916 26.0909 79.9423 25.4945 80.9432 25.4945ZM56.4209 42.9532C56.4209 41.596 56.7337 39.9098 57.3592 37.8945C57.9848 35.8793 58.7981 34.008 59.799 32.2806C60.8416 30.5532 61.9259 29.3811 63.0519 28.7642C63.3439 28.5997 63.6566 28.4968 63.9903 28.4557C64.3239 28.4146 64.6576 28.394 64.9912 28.394C65.1997 28.394 65.5542 28.4352 66.0547 28.5174L66.3049 28.8876C66.3049 29.1343 66.1172 29.2988 65.7419 29.3811C64.6993 29.7101 63.8026 30.7589 63.0519 32.5274C62.3012 34.2959 61.7174 36.2494 61.3003 38.3881C60.925 40.5267 60.7373 42.2335 60.7373 43.5085C60.7373 44.331 60.6539 44.9685 60.4871 45.4209C60.3203 45.8322 59.8824 46.0378 59.1734 46.0378C58.2976 46.0378 57.6095 45.7499 57.109 45.1741C56.6503 44.5572 56.4209 43.8169 56.4209 42.9532ZM68.4944 33.206C68.4944 32.3012 68.6195 31.4169 68.8697 30.5532C69.1617 29.6484 69.6621 29.196 70.3711 29.196C70.9967 29.196 71.3094 29.7718 71.3094 30.9234C71.3094 32.1983 71.6222 33.8023 72.2478 35.7353C72.9151 37.6683 73.7909 39.3546 74.8752 40.794C75.9595 42.2335 77.1689 42.9532 78.5035 42.9532C79.1291 42.9532 79.7755 42.7887 80.4428 42.4597C81.1517 42.0896 81.965 41.596 82.8825 40.9791C83.0076 40.8968 83.3412 40.6912 83.8834 40.3622C84.4673 39.992 84.9052 39.807 85.1971 39.807C85.5307 39.807 85.7809 39.9509 85.9478 40.2388C86.1146 40.5267 86.198 40.8352 86.198 41.1642C86.198 42.1101 85.7601 43.0561 84.8843 44.002C84.0085 44.9068 82.945 45.6677 81.6939 46.2846C80.4845 46.8604 79.421 47.1483 78.5035 47.1483C76.4183 47.1483 74.6041 46.408 73.061 44.9274C71.5597 43.4468 70.4128 41.6166 69.6204 39.4368C68.8697 37.257 68.4944 35.1801 68.4944 33.206ZM87.6368 28.0239C87.6368 26.5433 87.9079 25.803 88.45 25.803C88.7837 25.803 89.0756 25.8647 89.3258 25.9881C89.8263 26.276 90.2433 27.4892 90.577 29.6279C90.7438 30.4504 91.1608 31.7459 91.8281 33.5144C92.2869 34.7483 92.6205 35.797 92.829 36.6607C93.0793 37.4832 93.2044 38.3264 93.2044 39.19C93.2044 39.4779 92.9958 39.7453 92.5788 39.992C92.2035 40.1977 91.849 40.3005 91.5153 40.3005C88.9296 40.3005 87.6368 36.2083 87.6368 28.0239Z"/>
<path d="M124.483 15.4388C124.483 15.0687 124.733 14.7396 125.234 14.4517C125.776 14.1638 126.547 13.8348 127.548 13.4647C128.466 13.1768 129.07 12.9095 129.362 12.6627C129.654 12.3748 129.904 11.9224 130.113 11.3055C130.321 10.7297 130.53 10.2978 130.739 10.01C130.989 9.68093 131.322 9.51642 131.739 9.51642C132.115 9.51642 132.365 9.59867 132.49 9.76318C132.657 9.92769 132.782 10.195 132.865 10.5652C132.949 10.8942 133.074 11.1204 133.241 11.2438C133.449 11.2849 133.825 11.326 134.367 11.3672C134.951 11.4083 135.43 11.5111 135.806 11.6756C136.181 11.8401 136.369 12.0869 136.369 12.4159C136.369 12.9506 136.181 13.3413 135.806 13.5881C135.472 13.8348 134.93 14.1022 134.179 14.39C134.096 14.4312 133.908 14.5134 133.616 14.6368C133.324 14.7191 133.137 14.8219 133.053 14.9453C132.928 15.1509 132.865 15.7267 132.865 16.6726C132.865 17.5363 132.949 18.1121 133.116 18.4L133.428 18.4617C133.679 18.4617 134.033 18.4206 134.492 18.3383C134.951 18.2149 135.284 18.1532 135.493 18.1532C136.535 18.1532 137.39 18.5851 138.058 19.4488C138.725 20.3124 139.059 21.2789 139.059 22.3483C139.059 22.7595 139.017 23.0886 138.933 23.3353C138.433 25.2272 137.912 26.6872 137.37 27.7154C136.827 28.7436 135.889 29.7512 134.555 30.7383C134.388 30.8617 134.033 31.0468 133.491 31.2935C132.991 31.5403 132.594 31.8076 132.302 32.0955C132.052 32.3423 131.927 32.6713 131.927 33.0826V33.206H132.24C134.45 32.3012 136.39 31.5609 138.058 30.9851C139.768 30.4093 141.165 30.1214 142.249 30.1214C143.292 30.1214 143.813 30.6766 143.813 31.7871C143.813 32.3629 143.917 32.9592 144.126 33.5761C144.334 34.1519 144.459 34.5015 144.501 34.6249C144.918 35.6942 145.147 36.5167 145.189 37.0925C145.189 37.2982 145.21 37.6066 145.252 38.0179C145.293 38.3881 145.335 38.7171 145.377 39.005C145.544 39.1695 145.731 39.334 145.94 39.4985C146.19 39.6219 146.357 39.7658 146.44 39.9303C146.565 40.0537 146.628 40.2594 146.628 40.5473C146.628 40.9997 146.273 41.4315 145.565 41.8428C144.856 42.2541 143.813 42.7887 142.437 43.4468C141.311 43.9403 140.477 44.331 139.934 44.6189C139.434 44.9068 139.184 45.1947 139.184 45.4826L139.246 45.7294C140.247 50.459 140.748 54.7158 140.748 58.4995C140.748 60.2269 140.497 61.6663 139.997 62.8179C139.497 64.0106 138.496 64.607 136.994 64.607C136.327 64.607 135.639 64.1751 134.93 63.3114C134.221 62.4889 133.866 61.7486 133.866 61.0905C133.866 60.6381 133.929 60.3297 134.054 60.1652C134.221 60.0418 134.471 59.939 134.805 59.8567C135.18 59.7745 135.472 59.6716 135.681 59.5483C135.847 59.3015 136.014 58.7874 136.181 58.006C136.348 57.2657 136.431 56.7104 136.431 56.3403C136.431 55.8056 135.993 55.2915 135.118 54.798C134.283 54.3456 133.157 53.8521 131.739 53.3174C130.989 53.0706 130.405 52.8444 129.988 52.6388C129.571 52.4332 129.091 52.1453 128.549 51.7751C128.049 51.405 127.798 51.0965 127.798 50.8498C127.798 50.274 127.652 49.9861 127.36 49.9861C127.069 49.9861 126.714 50.1506 126.297 50.4796C125.88 50.7675 125.63 50.932 125.546 50.9731C124.962 51.3844 124.483 51.7134 124.107 51.9602C123.732 52.1658 123.357 52.2687 122.981 52.2687C122.564 52.2687 122.189 52.1041 121.855 51.7751C121.522 51.405 121.355 50.9937 121.355 50.5413C121.355 49.3486 122.418 48.2381 124.545 47.2099C126.339 46.3463 129.07 45.1741 132.74 43.6935C134.075 43.2 135.222 42.7476 136.181 42.3363C136.306 42.1307 136.369 41.7811 136.369 41.2876L136.306 39.6219C136.306 39.334 136.369 38.9227 136.494 38.3881C136.661 37.8534 136.744 37.4627 136.744 37.2159L136.556 37.0925C136.306 37.1337 136.077 37.2159 135.868 37.3393C134.534 37.9562 132.782 38.5526 130.613 39.1284C128.486 39.7041 126.777 39.992 125.484 39.992C125.275 39.992 125.046 39.807 124.796 39.4368C124.587 39.0255 124.483 38.7171 124.483 38.5114C124.483 38.059 124.671 37.6683 125.046 37.3393C125.463 36.9692 126.109 36.5167 126.985 35.9821C127.694 35.5708 128.215 35.2418 128.549 34.995C128.924 34.7071 129.112 34.3987 129.112 34.0697L128.924 33.6995C128.716 33.7406 128.361 33.864 127.861 34.0697C127.36 34.2342 126.881 34.3164 126.422 34.3164C125.922 34.3164 125.567 34.2342 125.359 34.0697C125.192 33.9051 125.046 33.6172 124.921 33.206C124.837 32.7947 124.712 32.4657 124.545 32.2189C124.087 31.5197 123.795 30.8206 123.67 30.1214C123.544 29.4222 123.482 28.538 123.482 27.4687C123.482 25.659 123.628 24.1784 123.92 23.0269C124.253 21.8753 124.942 20.7443 125.984 19.6338C126.193 19.4282 126.443 19.202 126.735 18.9552C127.027 18.7085 127.298 18.5851 127.548 18.5851C127.882 18.5851 128.111 18.6468 128.236 18.7701C128.403 18.8935 128.591 19.0992 128.799 19.3871C129.008 19.6338 129.216 19.8189 129.425 19.9423C129.55 19.5721 129.613 18.9964 129.613 18.2149V16.5493C129.154 16.5493 128.507 16.5904 127.673 16.6726C126.839 16.7549 126.193 16.796 125.734 16.796C124.9 16.796 124.483 16.3436 124.483 15.4388ZM102.65 34.6249C102.65 33.7612 102.755 32.6507 102.963 31.2935C103.213 29.9363 103.61 28.7231 104.152 27.6537C104.694 26.5433 105.382 25.9881 106.216 25.9881C106.383 25.9881 106.612 26.0292 106.904 26.1114C107.238 26.1937 107.488 26.2348 107.655 26.2348C107.905 26.2348 108.176 26.1114 108.468 25.8647C108.76 25.5768 108.969 25.3917 109.094 25.3095C109.052 25.0627 109.01 24.4869 108.969 23.5821C108.927 22.6773 108.823 21.8753 108.656 21.1761C108.489 20.4769 108.239 20.1274 107.905 20.1274C107.196 20.1274 106.362 20.4769 105.403 21.1761C104.736 21.5874 104.319 21.793 104.152 21.793C103.693 21.793 103.359 21.5257 103.151 20.991C102.942 20.4153 102.838 19.86 102.838 19.3254C102.838 18.3794 103.005 17.7625 103.339 17.4746C103.672 17.1456 104.235 16.8371 105.028 16.5493C105.528 16.4259 106.008 16.2408 106.466 15.994C107.009 15.7061 107.384 15.3154 107.592 14.8219C107.843 14.3284 108.051 13.6909 108.218 12.9095C108.385 12.1692 108.552 11.6345 108.718 11.3055C108.927 10.9765 109.302 10.8119 109.845 10.8119C110.345 10.8119 110.845 10.9559 111.346 11.2438C111.888 11.5317 112.159 11.9224 112.159 12.4159C112.159 12.7861 112.013 13.1768 111.721 13.5881C111.429 13.9993 111.262 14.2461 111.221 14.3284C111.221 14.6985 111.408 14.9247 111.784 15.007C112.201 15.0892 112.868 15.1509 113.786 15.192C114.912 15.2332 115.746 15.336 116.288 15.5005C116.872 15.665 117.164 16.0557 117.164 16.6726C117.164 17.2896 116.872 17.7625 116.288 18.0915C115.746 18.4206 114.995 18.729 114.036 19.0169C113.243 19.2637 112.68 19.4899 112.347 19.6955C112.013 19.86 111.846 20.0862 111.846 20.3741C111.846 20.4975 111.867 20.6003 111.909 20.6826C111.951 20.7648 111.992 20.8471 112.034 20.9294C112.076 21.0527 112.117 21.2584 112.159 21.5463C112.201 21.8342 112.222 22.0604 112.222 22.2249C112.222 23.4587 112.451 24.199 112.91 24.4458C113.118 24.5692 113.452 24.6308 113.911 24.6308C114.953 24.6308 115.85 25.0627 116.601 25.9264C117.351 26.7489 117.894 27.7565 118.227 28.9493C118.602 30.142 118.79 31.2524 118.79 32.2806C118.79 34.0902 118.477 35.3652 117.852 36.1055C117.268 36.8458 116.434 37.4832 115.35 38.0179C115.266 38.059 114.995 38.203 114.536 38.4497C114.119 38.6554 113.827 38.9227 113.66 39.2517C113.494 39.5396 113.41 39.9098 113.41 40.3622C113.41 40.7735 113.41 41.0202 113.41 41.1025V41.7811C113.41 42.5625 113.473 43.0149 113.598 43.1383L113.848 43.2C114.349 43.2 114.807 43.1177 115.224 42.9532C115.641 42.7887 116.204 42.542 116.913 42.2129C116.997 42.1718 117.351 42.0073 117.977 41.7194C118.602 41.4315 119.228 41.2876 119.854 41.2876C120.312 41.2876 120.709 41.4726 121.042 41.8428C121.376 42.2129 121.543 42.6448 121.543 43.1383C121.543 43.7552 121.063 44.331 120.104 44.8657C119.145 45.4003 117.873 45.9556 116.288 46.5313C115.621 46.7781 115.016 47.0249 114.474 47.2716C113.973 47.5184 113.66 47.724 113.535 47.8886C113.285 48.2176 113.16 49.7393 113.16 52.4537C113.118 54.8803 113.014 56.731 112.847 58.006C112.722 59.3221 112.388 59.9801 111.846 59.9801C111.054 59.9801 110.533 59.1987 110.282 57.6358C110.032 56.073 109.865 53.9343 109.782 51.2199C109.782 50.1506 109.74 49.328 109.657 48.7522C109.323 48.7522 108.635 48.8756 107.592 49.1224C106.592 49.3692 106.029 49.5542 105.903 49.6776C105.778 49.801 105.695 50.0889 105.653 50.5413C105.611 50.9526 105.549 51.261 105.466 51.4667C105.382 51.6723 105.174 51.7751 104.84 51.7751C104.381 51.7751 103.964 51.4667 103.589 50.8498C103.213 50.1917 103.026 49.6159 103.026 49.1224C103.026 48.4643 103.631 47.8269 104.84 47.2099C106.049 46.5519 107.53 45.8527 109.282 45.1124C109.49 44.2899 109.594 43.3028 109.594 42.1512C109.594 41.2876 109.469 40.8557 109.219 40.8557C109.094 40.8557 108.864 40.938 108.531 41.1025C108.197 41.2259 107.905 41.2876 107.655 41.2876C106.904 41.2876 106.529 40.9585 106.529 40.3005C106.529 39.8892 106.612 39.5396 106.779 39.2517C106.904 39.1695 107.363 38.9227 108.155 38.5114C108.99 38.1002 109.448 37.73 109.532 37.401L109.407 37.1542L109.156 37.0925C108.739 37.0925 108.343 37.1954 107.968 37.401C107.634 37.5655 107.196 37.8123 106.654 38.1413C105.82 38.7171 105.215 39.005 104.84 39.005C104.089 39.005 103.526 38.5114 103.151 37.5244C102.817 36.5373 102.65 35.5708 102.65 34.6249ZM107.155 31.5403C107.155 32.1572 107.321 32.6919 107.655 33.1443L108.03 33.3294C108.239 33.3294 108.489 33.2677 108.781 33.1443C109.073 32.9798 109.323 32.8564 109.532 32.7741C109.532 32.6507 109.49 32.0544 109.407 30.9851C109.323 29.9158 109.156 29.3811 108.906 29.3811C108.447 29.3811 108.03 29.6279 107.655 30.1214C107.321 30.6149 107.155 31.0879 107.155 31.5403ZM112.785 29.3194C112.785 29.8129 112.91 30.2859 113.16 30.7383C113.452 31.1496 113.827 31.3552 114.286 31.3552C114.62 31.3552 114.787 31.0673 114.787 30.4915C114.787 30.1214 114.641 29.7512 114.349 29.3811C114.057 29.0109 113.723 28.8259 113.348 28.8259L112.91 28.9493L112.785 29.3194ZM113.348 34.5015C113.348 34.9128 113.431 35.2212 113.598 35.4269C113.765 35.5914 114.057 35.6736 114.474 35.6736C114.641 35.6736 114.745 35.6531 114.787 35.6119C114.87 35.5297 114.912 35.3857 114.912 35.1801C114.912 34.9745 114.766 34.8099 114.474 34.6866C114.224 34.5221 113.994 34.4398 113.786 34.4398L113.348 34.5015ZM127.423 30.1831C127.423 30.3887 127.486 30.5532 127.611 30.6766L127.923 30.8C128.424 30.8 128.883 30.5532 129.3 30.0597C129.717 29.525 129.925 29.0109 129.925 28.5174L129.675 28.2706C129.258 28.2706 128.778 28.4968 128.236 28.9493C127.694 29.3605 127.423 29.7718 127.423 30.1831ZM127.611 25.1244C127.611 25.3711 127.715 25.4945 127.923 25.4945C128.299 25.4945 128.695 25.3506 129.112 25.0627C129.529 24.7337 129.738 24.3841 129.738 24.0139C129.738 23.8905 129.696 23.7466 129.613 23.5821C129.529 23.4176 129.425 23.3353 129.3 23.3353C129.091 23.3353 128.758 23.5821 128.299 24.0756C127.84 24.5692 127.611 24.9187 127.611 25.1244ZM130.363 48.8756C130.613 49.1635 131.552 49.5337 133.178 49.9861C134.805 50.3973 135.993 50.6441 136.744 50.7264C136.827 49.328 136.869 48.2793 136.869 47.5801C136.869 47.2099 136.827 46.9221 136.744 46.7164C136.661 46.5108 136.473 46.408 136.181 46.408C135.931 46.408 134.951 46.7781 133.241 47.5184C131.573 48.2176 130.613 48.67 130.363 48.8756ZM132.803 23.5204C132.803 23.726 132.886 23.9522 133.053 24.199C133.262 24.4046 133.47 24.5075 133.679 24.5075C134.137 24.5075 134.45 24.2813 134.617 23.8289C134.784 23.3353 134.867 22.8212 134.867 22.2866C134.867 21.9164 134.7 21.7313 134.367 21.7313C133.324 21.7313 132.803 22.3277 132.803 23.5204ZM133.178 26.9751C133.22 27.1396 133.324 27.2836 133.491 27.407C133.658 27.4892 133.846 27.5303 134.054 27.5303C134.221 27.5303 134.429 27.4687 134.68 27.3453C134.93 27.2219 135.055 27.0985 135.055 26.9751C135.055 26.8106 134.992 26.6872 134.867 26.605C134.742 26.4816 134.596 26.4199 134.429 26.4199C133.971 26.4199 133.554 26.605 133.178 26.9751ZM137.933 36.4139C137.933 36.5373 138.12 36.6813 138.496 36.8458C138.871 36.9692 139.059 37.1748 139.059 37.4627C139.059 37.7095 138.954 38.1002 138.746 38.6348C138.579 39.1284 138.496 39.5191 138.496 39.807C138.496 40.5884 138.767 41.1642 139.309 41.5343C139.601 41.4109 140.018 41.2464 140.56 41.0408C141.144 40.8352 141.623 40.609 141.999 40.3622C142.374 40.0743 142.562 39.7453 142.562 39.3751C142.562 39.005 142.332 38.2441 141.874 37.0925C141.457 35.8998 141.144 35.139 140.935 34.8099C140.852 34.8511 140.331 35.0978 139.371 35.5502C138.412 36.0027 137.933 36.2905 137.933 36.4139Z"/>
<path d="M174.841 26.79C174.841 26.6667 174.862 26.5638 174.904 26.4816C174.945 26.3582 174.966 26.2554 174.966 26.1731C174.966 25.4328 174.841 24.4046 174.591 23.0886C174.341 21.6902 174.216 20.662 174.216 20.004C174.216 15.9735 175.008 13.9582 176.593 13.9582C178.261 13.9582 179.095 16.1791 179.095 20.6209V21.1144C179.095 22.0604 179.178 22.5333 179.345 22.5333C179.47 22.5333 179.7 22.3071 180.033 21.8547C180.409 21.4023 180.805 20.8882 181.222 20.3124C182.348 18.7496 183.266 17.5774 183.974 16.796C184.683 16.0146 185.309 15.6239 185.851 15.6239C185.935 15.6239 186.164 15.6856 186.539 15.809L186.664 16.1174C186.664 16.5698 186.518 17.0633 186.227 17.598C185.935 18.1327 185.518 18.7701 184.975 19.5104C184.058 20.8265 183.537 21.7725 183.411 22.3483C183.578 22.4305 183.87 22.4716 184.287 22.4716C184.579 22.4716 185.017 22.4511 185.601 22.41C186.185 22.3277 186.685 22.2866 187.102 22.2866C188.687 22.2866 189.479 22.6567 189.479 23.397C189.479 23.8905 189.334 24.2401 189.042 24.4458C188.75 24.6514 188.27 24.857 187.603 25.0627C186.685 25.3917 185.997 25.7619 185.538 26.1731C185.08 26.5433 184.85 27.263 184.85 28.3323C184.85 28.7025 184.955 28.8876 185.163 28.8876C185.413 28.8876 185.768 28.7847 186.227 28.5791C186.685 28.3323 187.04 28.209 187.29 28.209C187.832 28.209 188.333 28.394 188.791 28.7642C189.25 29.1343 189.479 29.5867 189.479 30.1214C189.479 30.6561 189.292 31.0879 188.916 31.4169C188.583 31.7459 187.999 32.1778 187.165 32.7124C185.914 33.4527 184.829 34.2753 183.912 35.1801C182.994 36.0849 182.223 37.3804 181.597 39.0667C181.472 39.3546 181.41 39.6836 181.41 40.0537L181.472 40.3622C181.848 40.609 182.369 40.8352 183.036 41.0408C183.703 41.2876 184.892 41.9045 186.602 42.8915C188.353 43.8786 189.917 44.9068 191.294 45.9761C192.67 47.0043 193.358 47.7857 193.358 48.3204L193.295 49.1841C193.546 49.3486 193.963 49.5131 194.547 49.6776H194.421C194.797 49.7187 195.256 49.801 195.798 49.9244C196.34 50.0066 196.799 50.0683 197.174 50.1095C199.968 50.5207 202.846 50.7675 205.807 50.8498C207.225 50.8498 208.601 50.9937 209.936 51.2816C211.312 51.5695 212 52.1658 212 53.0706C212 53.3997 211.896 53.6876 211.687 53.9343C211.52 54.1811 211.333 54.4073 211.124 54.6129C210.916 54.8186 210.77 54.9625 210.686 55.0448L208.434 54.9214C203.43 54.6746 199.676 54.4073 197.174 54.1194C193.629 53.7081 190.46 53.5025 187.665 53.5025L176.843 53.4408C174.716 53.4408 171.526 53.6053 167.272 53.9343C163.435 54.3045 160.245 54.4896 157.701 54.4896C155.574 54.4896 154.51 54.2017 154.51 53.6259C154.51 53.4202 154.448 53.1735 154.322 52.8856C154.197 52.5565 154.135 52.3098 154.135 52.1453C154.135 51.3227 154.594 50.7881 155.511 50.5413C156.429 50.2534 157.805 50.0478 159.64 49.9244C161.558 49.8421 162.622 49.6159 162.83 49.2458C162.914 49.0813 162.955 48.8551 162.955 48.5672L162.893 45.606C162.893 43.8786 163.039 42.3774 163.331 41.1025C163.664 39.8275 164.29 38.9022 165.207 38.3264C165.541 38.1207 165.791 38.0179 165.958 38.0179C166.208 38.0179 166.459 38.1413 166.709 38.3881C167.001 38.5937 167.147 38.8199 167.147 39.0667C167.147 39.19 166.959 39.6836 166.584 40.5473C166.25 41.4109 166.083 42.1307 166.083 42.7065C166.083 43.2823 166.187 44.4133 166.396 46.0995C166.605 47.7446 166.792 48.67 166.959 48.8756L167.522 48.999C168.273 48.999 168.982 48.9373 169.649 48.8139C170.566 48.7317 171.275 48.6905 171.776 48.6905C172.944 48.6905 173.673 48.526 173.965 48.197C174.257 47.868 174.424 47.3745 174.466 46.7164C174.549 46.0584 174.612 45.5443 174.654 45.1741C174.737 44.475 174.987 43.5701 175.404 42.4597C175.988 40.8968 176.28 39.6836 176.28 38.8199C176.28 38.532 176.176 38.3469 175.967 38.2647C175.759 38.1824 175.446 38.1413 175.029 38.1413C174.362 38.1413 173.84 38.0385 173.465 37.8328C173.09 37.6272 172.902 37.1337 172.902 36.3522C172.902 35.324 173.319 34.5632 174.153 34.0697C175.029 33.535 175.946 33.1237 176.906 32.8358C177.573 32.6713 178.094 32.404 178.469 32.0338C178.845 31.6226 179.387 30.6972 180.096 29.2577C180.638 28.1884 180.93 27.4275 180.972 26.9751L180.659 26.8517C180.284 26.8517 179.867 26.8929 179.408 26.9751C178.949 27.0574 178.615 27.1191 178.407 27.1602C177.406 27.407 176.655 27.5303 176.155 27.5303C175.279 27.5303 174.841 27.2836 174.841 26.79ZM163.894 24.6308C163.894 23.9317 164.081 23.2325 164.457 22.5333C164.832 21.8342 165.333 21.4846 165.958 21.4846C166.584 21.4846 167.188 21.6902 167.772 22.1015C168.356 22.5128 168.648 23.0269 168.648 23.6438C168.648 23.8905 168.544 24.1579 168.335 24.4458C168.168 24.6925 168.064 24.8776 168.022 25.001C168.69 26.1526 169.315 27.6537 169.899 29.5045C170.525 31.3141 170.838 32.7741 170.838 33.8846C170.838 34.5837 170.733 35.1595 170.525 35.6119C170.358 36.0232 169.962 36.2289 169.336 36.2289C169.044 36.2289 168.731 36.126 168.398 35.9204C168.022 35.6736 167.71 35.2624 167.459 34.6866C167.209 34.1108 166.938 33.3294 166.646 32.3423C166.521 31.931 166.146 31.0673 165.52 29.7512C165.02 28.6819 164.624 27.7565 164.332 26.9751C164.04 26.1526 163.894 25.3711 163.894 24.6308ZM177.906 48.3204C178.282 48.3615 178.887 48.3821 179.721 48.3821C180.722 48.3821 181.597 48.4027 182.348 48.4438C183.099 48.4849 183.724 48.526 184.225 48.5672C186.143 48.7317 187.624 48.8139 188.666 48.8139C189.042 48.8139 189.271 48.7317 189.354 48.5672C188.353 47.6212 186.852 46.4285 184.85 44.9891C182.848 43.5085 181.514 42.7682 180.847 42.7682C180.471 42.7682 180.2 42.9944 180.033 43.4468C179.908 43.8992 179.825 44.1665 179.783 44.2488L178.907 46.0378C178.24 47.2716 177.906 47.9914 177.906 48.197V48.3204Z"/>
</mask>
<path d="M49.5396 68C46.4118 68 43.8052 67.7121 41.72 67.1363C39.6348 66.6017 37.8206 65.8408 36.2776 64.8537C34.7345 63.8667 32.6284 62.3244 29.9593 60.2269L27.7073 58.4378C27.457 58.2733 27.1234 58.0265 26.7063 57.6975C26.2893 57.3685 25.9348 57.06 25.6429 56.7721C25.0173 56.8133 23.4534 57.8003 20.9511 59.7333C19.1995 61.0494 17.7816 62.0365 16.6972 62.6945C15.6129 63.3937 14.758 63.7433 14.1324 63.7433C13.7988 63.7433 13.486 63.6405 13.194 63.4348C12.9438 63.2703 12.8187 63.0235 12.8187 62.6945C12.8187 61.872 15.175 59.7333 19.8876 56.2786C20.4298 55.9085 21.0137 55.4766 21.6392 54.9831C21.6392 54.9831 22.1814 54.4484 23.2657 53.3791C23.1406 53.2146 22.8278 52.7211 22.3274 51.8985C21.8269 51.076 21.4307 50.6647 21.1388 50.6647C21.0554 50.6647 20.7843 50.932 20.3255 51.4667C19.8668 52.0013 19.5749 52.3509 19.4497 52.5154C18.0318 54.1605 16.8849 55.4149 16.0091 56.2786C15.1333 57.1834 14.4035 57.6358 13.8196 57.6358C13.4026 57.6358 13.0272 57.533 12.6936 57.3274C12.36 57.1629 12.1931 56.8955 12.1931 56.5254C12.1931 55.7851 12.7979 54.6335 14.0073 53.0706C15.2584 51.5078 17.0309 49.4308 19.3246 46.8398C19.6166 46.5108 20.3255 45.7088 21.4516 44.4338C22.5776 43.1589 23.2032 42.3158 23.3283 41.9045C22.1188 41.4932 21.2013 40.7735 20.5758 39.7453C19.9502 38.7171 19.6374 37.5244 19.6374 36.1672C19.6374 35.6736 19.7417 35.0773 19.9502 34.3781C20.117 33.6378 20.2004 33.062 20.2004 32.6507L20.0753 32.5891C19.7 32.6302 19.3246 33.0003 18.9493 33.6995C18.5739 34.3575 18.0526 35.468 17.3854 37.0308C16.593 38.9638 15.8631 40.5061 15.1959 41.6577C14.5286 42.7682 13.8405 43.3234 13.1315 43.3234C11.7969 43.3234 11.1297 42.5214 11.1297 40.9174C11.1297 39.9303 11.5884 38.6554 12.5059 37.0925C13.4651 35.4886 14.5912 34.1108 15.884 32.9592C17.1768 31.7665 18.3446 31.1701 19.3872 31.1701C19.5957 31.1701 19.8042 31.2935 20.0128 31.5403C20.263 31.7459 20.4298 31.8899 20.5132 31.9721C20.7217 31.931 20.9303 31.6842 21.1388 31.2318C21.3473 30.7383 21.5558 30.3476 21.7643 30.0597C21.9729 29.7718 22.2857 29.6279 22.7027 29.6279C23.2032 29.6279 23.5159 29.8746 23.6411 30.3682C23.8079 30.8617 23.8913 31.458 23.8913 32.1572C23.8913 32.3217 23.8704 32.8358 23.8287 33.6995C23.787 34.5632 23.8704 35.3446 24.079 36.0438C24.3292 36.7018 24.7045 37.0308 25.205 37.0308C25.622 37.0308 26.2267 36.8252 27.0191 36.4139C27.8115 36.0027 28.2286 35.6119 28.2703 35.2418C28.312 35.2829 27.9783 34.8922 27.2694 34.0697C26.6021 33.3705 26.1016 32.7741 25.768 32.2806C25.4761 31.7459 25.3301 31.1085 25.3301 30.3682C25.3301 29.8746 25.4761 29.3605 25.768 28.8259C26.1016 28.2912 26.5187 28.0239 27.0191 28.0239C27.3945 28.0239 27.7698 28.209 28.1452 28.5791C28.5205 28.9493 28.7707 29.1755 28.8958 29.2577C29.2712 29.6279 30.2304 30.4298 31.7735 31.6637C32.6493 32.3217 33.3374 32.8564 33.8378 33.2677C33.8378 34.1313 33.7544 34.7483 33.5876 35.1184C33.4208 35.4886 32.962 35.8381 32.2114 36.1672C31.836 36.3317 31.5024 36.5784 31.2104 36.9075C30.9185 37.1954 30.6474 37.5244 30.3972 37.8945C30.147 38.2235 29.9802 38.4292 29.8967 38.5114C29.3963 39.2929 28.8958 39.9509 28.3954 40.4856C27.8949 40.9791 27.3111 41.3287 26.6438 41.5343C26.3102 41.6166 26.0808 41.74 25.9557 41.9045L25.8931 42.2129C25.8931 42.5831 25.9557 42.9532 26.0808 43.3234C26.2476 43.6524 26.4978 43.8169 26.8315 43.8169C27.04 43.8169 27.3319 43.7552 27.7073 43.6318C28.1243 43.5085 28.4371 43.4468 28.6456 43.4468C29.6465 43.4468 30.5223 43.7141 31.273 44.2488C32.0237 44.7834 32.399 45.5237 32.399 46.4697C32.399 47.4156 31.7318 48.8756 30.3972 50.8498C29.8133 51.7957 29.3963 52.536 29.1461 53.0706C29.1461 53.0706 29.7299 53.6464 30.8977 54.798C32.4407 56.3197 33.3791 57.2245 33.7127 57.5124C36.1733 59.5688 38.9467 61.1934 42.0328 62.3861C45.1189 63.6199 48.3093 64.3396 51.604 64.5453C52.1879 65.2856 52.4798 65.9436 52.4798 66.5194C52.4798 67.1363 52.1879 67.527 51.604 67.6915C51.0201 67.8972 50.332 68 49.5396 68ZM6 34.7483C6 34.4604 6.27108 33.8846 6.81324 33.0209C7.3554 32.1161 7.68904 31.5609 7.81415 31.3552C9.39893 28.8464 10.2747 27.1808 10.4415 26.3582C11.359 24.8776 12.2348 24.1373 13.0689 24.1373C13.3192 24.1373 13.5068 24.3224 13.6319 24.6925C13.7571 25.0216 13.903 25.1861 14.0698 25.1861C14.2784 25.1861 14.6329 25.0833 15.1333 24.8776C17.8441 23.7672 21.1596 22.6773 25.0799 21.608C29.0001 20.4975 31.982 19.9423 34.0255 19.9423C35.5686 19.9423 36.8823 20.3124 37.9666 21.0527C39.0509 21.7519 39.5931 22.8418 39.5931 24.3224C39.5931 26.0909 38.9675 26.9751 37.7164 26.9751C37.341 26.9751 37.0491 26.8929 36.8406 26.7284C36.6738 26.5638 36.4861 26.2965 36.2776 25.9264C36.0273 25.5151 35.7563 25.2066 35.4643 25.001C35.2141 24.7542 34.797 24.6308 34.2132 24.6308C32.7118 24.6308 30.3555 24.7954 27.1442 25.1244C23.9747 25.4534 20.9928 25.9058 18.1986 26.4816C15.4044 27.0163 13.6528 27.6332 12.9438 28.3323C12.6936 28.6202 12.4434 29.0932 12.1931 29.7512C11.9429 30.3682 11.6927 31.0262 11.4425 31.7254C10.942 33.3294 10.4415 34.5837 9.94109 35.4886C9.48234 36.3522 8.85677 36.7841 8.06438 36.7841C7.52222 36.7841 7.04262 36.5784 6.62557 36.1672C6.20852 35.7559 6 35.2829 6 34.7483ZM8.68995 13.8965C8.68995 12.8272 10.379 11.7167 13.7571 10.5652C14.1741 10.4007 15.4044 9.90713 17.4479 9.08458C20.0336 8.01526 21.9937 7.23383 23.3283 6.7403C24.7045 6.24677 25.7263 6 26.3936 6C27.1025 6 27.8115 6.18507 28.5205 6.55522C29.2295 6.92537 29.584 7.41891 29.584 8.03582C29.584 8.85837 29.3337 9.43416 28.8333 9.76318C28.3328 10.0511 27.5821 10.2978 26.5812 10.5035C25.8305 10.668 25.2675 10.8325 24.8922 10.997C24.5586 11.1204 24.3292 11.3672 24.2041 11.7373C24.2458 11.8607 24.4126 12.0252 24.7045 12.2308C25.3718 12.6833 25.8931 13.4647 26.2684 14.5751C26.6855 15.6856 26.894 16.7343 26.894 17.7214C26.894 18.3383 26.6646 18.7907 26.2059 19.0786C25.7471 19.3665 25.205 19.5104 24.5794 19.5104C23.9121 19.5104 23.2032 19.0992 22.4525 18.2766C21.7435 17.4129 21.389 16.6521 21.389 15.994C21.389 15.5828 21.4099 15.192 21.4516 14.8219C21.535 14.4106 21.5767 13.9993 21.5767 13.5881V13.1562C21.2013 13.1973 20.4507 13.403 19.3246 13.7731C18.2403 14.1433 17.6981 14.4312 17.6981 14.6368C17.6981 14.6779 17.9692 15.1098 18.5114 15.9323C20.263 18.2766 21.1388 19.8806 21.1388 20.7443C21.1388 21.1144 20.9303 21.5257 20.5132 21.9781C20.1379 22.4305 19.7625 22.6567 19.3872 22.6567C18.0943 22.6567 17.0517 22.1837 16.2593 21.2378C15.5087 20.2507 14.758 18.9141 14.0073 17.2279C13.9656 17.1045 13.8196 16.7755 13.5694 16.2408C13.3192 15.665 13.0898 15.3154 12.8813 15.192C12.5476 15.2743 12.1514 15.3154 11.6927 15.3154C10.9003 15.3154 10.1913 15.2126 9.56575 15.007C8.98188 14.7602 8.68995 14.39 8.68995 13.8965ZM24.9548 49.3075C24.9548 49.5131 25.0799 49.6982 25.3301 49.8627C25.5803 50.0272 25.8097 50.1095 26.0182 50.1095C26.4353 49.6982 26.7898 49.1635 27.0817 48.5055L26.8315 48.3821C26.4978 48.3821 26.1016 48.4643 25.6429 48.6289C25.1841 48.7934 24.9548 49.0196 24.9548 49.3075ZM29.5214 16.5493C29.5214 16.138 29.6882 15.4799 30.0219 14.5751C30.3972 13.6703 30.8143 12.8683 31.273 12.1692C31.7735 11.47 32.2322 11.1204 32.6493 11.1204C33.4416 11.1204 34.0255 11.3877 34.4009 11.9224C34.8179 12.4159 35.0264 13.074 35.0264 13.8965C35.0264 14.4312 34.8179 15.0892 34.4009 15.8706C34.0255 16.6521 33.5251 17.3307 32.8995 17.9065C32.3156 18.4411 31.7526 18.7085 31.2104 18.7085C30.8351 18.7085 30.4598 18.4617 30.0844 17.9682C29.7091 17.4335 29.5214 16.9605 29.5214 16.5493ZM35.2141 33.3294C35.2141 32.6302 35.7354 32.2806 36.778 32.2806C38.0292 32.2806 39.3846 32.5685 40.8442 33.1443C42.3456 33.6789 43.0963 34.4398 43.0963 35.4269C43.0963 35.8381 42.9294 36.2494 42.5958 36.6607C42.2622 37.0308 41.8868 37.2159 41.4698 37.2159C40.9693 37.2159 40.1978 37.0103 39.1552 36.599C38.1543 36.1466 37.2368 35.6119 36.4027 34.995C35.6103 34.3781 35.2141 33.8229 35.2141 33.3294Z" fill="#189EC7"/>
<path d="M80.9432 25.4945C81.1517 25.4945 81.3186 25.5768 81.4437 25.7413C81.5688 25.8647 81.6313 26.0292 81.6313 26.2348C81.6313 26.4405 81.4645 26.8723 81.1309 27.5303C80.7972 28.1473 80.6304 28.7642 80.6304 29.3811C80.6304 30.327 80.7347 31.3552 80.9432 32.4657C81.1934 33.535 81.5271 34.5015 81.9441 35.3652C81.9858 35.4474 82.1109 35.6942 82.3195 36.1055C82.528 36.4756 82.6322 36.8869 82.6322 37.3393C82.6322 37.7095 82.4654 37.9768 82.1318 38.1413C81.8399 38.3058 81.4854 38.3881 81.0683 38.3881C79.8172 38.3881 78.9831 37.5861 78.566 35.9821C78.149 34.337 77.9405 32.6096 77.9405 30.8C77.9405 29.6484 78.1907 28.4763 78.6912 27.2836C79.1916 26.0909 79.9423 25.4945 80.9432 25.4945ZM56.4209 42.9532C56.4209 41.596 56.7337 39.9098 57.3592 37.8945C57.9848 35.8793 58.7981 34.008 59.799 32.2806C60.8416 30.5532 61.9259 29.3811 63.0519 28.7642C63.3439 28.5997 63.6566 28.4968 63.9903 28.4557C64.3239 28.4146 64.6576 28.394 64.9912 28.394C65.1997 28.394 65.5542 28.4352 66.0547 28.5174L66.3049 28.8876C66.3049 29.1343 66.1172 29.2988 65.7419 29.3811C64.6993 29.7101 63.8026 30.7589 63.0519 32.5274C62.3012 34.2959 61.7174 36.2494 61.3003 38.3881C60.925 40.5267 60.7373 42.2335 60.7373 43.5085C60.7373 44.331 60.6539 44.9685 60.4871 45.4209C60.3203 45.8322 59.8824 46.0378 59.1734 46.0378C58.2976 46.0378 57.6095 45.7499 57.109 45.1741C56.6503 44.5572 56.4209 43.8169 56.4209 42.9532ZM68.4944 33.206C68.4944 32.3012 68.6195 31.4169 68.8697 30.5532C69.1617 29.6484 69.6621 29.196 70.3711 29.196C70.9967 29.196 71.3094 29.7718 71.3094 30.9234C71.3094 32.1983 71.6222 33.8023 72.2478 35.7353C72.9151 37.6683 73.7909 39.3546 74.8752 40.794C75.9595 42.2335 77.1689 42.9532 78.5035 42.9532C79.1291 42.9532 79.7755 42.7887 80.4428 42.4597C81.1517 42.0896 81.965 41.596 82.8825 40.9791C83.0076 40.8968 83.3412 40.6912 83.8834 40.3622C84.4673 39.992 84.9052 39.807 85.1971 39.807C85.5307 39.807 85.7809 39.9509 85.9478 40.2388C86.1146 40.5267 86.198 40.8352 86.198 41.1642C86.198 42.1101 85.7601 43.0561 84.8843 44.002C84.0085 44.9068 82.945 45.6677 81.6939 46.2846C80.4845 46.8604 79.421 47.1483 78.5035 47.1483C76.4183 47.1483 74.6041 46.408 73.061 44.9274C71.5597 43.4468 70.4128 41.6166 69.6204 39.4368C68.8697 37.257 68.4944 35.1801 68.4944 33.206ZM87.6368 28.0239C87.6368 26.5433 87.9079 25.803 88.45 25.803C88.7837 25.803 89.0756 25.8647 89.3258 25.9881C89.8263 26.276 90.2433 27.4892 90.577 29.6279C90.7438 30.4504 91.1608 31.7459 91.8281 33.5144C92.2869 34.7483 92.6205 35.797 92.829 36.6607C93.0793 37.4832 93.2044 38.3264 93.2044 39.19C93.2044 39.4779 92.9958 39.7453 92.5788 39.992C92.2035 40.1977 91.849 40.3005 91.5153 40.3005C88.9296 40.3005 87.6368 36.2083 87.6368 28.0239Z" fill="#189EC7"/>
<path d="M124.483 15.4388C124.483 15.0687 124.733 14.7396 125.234 14.4517C125.776 14.1638 126.547 13.8348 127.548 13.4647C128.466 13.1768 129.07 12.9095 129.362 12.6627C129.654 12.3748 129.904 11.9224 130.113 11.3055C130.321 10.7297 130.53 10.2978 130.739 10.01C130.989 9.68093 131.322 9.51642 131.739 9.51642C132.115 9.51642 132.365 9.59867 132.49 9.76318C132.657 9.92769 132.782 10.195 132.865 10.5652C132.949 10.8942 133.074 11.1204 133.241 11.2438C133.449 11.2849 133.825 11.326 134.367 11.3672C134.951 11.4083 135.43 11.5111 135.806 11.6756C136.181 11.8401 136.369 12.0869 136.369 12.4159C136.369 12.9506 136.181 13.3413 135.806 13.5881C135.472 13.8348 134.93 14.1022 134.179 14.39C134.096 14.4312 133.908 14.5134 133.616 14.6368C133.324 14.7191 133.137 14.8219 133.053 14.9453C132.928 15.1509 132.865 15.7267 132.865 16.6726C132.865 17.5363 132.949 18.1121 133.116 18.4L133.428 18.4617C133.679 18.4617 134.033 18.4206 134.492 18.3383C134.951 18.2149 135.284 18.1532 135.493 18.1532C136.535 18.1532 137.39 18.5851 138.058 19.4488C138.725 20.3124 139.059 21.2789 139.059 22.3483C139.059 22.7595 139.017 23.0886 138.933 23.3353C138.433 25.2272 137.912 26.6872 137.37 27.7154C136.827 28.7436 135.889 29.7512 134.555 30.7383C134.388 30.8617 134.033 31.0468 133.491 31.2935C132.991 31.5403 132.594 31.8076 132.302 32.0955C132.052 32.3423 131.927 32.6713 131.927 33.0826V33.206H132.24C134.45 32.3012 136.39 31.5609 138.058 30.9851C139.768 30.4093 141.165 30.1214 142.249 30.1214C143.292 30.1214 143.813 30.6766 143.813 31.7871C143.813 32.3629 143.917 32.9592 144.126 33.5761C144.334 34.1519 144.459 34.5015 144.501 34.6249C144.918 35.6942 145.147 36.5167 145.189 37.0925C145.189 37.2982 145.21 37.6066 145.252 38.0179C145.293 38.3881 145.335 38.7171 145.377 39.005C145.544 39.1695 145.731 39.334 145.94 39.4985C146.19 39.6219 146.357 39.7658 146.44 39.9303C146.565 40.0537 146.628 40.2594 146.628 40.5473C146.628 40.9997 146.273 41.4315 145.565 41.8428C144.856 42.2541 143.813 42.7887 142.437 43.4468C141.311 43.9403 140.477 44.331 139.934 44.6189C139.434 44.9068 139.184 45.1947 139.184 45.4826L139.246 45.7294C140.247 50.459 140.748 54.7158 140.748 58.4995C140.748 60.2269 140.497 61.6663 139.997 62.8179C139.497 64.0106 138.496 64.607 136.994 64.607C136.327 64.607 135.639 64.1751 134.93 63.3114C134.221 62.4889 133.866 61.7486 133.866 61.0905C133.866 60.6381 133.929 60.3297 134.054 60.1652C134.221 60.0418 134.471 59.939 134.805 59.8567C135.18 59.7745 135.472 59.6716 135.681 59.5483C135.847 59.3015 136.014 58.7874 136.181 58.006C136.348 57.2657 136.431 56.7104 136.431 56.3403C136.431 55.8056 135.993 55.2915 135.118 54.798C134.283 54.3456 133.157 53.8521 131.739 53.3174C130.989 53.0706 130.405 52.8444 129.988 52.6388C129.571 52.4332 129.091 52.1453 128.549 51.7751C128.049 51.405 127.798 51.0965 127.798 50.8498C127.798 50.274 127.652 49.9861 127.36 49.9861C127.069 49.9861 126.714 50.1506 126.297 50.4796C125.88 50.7675 125.63 50.932 125.546 50.9731C124.962 51.3844 124.483 51.7134 124.107 51.9602C123.732 52.1658 123.357 52.2687 122.981 52.2687C122.564 52.2687 122.189 52.1041 121.855 51.7751C121.522 51.405 121.355 50.9937 121.355 50.5413C121.355 49.3486 122.418 48.2381 124.545 47.2099C126.339 46.3463 129.07 45.1741 132.74 43.6935C134.075 43.2 135.222 42.7476 136.181 42.3363C136.306 42.1307 136.369 41.7811 136.369 41.2876L136.306 39.6219C136.306 39.334 136.369 38.9227 136.494 38.3881C136.661 37.8534 136.744 37.4627 136.744 37.2159L136.556 37.0925C136.306 37.1337 136.077 37.2159 135.868 37.3393C134.534 37.9562 132.782 38.5526 130.613 39.1284C128.486 39.7041 126.777 39.992 125.484 39.992C125.275 39.992 125.046 39.807 124.796 39.4368C124.587 39.0255 124.483 38.7171 124.483 38.5114C124.483 38.059 124.671 37.6683 125.046 37.3393C125.463 36.9692 126.109 36.5167 126.985 35.9821C127.694 35.5708 128.215 35.2418 128.549 34.995C128.924 34.7071 129.112 34.3987 129.112 34.0697L128.924 33.6995C128.716 33.7406 128.361 33.864 127.861 34.0697C127.36 34.2342 126.881 34.3164 126.422 34.3164C125.922 34.3164 125.567 34.2342 125.359 34.0697C125.192 33.9051 125.046 33.6172 124.921 33.206C124.837 32.7947 124.712 32.4657 124.545 32.2189C124.087 31.5197 123.795 30.8206 123.67 30.1214C123.544 29.4222 123.482 28.538 123.482 27.4687C123.482 25.659 123.628 24.1784 123.92 23.0269C124.253 21.8753 124.942 20.7443 125.984 19.6338C126.193 19.4282 126.443 19.202 126.735 18.9552C127.027 18.7085 127.298 18.5851 127.548 18.5851C127.882 18.5851 128.111 18.6468 128.236 18.7701C128.403 18.8935 128.591 19.0992 128.799 19.3871C129.008 19.6338 129.216 19.8189 129.425 19.9423C129.55 19.5721 129.613 18.9964 129.613 18.2149V16.5493C129.154 16.5493 128.507 16.5904 127.673 16.6726C126.839 16.7549 126.193 16.796 125.734 16.796C124.9 16.796 124.483 16.3436 124.483 15.4388ZM102.65 34.6249C102.65 33.7612 102.755 32.6507 102.963 31.2935C103.213 29.9363 103.61 28.7231 104.152 27.6537C104.694 26.5433 105.382 25.9881 106.216 25.9881C106.383 25.9881 106.612 26.0292 106.904 26.1114C107.238 26.1937 107.488 26.2348 107.655 26.2348C107.905 26.2348 108.176 26.1114 108.468 25.8647C108.76 25.5768 108.969 25.3917 109.094 25.3095C109.052 25.0627 109.01 24.4869 108.969 23.5821C108.927 22.6773 108.823 21.8753 108.656 21.1761C108.489 20.4769 108.239 20.1274 107.905 20.1274C107.196 20.1274 106.362 20.4769 105.403 21.1761C104.736 21.5874 104.319 21.793 104.152 21.793C103.693 21.793 103.359 21.5257 103.151 20.991C102.942 20.4153 102.838 19.86 102.838 19.3254C102.838 18.3794 103.005 17.7625 103.339 17.4746C103.672 17.1456 104.235 16.8371 105.028 16.5493C105.528 16.4259 106.008 16.2408 106.466 15.994C107.009 15.7061 107.384 15.3154 107.592 14.8219C107.843 14.3284 108.051 13.6909 108.218 12.9095C108.385 12.1692 108.552 11.6345 108.718 11.3055C108.927 10.9765 109.302 10.8119 109.845 10.8119C110.345 10.8119 110.845 10.9559 111.346 11.2438C111.888 11.5317 112.159 11.9224 112.159 12.4159C112.159 12.7861 112.013 13.1768 111.721 13.5881C111.429 13.9993 111.262 14.2461 111.221 14.3284C111.221 14.6985 111.408 14.9247 111.784 15.007C112.201 15.0892 112.868 15.1509 113.786 15.192C114.912 15.2332 115.746 15.336 116.288 15.5005C116.872 15.665 117.164 16.0557 117.164 16.6726C117.164 17.2896 116.872 17.7625 116.288 18.0915C115.746 18.4206 114.995 18.729 114.036 19.0169C113.243 19.2637 112.68 19.4899 112.347 19.6955C112.013 19.86 111.846 20.0862 111.846 20.3741C111.846 20.4975 111.867 20.6003 111.909 20.6826C111.951 20.7648 111.992 20.8471 112.034 20.9294C112.076 21.0527 112.117 21.2584 112.159 21.5463C112.201 21.8342 112.222 22.0604 112.222 22.2249C112.222 23.4587 112.451 24.199 112.91 24.4458C113.118 24.5692 113.452 24.6308 113.911 24.6308C114.953 24.6308 115.85 25.0627 116.601 25.9264C117.351 26.7489 117.894 27.7565 118.227 28.9493C118.602 30.142 118.79 31.2524 118.79 32.2806C118.79 34.0902 118.477 35.3652 117.852 36.1055C117.268 36.8458 116.434 37.4832 115.35 38.0179C115.266 38.059 114.995 38.203 114.536 38.4497C114.119 38.6554 113.827 38.9227 113.66 39.2517C113.494 39.5396 113.41 39.9098 113.41 40.3622C113.41 40.7735 113.41 41.0202 113.41 41.1025V41.7811C113.41 42.5625 113.473 43.0149 113.598 43.1383L113.848 43.2C114.349 43.2 114.807 43.1177 115.224 42.9532C115.641 42.7887 116.204 42.542 116.913 42.2129C116.997 42.1718 117.351 42.0073 117.977 41.7194C118.602 41.4315 119.228 41.2876 119.854 41.2876C120.312 41.2876 120.709 41.4726 121.042 41.8428C121.376 42.2129 121.543 42.6448 121.543 43.1383C121.543 43.7552 121.063 44.331 120.104 44.8657C119.145 45.4003 117.873 45.9556 116.288 46.5313C115.621 46.7781 115.016 47.0249 114.474 47.2716C113.973 47.5184 113.66 47.724 113.535 47.8886C113.285 48.2176 113.16 49.7393 113.16 52.4537C113.118 54.8803 113.014 56.731 112.847 58.006C112.722 59.3221 112.388 59.9801 111.846 59.9801C111.054 59.9801 110.533 59.1987 110.282 57.6358C110.032 56.073 109.865 53.9343 109.782 51.2199C109.782 50.1506 109.74 49.328 109.657 48.7522C109.323 48.7522 108.635 48.8756 107.592 49.1224C106.592 49.3692 106.029 49.5542 105.903 49.6776C105.778 49.801 105.695 50.0889 105.653 50.5413C105.611 50.9526 105.549 51.261 105.466 51.4667C105.382 51.6723 105.174 51.7751 104.84 51.7751C104.381 51.7751 103.964 51.4667 103.589 50.8498C103.213 50.1917 103.026 49.6159 103.026 49.1224C103.026 48.4643 103.631 47.8269 104.84 47.2099C106.049 46.5519 107.53 45.8527 109.282 45.1124C109.49 44.2899 109.594 43.3028 109.594 42.1512C109.594 41.2876 109.469 40.8557 109.219 40.8557C109.094 40.8557 108.864 40.938 108.531 41.1025C108.197 41.2259 107.905 41.2876 107.655 41.2876C106.904 41.2876 106.529 40.9585 106.529 40.3005C106.529 39.8892 106.612 39.5396 106.779 39.2517C106.904 39.1695 107.363 38.9227 108.155 38.5114C108.99 38.1002 109.448 37.73 109.532 37.401L109.407 37.1542L109.156 37.0925C108.739 37.0925 108.343 37.1954 107.968 37.401C107.634 37.5655 107.196 37.8123 106.654 38.1413C105.82 38.7171 105.215 39.005 104.84 39.005C104.089 39.005 103.526 38.5114 103.151 37.5244C102.817 36.5373 102.65 35.5708 102.65 34.6249ZM107.155 31.5403C107.155 32.1572 107.321 32.6919 107.655 33.1443L108.03 33.3294C108.239 33.3294 108.489 33.2677 108.781 33.1443C109.073 32.9798 109.323 32.8564 109.532 32.7741C109.532 32.6507 109.49 32.0544 109.407 30.9851C109.323 29.9158 109.156 29.3811 108.906 29.3811C108.447 29.3811 108.03 29.6279 107.655 30.1214C107.321 30.6149 107.155 31.0879 107.155 31.5403ZM112.785 29.3194C112.785 29.8129 112.91 30.2859 113.16 30.7383C113.452 31.1496 113.827 31.3552 114.286 31.3552C114.62 31.3552 114.787 31.0673 114.787 30.4915C114.787 30.1214 114.641 29.7512 114.349 29.3811C114.057 29.0109 113.723 28.8259 113.348 28.8259L112.91 28.9493L112.785 29.3194ZM113.348 34.5015C113.348 34.9128 113.431 35.2212 113.598 35.4269C113.765 35.5914 114.057 35.6736 114.474 35.6736C114.641 35.6736 114.745 35.6531 114.787 35.6119C114.87 35.5297 114.912 35.3857 114.912 35.1801C114.912 34.9745 114.766 34.8099 114.474 34.6866C114.224 34.5221 113.994 34.4398 113.786 34.4398L113.348 34.5015ZM127.423 30.1831C127.423 30.3887 127.486 30.5532 127.611 30.6766L127.923 30.8C128.424 30.8 128.883 30.5532 129.3 30.0597C129.717 29.525 129.925 29.0109 129.925 28.5174L129.675 28.2706C129.258 28.2706 128.778 28.4968 128.236 28.9493C127.694 29.3605 127.423 29.7718 127.423 30.1831ZM127.611 25.1244C127.611 25.3711 127.715 25.4945 127.923 25.4945C128.299 25.4945 128.695 25.3506 129.112 25.0627C129.529 24.7337 129.738 24.3841 129.738 24.0139C129.738 23.8905 129.696 23.7466 129.613 23.5821C129.529 23.4176 129.425 23.3353 129.3 23.3353C129.091 23.3353 128.758 23.5821 128.299 24.0756C127.84 24.5692 127.611 24.9187 127.611 25.1244ZM130.363 48.8756C130.613 49.1635 131.552 49.5337 133.178 49.9861C134.805 50.3973 135.993 50.6441 136.744 50.7264C136.827 49.328 136.869 48.2793 136.869 47.5801C136.869 47.2099 136.827 46.9221 136.744 46.7164C136.661 46.5108 136.473 46.408 136.181 46.408C135.931 46.408 134.951 46.7781 133.241 47.5184C131.573 48.2176 130.613 48.67 130.363 48.8756ZM132.803 23.5204C132.803 23.726 132.886 23.9522 133.053 24.199C133.262 24.4046 133.47 24.5075 133.679 24.5075C134.137 24.5075 134.45 24.2813 134.617 23.8289C134.784 23.3353 134.867 22.8212 134.867 22.2866C134.867 21.9164 134.7 21.7313 134.367 21.7313C133.324 21.7313 132.803 22.3277 132.803 23.5204ZM133.178 26.9751C133.22 27.1396 133.324 27.2836 133.491 27.407C133.658 27.4892 133.846 27.5303 134.054 27.5303C134.221 27.5303 134.429 27.4687 134.68 27.3453C134.93 27.2219 135.055 27.0985 135.055 26.9751C135.055 26.8106 134.992 26.6872 134.867 26.605C134.742 26.4816 134.596 26.4199 134.429 26.4199C133.971 26.4199 133.554 26.605 133.178 26.9751ZM137.933 36.4139C137.933 36.5373 138.12 36.6813 138.496 36.8458C138.871 36.9692 139.059 37.1748 139.059 37.4627C139.059 37.7095 138.954 38.1002 138.746 38.6348C138.579 39.1284 138.496 39.5191 138.496 39.807C138.496 40.5884 138.767 41.1642 139.309 41.5343C139.601 41.4109 140.018 41.2464 140.56 41.0408C141.144 40.8352 141.623 40.609 141.999 40.3622C142.374 40.0743 142.562 39.7453 142.562 39.3751C142.562 39.005 142.332 38.2441 141.874 37.0925C141.457 35.8998 141.144 35.139 140.935 34.8099C140.852 34.8511 140.331 35.0978 139.371 35.5502C138.412 36.0027 137.933 36.2905 137.933 36.4139Z" fill="#189EC7"/>
<path d="M174.841 26.79C174.841 26.6667 174.862 26.5638 174.904 26.4816C174.945 26.3582 174.966 26.2554 174.966 26.1731C174.966 25.4328 174.841 24.4046 174.591 23.0886C174.341 21.6902 174.216 20.662 174.216 20.004C174.216 15.9735 175.008 13.9582 176.593 13.9582C178.261 13.9582 179.095 16.1791 179.095 20.6209V21.1144C179.095 22.0604 179.178 22.5333 179.345 22.5333C179.47 22.5333 179.7 22.3071 180.033 21.8547C180.409 21.4023 180.805 20.8882 181.222 20.3124C182.348 18.7496 183.266 17.5774 183.974 16.796C184.683 16.0146 185.309 15.6239 185.851 15.6239C185.935 15.6239 186.164 15.6856 186.539 15.809L186.664 16.1174C186.664 16.5698 186.518 17.0633 186.227 17.598C185.935 18.1327 185.518 18.7701 184.975 19.5104C184.058 20.8265 183.537 21.7725 183.411 22.3483C183.578 22.4305 183.87 22.4716 184.287 22.4716C184.579 22.4716 185.017 22.4511 185.601 22.41C186.185 22.3277 186.685 22.2866 187.102 22.2866C188.687 22.2866 189.479 22.6567 189.479 23.397C189.479 23.8905 189.334 24.2401 189.042 24.4458C188.75 24.6514 188.27 24.857 187.603 25.0627C186.685 25.3917 185.997 25.7619 185.538 26.1731C185.08 26.5433 184.85 27.263 184.85 28.3323C184.85 28.7025 184.955 28.8876 185.163 28.8876C185.413 28.8876 185.768 28.7847 186.227 28.5791C186.685 28.3323 187.04 28.209 187.29 28.209C187.832 28.209 188.333 28.394 188.791 28.7642C189.25 29.1343 189.479 29.5867 189.479 30.1214C189.479 30.6561 189.292 31.0879 188.916 31.4169C188.583 31.7459 187.999 32.1778 187.165 32.7124C185.914 33.4527 184.829 34.2753 183.912 35.1801C182.994 36.0849 182.223 37.3804 181.597 39.0667C181.472 39.3546 181.41 39.6836 181.41 40.0537L181.472 40.3622C181.848 40.609 182.369 40.8352 183.036 41.0408C183.703 41.2876 184.892 41.9045 186.602 42.8915C188.353 43.8786 189.917 44.9068 191.294 45.9761C192.67 47.0043 193.358 47.7857 193.358 48.3204L193.295 49.1841C193.546 49.3486 193.963 49.5131 194.547 49.6776H194.421C194.797 49.7187 195.256 49.801 195.798 49.9244C196.34 50.0066 196.799 50.0683 197.174 50.1095C199.968 50.5207 202.846 50.7675 205.807 50.8498C207.225 50.8498 208.601 50.9937 209.936 51.2816C211.312 51.5695 212 52.1658 212 53.0706C212 53.3997 211.896 53.6876 211.687 53.9343C211.52 54.1811 211.333 54.4073 211.124 54.6129C210.916 54.8186 210.77 54.9625 210.686 55.0448L208.434 54.9214C203.43 54.6746 199.676 54.4073 197.174 54.1194C193.629 53.7081 190.46 53.5025 187.665 53.5025L176.843 53.4408C174.716 53.4408 171.526 53.6053 167.272 53.9343C163.435 54.3045 160.245 54.4896 157.701 54.4896C155.574 54.4896 154.51 54.2017 154.51 53.6259C154.51 53.4202 154.448 53.1735 154.322 52.8856C154.197 52.5565 154.135 52.3098 154.135 52.1453C154.135 51.3227 154.594 50.7881 155.511 50.5413C156.429 50.2534 157.805 50.0478 159.64 49.9244C161.558 49.8421 162.622 49.6159 162.83 49.2458C162.914 49.0813 162.955 48.8551 162.955 48.5672L162.893 45.606C162.893 43.8786 163.039 42.3774 163.331 41.1025C163.664 39.8275 164.29 38.9022 165.207 38.3264C165.541 38.1207 165.791 38.0179 165.958 38.0179C166.208 38.0179 166.459 38.1413 166.709 38.3881C167.001 38.5937 167.147 38.8199 167.147 39.0667C167.147 39.19 166.959 39.6836 166.584 40.5473C166.25 41.4109 166.083 42.1307 166.083 42.7065C166.083 43.2823 166.187 44.4133 166.396 46.0995C166.605 47.7446 166.792 48.67 166.959 48.8756L167.522 48.999C168.273 48.999 168.982 48.9373 169.649 48.8139C170.566 48.7317 171.275 48.6905 171.776 48.6905C172.944 48.6905 173.673 48.526 173.965 48.197C174.257 47.868 174.424 47.3745 174.466 46.7164C174.549 46.0584 174.612 45.5443 174.654 45.1741C174.737 44.475 174.987 43.5701 175.404 42.4597C175.988 40.8968 176.28 39.6836 176.28 38.8199C176.28 38.532 176.176 38.3469 175.967 38.2647C175.759 38.1824 175.446 38.1413 175.029 38.1413C174.362 38.1413 173.84 38.0385 173.465 37.8328C173.09 37.6272 172.902 37.1337 172.902 36.3522C172.902 35.324 173.319 34.5632 174.153 34.0697C175.029 33.535 175.946 33.1237 176.906 32.8358C177.573 32.6713 178.094 32.404 178.469 32.0338C178.845 31.6226 179.387 30.6972 180.096 29.2577C180.638 28.1884 180.93 27.4275 180.972 26.9751L180.659 26.8517C180.284 26.8517 179.867 26.8929 179.408 26.9751C178.949 27.0574 178.615 27.1191 178.407 27.1602C177.406 27.407 176.655 27.5303 176.155 27.5303C175.279 27.5303 174.841 27.2836 174.841 26.79ZM163.894 24.6308C163.894 23.9317 164.081 23.2325 164.457 22.5333C164.832 21.8342 165.333 21.4846 165.958 21.4846C166.584 21.4846 167.188 21.6902 167.772 22.1015C168.356 22.5128 168.648 23.0269 168.648 23.6438C168.648 23.8905 168.544 24.1579 168.335 24.4458C168.168 24.6925 168.064 24.8776 168.022 25.001C168.69 26.1526 169.315 27.6537 169.899 29.5045C170.525 31.3141 170.838 32.7741 170.838 33.8846C170.838 34.5837 170.733 35.1595 170.525 35.6119C170.358 36.0232 169.962 36.2289 169.336 36.2289C169.044 36.2289 168.731 36.126 168.398 35.9204C168.022 35.6736 167.71 35.2624 167.459 34.6866C167.209 34.1108 166.938 33.3294 166.646 32.3423C166.521 31.931 166.146 31.0673 165.52 29.7512C165.02 28.6819 164.624 27.7565 164.332 26.9751C164.04 26.1526 163.894 25.3711 163.894 24.6308ZM177.906 48.3204C178.282 48.3615 178.887 48.3821 179.721 48.3821C180.722 48.3821 181.597 48.4027 182.348 48.4438C183.099 48.4849 183.724 48.526 184.225 48.5672C186.143 48.7317 187.624 48.8139 188.666 48.8139C189.042 48.8139 189.271 48.7317 189.354 48.5672C188.353 47.6212 186.852 46.4285 184.85 44.9891C182.848 43.5085 181.514 42.7682 180.847 42.7682C180.471 42.7682 180.2 42.9944 180.033 43.4468C179.908 43.8992 179.825 44.1665 179.783 44.2488L178.907 46.0378C178.24 47.2716 177.906 47.9914 177.906 48.197V48.3204Z" fill="#189EC7"/>
<path d="M49.5396 68C46.4118 68 43.8052 67.7121 41.72 67.1363C39.6348 66.6017 37.8206 65.8408 36.2776 64.8537C34.7345 63.8667 32.6284 62.3244 29.9593 60.2269L27.7073 58.4378C27.457 58.2733 27.1234 58.0265 26.7063 57.6975C26.2893 57.3685 25.9348 57.06 25.6429 56.7721C25.0173 56.8133 23.4534 57.8003 20.9511 59.7333C19.1995 61.0494 17.7816 62.0365 16.6972 62.6945C15.6129 63.3937 14.758 63.7433 14.1324 63.7433C13.7988 63.7433 13.486 63.6405 13.194 63.4348C12.9438 63.2703 12.8187 63.0235 12.8187 62.6945C12.8187 61.872 15.175 59.7333 19.8876 56.2786C20.4298 55.9085 21.0137 55.4766 21.6392 54.9831C21.6392 54.9831 22.1814 54.4484 23.2657 53.3791C23.1406 53.2146 22.8278 52.7211 22.3274 51.8985C21.8269 51.076 21.4307 50.6647 21.1388 50.6647C21.0554 50.6647 20.7843 50.932 20.3255 51.4667C19.8668 52.0013 19.5749 52.3509 19.4497 52.5154C18.0318 54.1605 16.8849 55.4149 16.0091 56.2786C15.1333 57.1834 14.4035 57.6358 13.8196 57.6358C13.4026 57.6358 13.0272 57.533 12.6936 57.3274C12.36 57.1629 12.1931 56.8955 12.1931 56.5254C12.1931 55.7851 12.7979 54.6335 14.0073 53.0706C15.2584 51.5078 17.0309 49.4308 19.3246 46.8398C19.6166 46.5108 20.3255 45.7088 21.4516 44.4338C22.5776 43.1589 23.2032 42.3158 23.3283 41.9045C22.1188 41.4932 21.2013 40.7735 20.5758 39.7453C19.9502 38.7171 19.6374 37.5244 19.6374 36.1672C19.6374 35.6736 19.7417 35.0773 19.9502 34.3781C20.117 33.6378 20.2004 33.062 20.2004 32.6507L20.0753 32.5891C19.7 32.6302 19.3246 33.0003 18.9493 33.6995C18.5739 34.3575 18.0526 35.468 17.3854 37.0308C16.593 38.9638 15.8631 40.5061 15.1959 41.6577C14.5286 42.7682 13.8405 43.3234 13.1315 43.3234C11.7969 43.3234 11.1297 42.5214 11.1297 40.9174C11.1297 39.9303 11.5884 38.6554 12.5059 37.0925C13.4651 35.4886 14.5912 34.1108 15.884 32.9592C17.1768 31.7665 18.3446 31.1701 19.3872 31.1701C19.5957 31.1701 19.8042 31.2935 20.0128 31.5403C20.263 31.7459 20.4298 31.8899 20.5132 31.9721C20.7217 31.931 20.9303 31.6842 21.1388 31.2318C21.3473 30.7383 21.5558 30.3476 21.7643 30.0597C21.9729 29.7718 22.2857 29.6279 22.7027 29.6279C23.2032 29.6279 23.5159 29.8746 23.6411 30.3682C23.8079 30.8617 23.8913 31.458 23.8913 32.1572C23.8913 32.3217 23.8704 32.8358 23.8287 33.6995C23.787 34.5632 23.8704 35.3446 24.079 36.0438C24.3292 36.7018 24.7045 37.0308 25.205 37.0308C25.622 37.0308 26.2267 36.8252 27.0191 36.4139C27.8115 36.0027 28.2286 35.6119 28.2703 35.2418C28.312 35.2829 27.9783 34.8922 27.2694 34.0697C26.6021 33.3705 26.1016 32.7741 25.768 32.2806C25.4761 31.7459 25.3301 31.1085 25.3301 30.3682C25.3301 29.8746 25.4761 29.3605 25.768 28.8259C26.1016 28.2912 26.5187 28.0239 27.0191 28.0239C27.3945 28.0239 27.7698 28.209 28.1452 28.5791C28.5205 28.9493 28.7707 29.1755 28.8958 29.2577C29.2712 29.6279 30.2304 30.4298 31.7735 31.6637C32.6493 32.3217 33.3374 32.8564 33.8378 33.2677C33.8378 34.1313 33.7544 34.7483 33.5876 35.1184C33.4208 35.4886 32.962 35.8381 32.2114 36.1672C31.836 36.3317 31.5024 36.5784 31.2104 36.9075C30.9185 37.1954 30.6474 37.5244 30.3972 37.8945C30.147 38.2235 29.9802 38.4292 29.8967 38.5114C29.3963 39.2929 28.8958 39.9509 28.3954 40.4856C27.8949 40.9791 27.3111 41.3287 26.6438 41.5343C26.3102 41.6166 26.0808 41.74 25.9557 41.9045L25.8931 42.2129C25.8931 42.5831 25.9557 42.9532 26.0808 43.3234C26.2476 43.6524 26.4978 43.8169 26.8315 43.8169C27.04 43.8169 27.3319 43.7552 27.7073 43.6318C28.1243 43.5085 28.4371 43.4468 28.6456 43.4468C29.6465 43.4468 30.5223 43.7141 31.273 44.2488C32.0237 44.7834 32.399 45.5237 32.399 46.4697C32.399 47.4156 31.7318 48.8756 30.3972 50.8498C29.8133 51.7957 29.3963 52.536 29.1461 53.0706C29.1461 53.0706 29.7299 53.6464 30.8977 54.798C32.4407 56.3197 33.3791 57.2245 33.7127 57.5124C36.1733 59.5688 38.9467 61.1934 42.0328 62.3861C45.1189 63.6199 48.3093 64.3396 51.604 64.5453C52.1879 65.2856 52.4798 65.9436 52.4798 66.5194C52.4798 67.1363 52.1879 67.527 51.604 67.6915C51.0201 67.8972 50.332 68 49.5396 68ZM6 34.7483C6 34.4604 6.27108 33.8846 6.81324 33.0209C7.3554 32.1161 7.68904 31.5609 7.81415 31.3552C9.39893 28.8464 10.2747 27.1808 10.4415 26.3582C11.359 24.8776 12.2348 24.1373 13.0689 24.1373C13.3192 24.1373 13.5068 24.3224 13.6319 24.6925C13.7571 25.0216 13.903 25.1861 14.0698 25.1861C14.2784 25.1861 14.6329 25.0833 15.1333 24.8776C17.8441 23.7672 21.1596 22.6773 25.0799 21.608C29.0001 20.4975 31.982 19.9423 34.0255 19.9423C35.5686 19.9423 36.8823 20.3124 37.9666 21.0527C39.0509 21.7519 39.5931 22.8418 39.5931 24.3224C39.5931 26.0909 38.9675 26.9751 37.7164 26.9751C37.341 26.9751 37.0491 26.8929 36.8406 26.7284C36.6738 26.5638 36.4861 26.2965 36.2776 25.9264C36.0273 25.5151 35.7563 25.2066 35.4643 25.001C35.2141 24.7542 34.797 24.6308 34.2132 24.6308C32.7118 24.6308 30.3555 24.7954 27.1442 25.1244C23.9747 25.4534 20.9928 25.9058 18.1986 26.4816C15.4044 27.0163 13.6528 27.6332 12.9438 28.3323C12.6936 28.6202 12.4434 29.0932 12.1931 29.7512C11.9429 30.3682 11.6927 31.0262 11.4425 31.7254C10.942 33.3294 10.4415 34.5837 9.94109 35.4886C9.48234 36.3522 8.85677 36.7841 8.06438 36.7841C7.52222 36.7841 7.04262 36.5784 6.62557 36.1672C6.20852 35.7559 6 35.2829 6 34.7483ZM8.68995 13.8965C8.68995 12.8272 10.379 11.7167 13.7571 10.5652C14.1741 10.4007 15.4044 9.90713 17.4479 9.08458C20.0336 8.01526 21.9937 7.23383 23.3283 6.7403C24.7045 6.24677 25.7263 6 26.3936 6C27.1025 6 27.8115 6.18507 28.5205 6.55522C29.2295 6.92537 29.584 7.41891 29.584 8.03582C29.584 8.85837 29.3337 9.43416 28.8333 9.76318C28.3328 10.0511 27.5821 10.2978 26.5812 10.5035C25.8305 10.668 25.2675 10.8325 24.8922 10.997C24.5586 11.1204 24.3292 11.3672 24.2041 11.7373C24.2458 11.8607 24.4126 12.0252 24.7045 12.2308C25.3718 12.6833 25.8931 13.4647 26.2684 14.5751C26.6855 15.6856 26.894 16.7343 26.894 17.7214C26.894 18.3383 26.6646 18.7907 26.2059 19.0786C25.7471 19.3665 25.205 19.5104 24.5794 19.5104C23.9121 19.5104 23.2032 19.0992 22.4525 18.2766C21.7435 17.4129 21.389 16.6521 21.389 15.994C21.389 15.5828 21.4099 15.192 21.4516 14.8219C21.535 14.4106 21.5767 13.9993 21.5767 13.5881V13.1562C21.2013 13.1973 20.4507 13.403 19.3246 13.7731C18.2403 14.1433 17.6981 14.4312 17.6981 14.6368C17.6981 14.6779 17.9692 15.1098 18.5114 15.9323C20.263 18.2766 21.1388 19.8806 21.1388 20.7443C21.1388 21.1144 20.9303 21.5257 20.5132 21.9781C20.1379 22.4305 19.7625 22.6567 19.3872 22.6567C18.0943 22.6567 17.0517 22.1837 16.2593 21.2378C15.5087 20.2507 14.758 18.9141 14.0073 17.2279C13.9656 17.1045 13.8196 16.7755 13.5694 16.2408C13.3192 15.665 13.0898 15.3154 12.8813 15.192C12.5476 15.2743 12.1514 15.3154 11.6927 15.3154C10.9003 15.3154 10.1913 15.2126 9.56575 15.007C8.98188 14.7602 8.68995 14.39 8.68995 13.8965ZM24.9548 49.3075C24.9548 49.5131 25.0799 49.6982 25.3301 49.8627C25.5803 50.0272 25.8097 50.1095 26.0182 50.1095C26.4353 49.6982 26.7898 49.1635 27.0817 48.5055L26.8315 48.3821C26.4978 48.3821 26.1016 48.4643 25.6429 48.6289C25.1841 48.7934 24.9548 49.0196 24.9548 49.3075ZM29.5214 16.5493C29.5214 16.138 29.6882 15.4799 30.0219 14.5751C30.3972 13.6703 30.8143 12.8683 31.273 12.1692C31.7735 11.47 32.2322 11.1204 32.6493 11.1204C33.4416 11.1204 34.0255 11.3877 34.4009 11.9224C34.8179 12.4159 35.0264 13.074 35.0264 13.8965C35.0264 14.4312 34.8179 15.0892 34.4009 15.8706C34.0255 16.6521 33.5251 17.3307 32.8995 17.9065C32.3156 18.4411 31.7526 18.7085 31.2104 18.7085C30.8351 18.7085 30.4598 18.4617 30.0844 17.9682C29.7091 17.4335 29.5214 16.9605 29.5214 16.5493ZM35.2141 33.3294C35.2141 32.6302 35.7354 32.2806 36.778 32.2806C38.0292 32.2806 39.3846 32.5685 40.8442 33.1443C42.3456 33.6789 43.0963 34.4398 43.0963 35.4269C43.0963 35.8381 42.9294 36.2494 42.5958 36.6607C42.2622 37.0308 41.8868 37.2159 41.4698 37.2159C40.9693 37.2159 40.1978 37.0103 39.1552 36.599C38.1543 36.1466 37.2368 35.6119 36.4027 34.995C35.6103 34.3781 35.2141 33.8229 35.2141 33.3294Z" stroke="white" stroke-width="12" mask="url(#path-1-outside-1_5503_3338)"/>
<path d="M80.9432 25.4945C81.1517 25.4945 81.3186 25.5768 81.4437 25.7413C81.5688 25.8647 81.6313 26.0292 81.6313 26.2348C81.6313 26.4405 81.4645 26.8723 81.1309 27.5303C80.7972 28.1473 80.6304 28.7642 80.6304 29.3811C80.6304 30.327 80.7347 31.3552 80.9432 32.4657C81.1934 33.535 81.5271 34.5015 81.9441 35.3652C81.9858 35.4474 82.1109 35.6942 82.3195 36.1055C82.528 36.4756 82.6322 36.8869 82.6322 37.3393C82.6322 37.7095 82.4654 37.9768 82.1318 38.1413C81.8399 38.3058 81.4854 38.3881 81.0683 38.3881C79.8172 38.3881 78.9831 37.5861 78.566 35.9821C78.149 34.337 77.9405 32.6096 77.9405 30.8C77.9405 29.6484 78.1907 28.4763 78.6912 27.2836C79.1916 26.0909 79.9423 25.4945 80.9432 25.4945ZM56.4209 42.9532C56.4209 41.596 56.7337 39.9098 57.3592 37.8945C57.9848 35.8793 58.7981 34.008 59.799 32.2806C60.8416 30.5532 61.9259 29.3811 63.0519 28.7642C63.3439 28.5997 63.6566 28.4968 63.9903 28.4557C64.3239 28.4146 64.6576 28.394 64.9912 28.394C65.1997 28.394 65.5542 28.4352 66.0547 28.5174L66.3049 28.8876C66.3049 29.1343 66.1172 29.2988 65.7419 29.3811C64.6993 29.7101 63.8026 30.7589 63.0519 32.5274C62.3012 34.2959 61.7174 36.2494 61.3003 38.3881C60.925 40.5267 60.7373 42.2335 60.7373 43.5085C60.7373 44.331 60.6539 44.9685 60.4871 45.4209C60.3203 45.8322 59.8824 46.0378 59.1734 46.0378C58.2976 46.0378 57.6095 45.7499 57.109 45.1741C56.6503 44.5572 56.4209 43.8169 56.4209 42.9532ZM68.4944 33.206C68.4944 32.3012 68.6195 31.4169 68.8697 30.5532C69.1617 29.6484 69.6621 29.196 70.3711 29.196C70.9967 29.196 71.3094 29.7718 71.3094 30.9234C71.3094 32.1983 71.6222 33.8023 72.2478 35.7353C72.9151 37.6683 73.7909 39.3546 74.8752 40.794C75.9595 42.2335 77.1689 42.9532 78.5035 42.9532C79.1291 42.9532 79.7755 42.7887 80.4428 42.4597C81.1517 42.0896 81.965 41.596 82.8825 40.9791C83.0076 40.8968 83.3412 40.6912 83.8834 40.3622C84.4673 39.992 84.9052 39.807 85.1971 39.807C85.5307 39.807 85.7809 39.9509 85.9478 40.2388C86.1146 40.5267 86.198 40.8352 86.198 41.1642C86.198 42.1101 85.7601 43.0561 84.8843 44.002C84.0085 44.9068 82.945 45.6677 81.6939 46.2846C80.4845 46.8604 79.421 47.1483 78.5035 47.1483C76.4183 47.1483 74.6041 46.408 73.061 44.9274C71.5597 43.4468 70.4128 41.6166 69.6204 39.4368C68.8697 37.257 68.4944 35.1801 68.4944 33.206ZM87.6368 28.0239C87.6368 26.5433 87.9079 25.803 88.45 25.803C88.7837 25.803 89.0756 25.8647 89.3258 25.9881C89.8263 26.276 90.2433 27.4892 90.577 29.6279C90.7438 30.4504 91.1608 31.7459 91.8281 33.5144C92.2869 34.7483 92.6205 35.797 92.829 36.6607C93.0793 37.4832 93.2044 38.3264 93.2044 39.19C93.2044 39.4779 92.9958 39.7453 92.5788 39.992C92.2035 40.1977 91.849 40.3005 91.5153 40.3005C88.9296 40.3005 87.6368 36.2083 87.6368 28.0239Z" stroke="white" stroke-width="12" mask="url(#path-1-outside-1_5503_3338)"/>
<path d="M124.483 15.4388C124.483 15.0687 124.733 14.7396 125.234 14.4517C125.776 14.1638 126.547 13.8348 127.548 13.4647C128.466 13.1768 129.07 12.9095 129.362 12.6627C129.654 12.3748 129.904 11.9224 130.113 11.3055C130.321 10.7297 130.53 10.2978 130.739 10.01C130.989 9.68093 131.322 9.51642 131.739 9.51642C132.115 9.51642 132.365 9.59867 132.49 9.76318C132.657 9.92769 132.782 10.195 132.865 10.5652C132.949 10.8942 133.074 11.1204 133.241 11.2438C133.449 11.2849 133.825 11.326 134.367 11.3672C134.951 11.4083 135.43 11.5111 135.806 11.6756C136.181 11.8401 136.369 12.0869 136.369 12.4159C136.369 12.9506 136.181 13.3413 135.806 13.5881C135.472 13.8348 134.93 14.1022 134.179 14.39C134.096 14.4312 133.908 14.5134 133.616 14.6368C133.324 14.7191 133.137 14.8219 133.053 14.9453C132.928 15.1509 132.865 15.7267 132.865 16.6726C132.865 17.5363 132.949 18.1121 133.116 18.4L133.428 18.4617C133.679 18.4617 134.033 18.4206 134.492 18.3383C134.951 18.2149 135.284 18.1532 135.493 18.1532C136.535 18.1532 137.39 18.5851 138.058 19.4488C138.725 20.3124 139.059 21.2789 139.059 22.3483C139.059 22.7595 139.017 23.0886 138.933 23.3353C138.433 25.2272 137.912 26.6872 137.37 27.7154C136.827 28.7436 135.889 29.7512 134.555 30.7383C134.388 30.8617 134.033 31.0468 133.491 31.2935C132.991 31.5403 132.594 31.8076 132.302 32.0955C132.052 32.3423 131.927 32.6713 131.927 33.0826V33.206H132.24C134.45 32.3012 136.39 31.5609 138.058 30.9851C139.768 30.4093 141.165 30.1214 142.249 30.1214C143.292 30.1214 143.813 30.6766 143.813 31.7871C143.813 32.3629 143.917 32.9592 144.126 33.5761C144.334 34.1519 144.459 34.5015 144.501 34.6249C144.918 35.6942 145.147 36.5167 145.189 37.0925C145.189 37.2982 145.21 37.6066 145.252 38.0179C145.293 38.3881 145.335 38.7171 145.377 39.005C145.544 39.1695 145.731 39.334 145.94 39.4985C146.19 39.6219 146.357 39.7658 146.44 39.9303C146.565 40.0537 146.628 40.2594 146.628 40.5473C146.628 40.9997 146.273 41.4315 145.565 41.8428C144.856 42.2541 143.813 42.7887 142.437 43.4468C141.311 43.9403 140.477 44.331 139.934 44.6189C139.434 44.9068 139.184 45.1947 139.184 45.4826L139.246 45.7294C140.247 50.459 140.748 54.7158 140.748 58.4995C140.748 60.2269 140.497 61.6663 139.997 62.8179C139.497 64.0106 138.496 64.607 136.994 64.607C136.327 64.607 135.639 64.1751 134.93 63.3114C134.221 62.4889 133.866 61.7486 133.866 61.0905C133.866 60.6381 133.929 60.3297 134.054 60.1652C134.221 60.0418 134.471 59.939 134.805 59.8567C135.18 59.7745 135.472 59.6716 135.681 59.5483C135.847 59.3015 136.014 58.7874 136.181 58.006C136.348 57.2657 136.431 56.7104 136.431 56.3403C136.431 55.8056 135.993 55.2915 135.118 54.798C134.283 54.3456 133.157 53.8521 131.739 53.3174C130.989 53.0706 130.405 52.8444 129.988 52.6388C129.571 52.4332 129.091 52.1453 128.549 51.7751C128.049 51.405 127.798 51.0965 127.798 50.8498C127.798 50.274 127.652 49.9861 127.36 49.9861C127.069 49.9861 126.714 50.1506 126.297 50.4796C125.88 50.7675 125.63 50.932 125.546 50.9731C124.962 51.3844 124.483 51.7134 124.107 51.9602C123.732 52.1658 123.357 52.2687 122.981 52.2687C122.564 52.2687 122.189 52.1041 121.855 51.7751C121.522 51.405 121.355 50.9937 121.355 50.5413C121.355 49.3486 122.418 48.2381 124.545 47.2099C126.339 46.3463 129.07 45.1741 132.74 43.6935C134.075 43.2 135.222 42.7476 136.181 42.3363C136.306 42.1307 136.369 41.7811 136.369 41.2876L136.306 39.6219C136.306 39.334 136.369 38.9227 136.494 38.3881C136.661 37.8534 136.744 37.4627 136.744 37.2159L136.556 37.0925C136.306 37.1337 136.077 37.2159 135.868 37.3393C134.534 37.9562 132.782 38.5526 130.613 39.1284C128.486 39.7041 126.777 39.992 125.484 39.992C125.275 39.992 125.046 39.807 124.796 39.4368C124.587 39.0255 124.483 38.7171 124.483 38.5114C124.483 38.059 124.671 37.6683 125.046 37.3393C125.463 36.9692 126.109 36.5167 126.985 35.9821C127.694 35.5708 128.215 35.2418 128.549 34.995C128.924 34.7071 129.112 34.3987 129.112 34.0697L128.924 33.6995C128.716 33.7406 128.361 33.864 127.861 34.0697C127.36 34.2342 126.881 34.3164 126.422 34.3164C125.922 34.3164 125.567 34.2342 125.359 34.0697C125.192 33.9051 125.046 33.6172 124.921 33.206C124.837 32.7947 124.712 32.4657 124.545 32.2189C124.087 31.5197 123.795 30.8206 123.67 30.1214C123.544 29.4222 123.482 28.538 123.482 27.4687C123.482 25.659 123.628 24.1784 123.92 23.0269C124.253 21.8753 124.942 20.7443 125.984 19.6338C126.193 19.4282 126.443 19.202 126.735 18.9552C127.027 18.7085 127.298 18.5851 127.548 18.5851C127.882 18.5851 128.111 18.6468 128.236 18.7701C128.403 18.8935 128.591 19.0992 128.799 19.3871C129.008 19.6338 129.216 19.8189 129.425 19.9423C129.55 19.5721 129.613 18.9964 129.613 18.2149V16.5493C129.154 16.5493 128.507 16.5904 127.673 16.6726C126.839 16.7549 126.193 16.796 125.734 16.796C124.9 16.796 124.483 16.3436 124.483 15.4388ZM102.65 34.6249C102.65 33.7612 102.755 32.6507 102.963 31.2935C103.213 29.9363 103.61 28.7231 104.152 27.6537C104.694 26.5433 105.382 25.9881 106.216 25.9881C106.383 25.9881 106.612 26.0292 106.904 26.1114C107.238 26.1937 107.488 26.2348 107.655 26.2348C107.905 26.2348 108.176 26.1114 108.468 25.8647C108.76 25.5768 108.969 25.3917 109.094 25.3095C109.052 25.0627 109.01 24.4869 108.969 23.5821C108.927 22.6773 108.823 21.8753 108.656 21.1761C108.489 20.4769 108.239 20.1274 107.905 20.1274C107.196 20.1274 106.362 20.4769 105.403 21.1761C104.736 21.5874 104.319 21.793 104.152 21.793C103.693 21.793 103.359 21.5257 103.151 20.991C102.942 20.4153 102.838 19.86 102.838 19.3254C102.838 18.3794 103.005 17.7625 103.339 17.4746C103.672 17.1456 104.235 16.8371 105.028 16.5493C105.528 16.4259 106.008 16.2408 106.466 15.994C107.009 15.7061 107.384 15.3154 107.592 14.8219C107.843 14.3284 108.051 13.6909 108.218 12.9095C108.385 12.1692 108.552 11.6345 108.718 11.3055C108.927 10.9765 109.302 10.8119 109.845 10.8119C110.345 10.8119 110.845 10.9559 111.346 11.2438C111.888 11.5317 112.159 11.9224 112.159 12.4159C112.159 12.7861 112.013 13.1768 111.721 13.5881C111.429 13.9993 111.262 14.2461 111.221 14.3284C111.221 14.6985 111.408 14.9247 111.784 15.007C112.201 15.0892 112.868 15.1509 113.786 15.192C114.912 15.2332 115.746 15.336 116.288 15.5005C116.872 15.665 117.164 16.0557 117.164 16.6726C117.164 17.2896 116.872 17.7625 116.288 18.0915C115.746 18.4206 114.995 18.729 114.036 19.0169C113.243 19.2637 112.68 19.4899 112.347 19.6955C112.013 19.86 111.846 20.0862 111.846 20.3741C111.846 20.4975 111.867 20.6003 111.909 20.6826C111.951 20.7648 111.992 20.8471 112.034 20.9294C112.076 21.0527 112.117 21.2584 112.159 21.5463C112.201 21.8342 112.222 22.0604 112.222 22.2249C112.222 23.4587 112.451 24.199 112.91 24.4458C113.118 24.5692 113.452 24.6308 113.911 24.6308C114.953 24.6308 115.85 25.0627 116.601 25.9264C117.351 26.7489 117.894 27.7565 118.227 28.9493C118.602 30.142 118.79 31.2524 118.79 32.2806C118.79 34.0902 118.477 35.3652 117.852 36.1055C117.268 36.8458 116.434 37.4832 115.35 38.0179C115.266 38.059 114.995 38.203 114.536 38.4497C114.119 38.6554 113.827 38.9227 113.66 39.2517C113.494 39.5396 113.41 39.9098 113.41 40.3622C113.41 40.7735 113.41 41.0202 113.41 41.1025V41.7811C113.41 42.5625 113.473 43.0149 113.598 43.1383L113.848 43.2C114.349 43.2 114.807 43.1177 115.224 42.9532C115.641 42.7887 116.204 42.542 116.913 42.2129C116.997 42.1718 117.351 42.0073 117.977 41.7194C118.602 41.4315 119.228 41.2876 119.854 41.2876C120.312 41.2876 120.709 41.4726 121.042 41.8428C121.376 42.2129 121.543 42.6448 121.543 43.1383C121.543 43.7552 121.063 44.331 120.104 44.8657C119.145 45.4003 117.873 45.9556 116.288 46.5313C115.621 46.7781 115.016 47.0249 114.474 47.2716C113.973 47.5184 113.66 47.724 113.535 47.8886C113.285 48.2176 113.16 49.7393 113.16 52.4537C113.118 54.8803 113.014 56.731 112.847 58.006C112.722 59.3221 112.388 59.9801 111.846 59.9801C111.054 59.9801 110.533 59.1987 110.282 57.6358C110.032 56.073 109.865 53.9343 109.782 51.2199C109.782 50.1506 109.74 49.328 109.657 48.7522C109.323 48.7522 108.635 48.8756 107.592 49.1224C106.592 49.3692 106.029 49.5542 105.903 49.6776C105.778 49.801 105.695 50.0889 105.653 50.5413C105.611 50.9526 105.549 51.261 105.466 51.4667C105.382 51.6723 105.174 51.7751 104.84 51.7751C104.381 51.7751 103.964 51.4667 103.589 50.8498C103.213 50.1917 103.026 49.6159 103.026 49.1224C103.026 48.4643 103.631 47.8269 104.84 47.2099C106.049 46.5519 107.53 45.8527 109.282 45.1124C109.49 44.2899 109.594 43.3028 109.594 42.1512C109.594 41.2876 109.469 40.8557 109.219 40.8557C109.094 40.8557 108.864 40.938 108.531 41.1025C108.197 41.2259 107.905 41.2876 107.655 41.2876C106.904 41.2876 106.529 40.9585 106.529 40.3005C106.529 39.8892 106.612 39.5396 106.779 39.2517C106.904 39.1695 107.363 38.9227 108.155 38.5114C108.99 38.1002 109.448 37.73 109.532 37.401L109.407 37.1542L109.156 37.0925C108.739 37.0925 108.343 37.1954 107.968 37.401C107.634 37.5655 107.196 37.8123 106.654 38.1413C105.82 38.7171 105.215 39.005 104.84 39.005C104.089 39.005 103.526 38.5114 103.151 37.5244C102.817 36.5373 102.65 35.5708 102.65 34.6249ZM107.155 31.5403C107.155 32.1572 107.321 32.6919 107.655 33.1443L108.03 33.3294C108.239 33.3294 108.489 33.2677 108.781 33.1443C109.073 32.9798 109.323 32.8564 109.532 32.7741C109.532 32.6507 109.49 32.0544 109.407 30.9851C109.323 29.9158 109.156 29.3811 108.906 29.3811C108.447 29.3811 108.03 29.6279 107.655 30.1214C107.321 30.6149 107.155 31.0879 107.155 31.5403ZM112.785 29.3194C112.785 29.8129 112.91 30.2859 113.16 30.7383C113.452 31.1496 113.827 31.3552 114.286 31.3552C114.62 31.3552 114.787 31.0673 114.787 30.4915C114.787 30.1214 114.641 29.7512 114.349 29.3811C114.057 29.0109 113.723 28.8259 113.348 28.8259L112.91 28.9493L112.785 29.3194ZM113.348 34.5015C113.348 34.9128 113.431 35.2212 113.598 35.4269C113.765 35.5914 114.057 35.6736 114.474 35.6736C114.641 35.6736 114.745 35.6531 114.787 35.6119C114.87 35.5297 114.912 35.3857 114.912 35.1801C114.912 34.9745 114.766 34.8099 114.474 34.6866C114.224 34.5221 113.994 34.4398 113.786 34.4398L113.348 34.5015ZM127.423 30.1831C127.423 30.3887 127.486 30.5532 127.611 30.6766L127.923 30.8C128.424 30.8 128.883 30.5532 129.3 30.0597C129.717 29.525 129.925 29.0109 129.925 28.5174L129.675 28.2706C129.258 28.2706 128.778 28.4968 128.236 28.9493C127.694 29.3605 127.423 29.7718 127.423 30.1831ZM127.611 25.1244C127.611 25.3711 127.715 25.4945 127.923 25.4945C128.299 25.4945 128.695 25.3506 129.112 25.0627C129.529 24.7337 129.738 24.3841 129.738 24.0139C129.738 23.8905 129.696 23.7466 129.613 23.5821C129.529 23.4176 129.425 23.3353 129.3 23.3353C129.091 23.3353 128.758 23.5821 128.299 24.0756C127.84 24.5692 127.611 24.9187 127.611 25.1244ZM130.363 48.8756C130.613 49.1635 131.552 49.5337 133.178 49.9861C134.805 50.3973 135.993 50.6441 136.744 50.7264C136.827 49.328 136.869 48.2793 136.869 47.5801C136.869 47.2099 136.827 46.9221 136.744 46.7164C136.661 46.5108 136.473 46.408 136.181 46.408C135.931 46.408 134.951 46.7781 133.241 47.5184C131.573 48.2176 130.613 48.67 130.363 48.8756ZM132.803 23.5204C132.803 23.726 132.886 23.9522 133.053 24.199C133.262 24.4046 133.47 24.5075 133.679 24.5075C134.137 24.5075 134.45 24.2813 134.617 23.8289C134.784 23.3353 134.867 22.8212 134.867 22.2866C134.867 21.9164 134.7 21.7313 134.367 21.7313C133.324 21.7313 132.803 22.3277 132.803 23.5204ZM133.178 26.9751C133.22 27.1396 133.324 27.2836 133.491 27.407C133.658 27.4892 133.846 27.5303 134.054 27.5303C134.221 27.5303 134.429 27.4687 134.68 27.3453C134.93 27.2219 135.055 27.0985 135.055 26.9751C135.055 26.8106 134.992 26.6872 134.867 26.605C134.742 26.4816 134.596 26.4199 134.429 26.4199C133.971 26.4199 133.554 26.605 133.178 26.9751ZM137.933 36.4139C137.933 36.5373 138.12 36.6813 138.496 36.8458C138.871 36.9692 139.059 37.1748 139.059 37.4627C139.059 37.7095 138.954 38.1002 138.746 38.6348C138.579 39.1284 138.496 39.5191 138.496 39.807C138.496 40.5884 138.767 41.1642 139.309 41.5343C139.601 41.4109 140.018 41.2464 140.56 41.0408C141.144 40.8352 141.623 40.609 141.999 40.3622C142.374 40.0743 142.562 39.7453 142.562 39.3751C142.562 39.005 142.332 38.2441 141.874 37.0925C141.457 35.8998 141.144 35.139 140.935 34.8099C140.852 34.8511 140.331 35.0978 139.371 35.5502C138.412 36.0027 137.933 36.2905 137.933 36.4139Z" stroke="white" stroke-width="12" mask="url(#path-1-outside-1_5503_3338)"/>
<path d="M174.841 26.79C174.841 26.6667 174.862 26.5638 174.904 26.4816C174.945 26.3582 174.966 26.2554 174.966 26.1731C174.966 25.4328 174.841 24.4046 174.591 23.0886C174.341 21.6902 174.216 20.662 174.216 20.004C174.216 15.9735 175.008 13.9582 176.593 13.9582C178.261 13.9582 179.095 16.1791 179.095 20.6209V21.1144C179.095 22.0604 179.178 22.5333 179.345 22.5333C179.47 22.5333 179.7 22.3071 180.033 21.8547C180.409 21.4023 180.805 20.8882 181.222 20.3124C182.348 18.7496 183.266 17.5774 183.974 16.796C184.683 16.0146 185.309 15.6239 185.851 15.6239C185.935 15.6239 186.164 15.6856 186.539 15.809L186.664 16.1174C186.664 16.5698 186.518 17.0633 186.227 17.598C185.935 18.1327 185.518 18.7701 184.975 19.5104C184.058 20.8265 183.537 21.7725 183.411 22.3483C183.578 22.4305 183.87 22.4716 184.287 22.4716C184.579 22.4716 185.017 22.4511 185.601 22.41C186.185 22.3277 186.685 22.2866 187.102 22.2866C188.687 22.2866 189.479 22.6567 189.479 23.397C189.479 23.8905 189.334 24.2401 189.042 24.4458C188.75 24.6514 188.27 24.857 187.603 25.0627C186.685 25.3917 185.997 25.7619 185.538 26.1731C185.08 26.5433 184.85 27.263 184.85 28.3323C184.85 28.7025 184.955 28.8876 185.163 28.8876C185.413 28.8876 185.768 28.7847 186.227 28.5791C186.685 28.3323 187.04 28.209 187.29 28.209C187.832 28.209 188.333 28.394 188.791 28.7642C189.25 29.1343 189.479 29.5867 189.479 30.1214C189.479 30.6561 189.292 31.0879 188.916 31.4169C188.583 31.7459 187.999 32.1778 187.165 32.7124C185.914 33.4527 184.829 34.2753 183.912 35.1801C182.994 36.0849 182.223 37.3804 181.597 39.0667C181.472 39.3546 181.41 39.6836 181.41 40.0537L181.472 40.3622C181.848 40.609 182.369 40.8352 183.036 41.0408C183.703 41.2876 184.892 41.9045 186.602 42.8915C188.353 43.8786 189.917 44.9068 191.294 45.9761C192.67 47.0043 193.358 47.7857 193.358 48.3204L193.295 49.1841C193.546 49.3486 193.963 49.5131 194.547 49.6776H194.421C194.797 49.7187 195.256 49.801 195.798 49.9244C196.34 50.0066 196.799 50.0683 197.174 50.1095C199.968 50.5207 202.846 50.7675 205.807 50.8498C207.225 50.8498 208.601 50.9937 209.936 51.2816C211.312 51.5695 212 52.1658 212 53.0706C212 53.3997 211.896 53.6876 211.687 53.9343C211.52 54.1811 211.333 54.4073 211.124 54.6129C210.916 54.8186 210.77 54.9625 210.686 55.0448L208.434 54.9214C203.43 54.6746 199.676 54.4073 197.174 54.1194C193.629 53.7081 190.46 53.5025 187.665 53.5025L176.843 53.4408C174.716 53.4408 171.526 53.6053 167.272 53.9343C163.435 54.3045 160.245 54.4896 157.701 54.4896C155.574 54.4896 154.51 54.2017 154.51 53.6259C154.51 53.4202 154.448 53.1735 154.322 52.8856C154.197 52.5565 154.135 52.3098 154.135 52.1453C154.135 51.3227 154.594 50.7881 155.511 50.5413C156.429 50.2534 157.805 50.0478 159.64 49.9244C161.558 49.8421 162.622 49.6159 162.83 49.2458C162.914 49.0813 162.955 48.8551 162.955 48.5672L162.893 45.606C162.893 43.8786 163.039 42.3774 163.331 41.1025C163.664 39.8275 164.29 38.9022 165.207 38.3264C165.541 38.1207 165.791 38.0179 165.958 38.0179C166.208 38.0179 166.459 38.1413 166.709 38.3881C167.001 38.5937 167.147 38.8199 167.147 39.0667C167.147 39.19 166.959 39.6836 166.584 40.5473C166.25 41.4109 166.083 42.1307 166.083 42.7065C166.083 43.2823 166.187 44.4133 166.396 46.0995C166.605 47.7446 166.792 48.67 166.959 48.8756L167.522 48.999C168.273 48.999 168.982 48.9373 169.649 48.8139C170.566 48.7317 171.275 48.6905 171.776 48.6905C172.944 48.6905 173.673 48.526 173.965 48.197C174.257 47.868 174.424 47.3745 174.466 46.7164C174.549 46.0584 174.612 45.5443 174.654 45.1741C174.737 44.475 174.987 43.5701 175.404 42.4597C175.988 40.8968 176.28 39.6836 176.28 38.8199C176.28 38.532 176.176 38.3469 175.967 38.2647C175.759 38.1824 175.446 38.1413 175.029 38.1413C174.362 38.1413 173.84 38.0385 173.465 37.8328C173.09 37.6272 172.902 37.1337 172.902 36.3522C172.902 35.324 173.319 34.5632 174.153 34.0697C175.029 33.535 175.946 33.1237 176.906 32.8358C177.573 32.6713 178.094 32.404 178.469 32.0338C178.845 31.6226 179.387 30.6972 180.096 29.2577C180.638 28.1884 180.93 27.4275 180.972 26.9751L180.659 26.8517C180.284 26.8517 179.867 26.8929 179.408 26.9751C178.949 27.0574 178.615 27.1191 178.407 27.1602C177.406 27.407 176.655 27.5303 176.155 27.5303C175.279 27.5303 174.841 27.2836 174.841 26.79ZM163.894 24.6308C163.894 23.9317 164.081 23.2325 164.457 22.5333C164.832 21.8342 165.333 21.4846 165.958 21.4846C166.584 21.4846 167.188 21.6902 167.772 22.1015C168.356 22.5128 168.648 23.0269 168.648 23.6438C168.648 23.8905 168.544 24.1579 168.335 24.4458C168.168 24.6925 168.064 24.8776 168.022 25.001C168.69 26.1526 169.315 27.6537 169.899 29.5045C170.525 31.3141 170.838 32.7741 170.838 33.8846C170.838 34.5837 170.733 35.1595 170.525 35.6119C170.358 36.0232 169.962 36.2289 169.336 36.2289C169.044 36.2289 168.731 36.126 168.398 35.9204C168.022 35.6736 167.71 35.2624 167.459 34.6866C167.209 34.1108 166.938 33.3294 166.646 32.3423C166.521 31.931 166.146 31.0673 165.52 29.7512C165.02 28.6819 164.624 27.7565 164.332 26.9751C164.04 26.1526 163.894 25.3711 163.894 24.6308ZM177.906 48.3204C178.282 48.3615 178.887 48.3821 179.721 48.3821C180.722 48.3821 181.597 48.4027 182.348 48.4438C183.099 48.4849 183.724 48.526 184.225 48.5672C186.143 48.7317 187.624 48.8139 188.666 48.8139C189.042 48.8139 189.271 48.7317 189.354 48.5672C188.353 47.6212 186.852 46.4285 184.85 44.9891C182.848 43.5085 181.514 42.7682 180.847 42.7682C180.471 42.7682 180.2 42.9944 180.033 43.4468C179.908 43.8992 179.825 44.1665 179.783 44.2488L178.907 46.0378C178.24 47.2716 177.906 47.9914 177.906 48.197V48.3204Z" stroke="white" stroke-width="12" mask="url(#path-1-outside-1_5503_3338)"/>
</svg>
