<svg width="128" height="128" viewBox="0 0 128 128" fill="none" xmlns="http://www.w3.org/2000/svg">
<g clip-path="url(#clip0_5318_661)">
<path d="M43.0344 81.0713C43.9528 81.4316 44.4045 82.4773 44.0471 83.3979C43.6897 84.3235 42.6521 84.7788 41.7387 84.4185C35.0863 81.7768 29.3673 78.0643 25.4057 73.3312C21.7221 68.9282 19.5576 63.6747 19.5576 57.6057V44.672C19.5576 43.6764 20.3569 42.8708 21.3448 42.8708H41.3117C42.2996 42.8708 43.0989 43.6764 43.0989 44.672C43.0989 45.6677 42.2996 46.4733 41.3117 46.4733H23.132V57.6057C23.132 62.7691 24.9788 67.2521 28.1312 71.0096C31.6956 75.2674 36.9182 78.6397 43.0393 81.0713M80.1186 84.7538C81.0916 84.5987 82.0051 85.2641 82.159 86.2448C82.3129 87.2254 81.6526 88.146 80.6796 88.3011C75.4669 89.1467 70.011 89.4319 64.5998 89.1617C59.1638 88.8915 53.7674 88.071 48.7137 86.7201C47.7605 86.4699 47.1946 85.4843 47.4428 84.5236C47.691 83.563 48.669 82.9926 49.6222 83.2428C54.4476 84.5336 59.5907 85.3191 64.7686 85.5743C69.9465 85.8295 75.1591 85.5643 80.1236 84.7538H80.1186ZM50.4363 46.4733C49.4484 46.4733 48.6491 45.6677 48.6491 44.672C48.6491 43.6764 49.4484 42.8708 50.4363 42.8708H112.447C113.435 42.8708 114.234 43.6764 114.234 44.672V57.6057C114.234 64.8255 111.687 70.7745 107.408 75.5076C102.732 80.6811 95.9998 84.3485 88.3149 86.585C87.3716 86.8602 86.3837 86.3148 86.1107 85.3592C85.8376 84.4085 86.3787 83.4129 87.3269 83.1377C94.4012 81.0763 100.562 77.7441 104.772 73.086C108.46 69.0033 110.66 63.8598 110.66 57.6057V46.4733H50.4363Z" fill="#189EC7"/>
<path d="M68.1593 44.3519C68.1593 45.3476 67.3601 46.1531 66.3722 46.1531C65.3842 46.1531 64.585 45.3476 64.585 44.3519V5.84123C64.585 4.84556 65.3842 4.04003 66.3722 4.04003C66.397 4.04003 66.4218 4.04003 66.4417 4.04003C86.905 3.18946 98.8147 6.91695 105.68 14.1768C112.606 21.4967 114.234 32.1538 114.234 45.2025C114.234 46.1981 113.435 47.0037 112.447 47.0037C111.459 47.0037 110.66 46.1981 110.66 45.2025C110.66 33.0043 109.225 23.1278 103.099 16.6534C97.1168 10.3292 86.4979 7.01201 68.1544 7.57238V44.3519H68.1593Z" fill="#189EC7"/>
<path d="M5.64754 16.4584C4.65962 16.4584 3.86035 15.6528 3.86035 14.6572C3.86035 13.6615 4.65962 12.856 5.64754 12.856H18.148C20.6699 12.856 22.2337 13.1111 23.6882 13.8816C25.0833 14.6221 26.1556 15.7429 27.7789 17.5291L107.046 103.021C107.716 103.747 107.676 104.887 106.956 105.563C106.237 106.238 105.105 106.198 104.435 105.473L25.1676 19.9757L25.1577 19.9607C23.8024 18.4697 22.9287 17.5441 22.0202 17.0588C21.1663 16.6035 20.0593 16.4534 18.138 16.4534H5.64754V16.4584Z" fill="#189EC7"/>
<path d="M68.5961 64.1301C69.3159 63.4547 70.4478 63.4947 71.118 64.2202C71.7882 64.9457 71.7485 66.0864 71.0286 66.7619L31.3629 103.917C30.6431 104.592 29.5112 104.552 28.841 103.827C28.1708 103.101 28.2105 101.96 28.9303 101.285L68.5961 64.1301Z" fill="#189EC7"/>
<path d="M34.9724 98.4479C34.2625 97.7625 34.2426 96.6217 34.9227 95.9062C35.6029 95.1907 36.7347 95.1707 37.4447 95.8562C38.5418 96.9169 39.4304 98.2028 40.0361 99.6337C40.6219 101.02 40.9446 102.541 40.9446 104.127C40.9446 107.294 39.6687 110.161 37.6085 112.237C35.5482 114.313 32.7036 115.599 29.5612 115.599C26.4187 115.599 23.5741 114.313 21.5138 112.237C19.4536 110.161 18.1777 107.294 18.1777 104.127C18.1777 100.96 19.4536 98.0927 21.5138 96.0163C23.5741 93.9399 26.4187 92.6541 29.5612 92.6541L29.9384 92.6641C30.1221 92.6691 30.2462 92.6741 30.3157 92.6791C31.2987 92.7391 32.0434 93.5947 31.9838 94.5853C31.9242 95.576 31.0753 96.3265 30.0923 96.2665C29.9484 96.2565 29.859 96.2514 29.8243 96.2514C29.7895 96.2514 29.7697 96.2514 29.5562 96.2514C27.4016 96.2514 25.4456 97.132 24.0358 98.558C22.6209 99.9839 21.7472 101.95 21.7472 104.122C21.7472 106.293 22.6209 108.264 24.0358 109.685C25.4506 111.106 27.4016 111.992 29.5562 111.992C31.7107 111.992 33.6667 111.111 35.0766 109.685C36.4915 108.259 37.3652 106.293 37.3652 104.122C37.3652 103.021 37.1468 101.975 36.7496 101.04C36.3326 100.054 35.722 99.1734 34.9674 98.4429" fill="#189EC7"/>
<path d="M41.4808 93.2696C40.8205 92.5341 40.8801 91.4033 41.6049 90.7379C42.3347 90.0724 43.4566 90.1325 44.1169 90.863C45.7204 92.6492 47.0062 94.7356 47.8799 97.0271C48.7288 99.2436 49.1905 101.64 49.1905 104.132C49.1905 109.595 46.9913 114.544 43.4368 118.126C39.8822 121.709 34.9724 123.925 29.5513 123.925C24.1301 123.925 19.2203 121.709 15.6658 118.126C12.1113 114.544 9.91699 109.595 9.91699 104.132C9.91699 98.6682 12.1162 93.7199 15.6658 90.1375C19.2203 86.5551 24.1301 84.3386 29.5513 84.3386C31.0356 84.3386 32.4902 84.5087 33.91 84.834C35.3497 85.1642 36.7348 85.6545 38.0454 86.2899C38.934 86.7152 39.3064 87.7859 38.8844 88.6815C38.4624 89.5771 37.3951 89.9524 36.5114 89.5271C35.449 89.0117 34.3171 88.6115 33.1306 88.3413C31.9938 88.0811 30.7973 87.946 29.5562 87.946C25.123 87.946 21.1068 89.7572 18.1976 92.6892C15.2935 95.6161 13.4914 99.6638 13.4914 104.137C13.4914 108.61 15.2885 112.652 18.1976 115.584C21.1018 118.511 25.118 120.328 29.5562 120.328C33.9944 120.328 38.0057 118.516 40.9148 115.584C43.819 112.652 45.6211 108.61 45.6211 104.137C45.6211 102.07 45.2438 100.109 44.5587 98.3129C43.8438 96.4417 42.7914 94.7356 41.4758 93.2746" fill="#189EC7"/>
<path d="M94.069 91.5785C93.3045 92.2039 92.1826 92.0888 91.562 91.3183C90.9415 90.5478 91.0556 89.417 91.8202 88.7916C93.5428 87.3757 95.5087 86.2449 97.6434 85.4794C99.7037 84.7389 101.918 84.3386 104.221 84.3386C109.642 84.3386 114.552 86.5551 118.107 90.1375C121.661 93.7199 123.856 98.6682 123.856 104.132C123.856 109.595 121.656 114.544 118.107 118.126C114.552 121.709 109.642 123.925 104.221 123.925C98.8001 123.925 93.8903 121.709 90.3358 118.126C86.7813 114.544 84.582 109.595 84.582 104.132C84.582 102.341 84.8253 100.584 85.282 98.9033C85.7536 97.1722 86.4437 95.5411 87.3174 94.0501C87.8188 93.1945 88.911 92.9143 89.7599 93.4147C90.6088 93.92 90.8868 95.0207 90.3904 95.8763C89.6606 97.1121 89.0947 98.443 88.7174 99.839C88.35 101.185 88.1564 102.621 88.1564 104.122C88.1564 108.59 89.9535 112.637 92.8627 115.569C95.7669 118.496 99.7831 120.313 104.221 120.313C108.659 120.313 112.671 118.501 115.58 115.569C118.484 112.642 120.286 108.595 120.286 104.122C120.286 99.6488 118.489 95.6061 115.58 92.6742C112.676 89.7472 108.659 87.931 104.221 87.931C102.325 87.931 100.508 88.2612 98.8299 88.8616C97.0824 89.4871 95.474 90.4077 94.069 91.5684" fill="#189EC7"/>
<path d="M99.5696 97.8026C98.7802 98.393 97.6632 98.2279 97.0774 97.4274C96.4916 96.6268 96.6554 95.5061 97.4498 94.9157C98.4178 94.1902 99.5001 93.6148 100.657 93.2346C101.784 92.8593 102.98 92.6592 104.226 92.6592C107.369 92.6592 110.213 93.945 112.274 96.0214C114.334 98.0978 115.61 100.965 115.61 104.132C115.61 107.299 114.334 110.166 112.274 112.242C110.213 114.319 107.369 115.604 104.226 115.604C101.084 115.604 98.2391 114.319 96.1789 112.242C94.1186 110.166 92.8428 107.299 92.8428 104.132C92.8428 103.606 92.8825 103.066 92.957 102.521C93.0314 101.99 93.1456 101.46 93.2945 100.94C93.5676 99.9891 94.5555 99.4387 95.4987 99.7139C96.442 99.9891 96.9881 100.985 96.715 101.935C96.6157 102.276 96.5413 102.636 96.4867 103.011C96.437 103.356 96.4122 103.732 96.4122 104.127C96.4122 106.298 97.2859 108.27 98.7008 109.691C100.116 111.116 102.067 111.997 104.221 111.997C106.376 111.997 108.332 111.116 109.742 109.691C111.157 108.265 112.03 106.298 112.03 104.127C112.03 101.955 111.157 99.9841 109.742 98.5631C108.327 97.1372 106.376 96.2566 104.221 96.2566C103.362 96.2566 102.538 96.3967 101.769 96.6518C100.965 96.922 100.22 97.3123 99.5646 97.8026" fill="#189EC7"/>
<path d="M97.9188 10.4408L66.7432 41.8608L69.2706 44.4081L100.446 12.9881L97.9188 10.4408Z" fill="#189EC7"/>
</g>
<defs>
<clipPath id="clip0_5318_661">
<rect width="120" height="120" fill="white" transform="translate(3.86035 3.91992)"/>
</clipPath>
</defs>
</svg>
