<svg width="128" height="128" viewBox="0 0 128 128" fill="none" xmlns="http://www.w3.org/2000/svg">
<g clip-path="url(#clip0_5320_788)">
<path d="M40.563 5.67919H35.8465L35.7957 5.67409C34.5149 5.63842 33.407 5.63332 32.2889 5.9187C31.1758 6.19898 29.956 6.78501 28.3754 7.94689L28.3551 7.96218L3.74108 25.4617L14.8461 51.0179L23.3794 48.47C23.5726 48.3986 23.7809 48.3629 23.9995 48.3629C25.0109 48.3629 25.8291 49.1834 25.8291 50.1975V84.5188C25.8291 94.94 29.8239 104.408 36.2684 111.262C42.6824 118.091 51.5206 122.326 61.2331 122.326H66.7627C76.4802 122.326 85.3185 118.086 91.7274 111.262C98.1668 104.403 102.167 94.94 102.167 84.5188V50.1975C102.167 50.0242 102.192 49.851 102.243 49.6726C102.533 48.7044 103.549 48.1489 104.515 48.4394L113.15 51.0128L124.255 25.4566L99.6915 7.98766C99.6915 7.98766 99.6458 7.95708 99.6204 7.9367C98.0397 6.77482 96.82 6.18878 95.7069 5.90851C94.6295 5.63842 93.5672 5.62823 92.3525 5.6588C92.2865 5.6639 92.2153 5.669 92.1492 5.669H40.5579L40.563 5.67919ZM35.8465 2.0101H92.1543C92.1899 2.0101 92.2255 2.0101 92.2611 2.0101C93.7705 1.96933 95.1072 1.97952 96.6014 2.35662C98.1516 2.74901 99.783 3.51341 101.791 4.98614L101.811 5.00143L126.649 22.6589C127.279 23.1074 127.711 23.7597 127.899 24.4731C128.082 25.1712 128.036 25.9356 127.731 26.644L116.336 52.8627C116.021 53.5863 115.472 54.1418 114.817 54.4628C114.136 54.7991 113.353 54.8807 112.586 54.6514H112.58L105.836 52.6385V84.5035C105.836 95.8879 101.455 106.243 94.4007 113.759C87.3159 121.301 77.5374 125.985 66.7729 125.985H61.2432C50.4787 125.985 40.7002 121.301 33.6154 113.759C26.5559 106.243 22.18 95.8879 22.18 84.5035V52.6385L15.4357 54.6514C15.395 54.6616 15.3543 54.6717 15.3137 54.6819C14.5869 54.8705 13.8449 54.7788 13.1994 54.4628C12.5438 54.1418 11.9949 53.5863 11.6798 52.8627L0.279973 26.6542C-0.0300527 25.9458 -0.0707118 25.1763 0.112254 24.4833C0.300303 23.7647 0.732306 23.1176 1.36252 22.6691L26.2154 4.99123C28.223 3.5185 29.8493 2.75411 31.3994 2.36172C32.9242 1.97443 34.2913 1.97443 35.8414 2.01519L35.8465 2.0101Z" fill="#189EC7"/>
<path d="M87.6814 2.42798C87.6814 8.98648 85.0283 14.9233 80.7439 19.2192C76.4594 23.5151 70.5385 26.1752 63.9974 26.1752C57.4564 26.1752 51.5354 23.5151 47.2509 19.2192C42.9665 14.9233 40.3135 8.98648 40.3135 2.42798H43.9728C43.9728 7.97238 46.2141 12.9919 49.8379 16.6253C53.4616 20.2587 58.4678 22.5061 63.9974 22.5061C69.5271 22.5061 74.5332 20.2587 78.157 16.6253C81.7807 12.9919 84.022 7.97238 84.022 2.42798H87.6814Z" fill="#189EC7"/>
<path d="M25.1934 90.1245C25.9303 90.0022 26.652 89.9156 27.3534 89.8544C28.0802 89.7933 28.8069 89.7627 29.5286 89.7627C36.8829 89.7627 43.5408 92.754 48.3589 97.585C53.177 102.416 56.1604 109.092 56.1604 116.466C56.1604 117.612 56.0841 118.774 55.9317 119.946C55.7792 121.118 55.5556 122.255 55.2659 123.35L51.7336 122.418C51.9928 121.449 52.1859 120.466 52.3181 119.472C52.4401 118.519 52.5061 117.515 52.5061 116.466C52.5061 110.106 49.9344 104.347 45.777 100.179C41.6196 96.0103 35.8765 93.4318 29.5337 93.4318C28.8832 93.4318 28.253 93.4573 27.6431 93.5082C26.9925 93.5592 26.3674 93.6356 25.7829 93.7324L25.1984 90.1194L25.1934 90.1245Z" fill="#189EC7"/>
<path d="M102.217 93.7376C101.628 93.6408 101.008 93.5643 100.357 93.5134C99.7475 93.4624 99.1172 93.4369 98.4667 93.4369C92.1239 93.4369 86.3808 96.0155 82.2234 100.184C78.066 104.352 75.4943 110.111 75.4943 116.471C75.4943 117.52 75.5604 118.524 75.6823 119.477C75.8094 120.471 76.0076 121.455 76.2668 122.423L72.7345 123.355C72.4448 122.26 72.2161 121.123 72.0688 119.951C71.9163 118.779 71.835 117.617 71.835 116.471C71.835 109.097 74.8183 102.421 79.6364 97.5901C84.4545 92.7592 91.1125 89.7678 98.4667 89.7678C99.1884 89.7678 99.9152 89.7984 100.642 89.8596C101.348 89.9156 102.07 90.0073 102.802 90.1296L102.217 93.7427V93.7376Z" fill="#189EC7"/>
<path fill-rule="evenodd" clip-rule="evenodd" d="M63.9972 33.2078C65.344 33.2078 66.4367 34.3034 66.4367 35.6538C66.4367 37.0043 65.344 38.0999 63.9972 38.0999C62.6503 38.0999 61.5576 37.0043 61.5576 35.6538C61.5576 34.3034 62.6503 33.2078 63.9972 33.2078Z" fill="#189EC7"/>
<path fill-rule="evenodd" clip-rule="evenodd" d="M63.9972 58.0708C65.344 58.0708 66.4367 59.1664 66.4367 60.5169C66.4367 61.8673 65.344 62.9629 63.9972 62.9629C62.6503 62.9629 61.5576 61.8673 61.5576 60.5169C61.5576 59.1664 62.6503 58.0708 63.9972 58.0708Z" fill="#189EC7"/>
<path fill-rule="evenodd" clip-rule="evenodd" d="M63.9972 45.6418C65.344 45.6418 66.4367 46.7375 66.4367 48.0879C66.4367 49.4383 65.344 50.534 63.9972 50.534C62.6503 50.534 61.5576 49.4383 61.5576 48.0879C61.5576 46.7375 62.6503 45.6418 63.9972 45.6418Z" fill="#189EC7"/>
</g>
<defs>
<clipPath id="clip0_5320_788">
<rect width="128" height="124" fill="white" transform="translate(0 2)"/>
</clipPath>
</defs>
</svg>
