<svg width="128" height="128" viewBox="0 0 128 128" fill="none" xmlns="http://www.w3.org/2000/svg">
<g clip-path="url(#clip0_5327_770)">
<path d="M53.0754 33.9948C52.8187 33.9948 52.5406 33.9948 52.2839 33.952C37.203 31.877 34.2083 12.6462 34.1013 11.812C33.9729 10.9349 34.5719 10.1221 35.4489 9.99372C36.326 9.86537 37.1389 10.4643 37.2672 11.3414C37.2886 11.5125 40.0267 29.032 52.7117 30.7647C53.5674 30.893 54.4872 30.5508 55.1076 29.8662L60.3484 24.1334C46.5082 21.652 44.4119 4.21807 44.3905 4.02555C44.2836 3.1485 44.9253 2.35703 45.8023 2.25007C46.6794 2.1645 47.4709 2.78485 47.5778 3.6619C47.6634 4.36781 49.7169 21.2028 63.7069 21.2028C64.3486 21.2028 64.9262 21.5878 65.1829 22.1654C65.4396 22.7429 65.3326 23.4275 64.9048 23.8981L57.4606 32.0268C56.3055 33.2888 54.7011 33.9948 53.054 33.9948H53.0754Z" fill="#189EC7"/>
<path d="M31.3421 53.7603C31.3421 53.7603 31.1495 53.7603 31.064 53.7389C30.1869 53.5892 29.6094 52.7549 29.7591 51.8779C33.4384 31.1711 21.6732 21.6092 21.1812 21.2241C20.4967 20.6679 20.3683 19.6626 20.9031 18.978C21.4379 18.2721 22.4433 18.1652 23.1492 18.6999C23.7054 19.1492 36.9252 29.7593 32.9036 52.4554C32.7753 53.2255 32.0908 53.7817 31.3207 53.7817L31.3421 53.7603Z" fill="#189EC7"/>
<path d="M28.6469 100.051C28.2404 100.051 27.8126 99.9013 27.5131 99.5804C26.8928 98.96 26.8928 97.9333 27.5131 97.3129L43.3641 81.6545C43.9844 81.0341 45.0112 81.0341 45.6315 81.6545C46.2519 82.2748 46.2519 83.3016 45.6315 83.922L29.7806 99.5804C29.4597 99.8799 29.0533 100.051 28.6469 100.051Z" fill="#189EC7"/>
<path d="M55.0221 125.25C54.744 125.25 54.4445 125.25 54.1664 125.186L29.6092 121.635C27.9621 121.4 26.5503 120.523 25.5876 119.196C24.6464 117.87 24.3042 116.266 24.625 114.661C28.6038 94.361 29.5023 66.1672 29.7162 56.0063L24.5823 60.9905C22.272 63.2366 18.5071 63.2366 16.1969 60.9477L4.00382 48.9472C1.86469 46.8509 1.65078 43.471 3.51182 41.118L20.903 18.9566C21.0313 18.7855 21.2024 18.6357 21.395 18.5502C34.3581 11.4697 44.8826 2.72061 44.9896 2.61365C45.2676 2.37835 45.6527 2.25 46.0163 2.25H81.4831C81.8682 2.25 82.2318 2.37835 82.5099 2.61365C82.6169 2.69922 93.1414 11.4483 106.083 18.5288C106.276 18.6357 106.447 18.7855 106.575 18.9352L123.988 41.0966C125.827 43.4496 125.613 46.8081 123.496 48.9258L111.345 60.9263C109.057 63.1938 105.292 63.2152 102.96 60.9691L97.8261 55.985C98.04 66.1672 98.9384 94.3396 102.917 114.64C103.238 116.244 102.874 117.849 101.955 119.175C101.013 120.523 99.5802 121.378 97.933 121.613L73.3758 125.164C71.0014 125.507 68.6911 124.437 67.429 122.426L63.7711 116.565L60.1132 122.426C59.0223 124.18 57.0756 125.229 55.0435 125.229L55.0221 125.25ZM31.3419 50.5516C31.5558 50.5516 31.7697 50.5943 31.9623 50.6799C32.5612 50.9366 32.9463 51.5142 32.9463 52.1559C32.9463 52.541 32.711 89.8902 27.7482 115.26C27.5984 115.988 27.7482 116.715 28.1974 117.314C28.6252 117.934 29.2883 118.341 30.0584 118.448L54.6156 121.999C55.7066 122.148 56.7976 121.656 57.3751 120.736L62.3807 112.693C62.9583 111.752 64.5198 111.752 65.0974 112.693L70.103 120.736C70.6805 121.656 71.7715 122.17 72.8624 121.999L97.4197 118.448C98.1897 118.341 98.8529 117.934 99.2807 117.314C99.7085 116.715 99.8583 115.988 99.7299 115.26C94.7671 89.8902 94.5318 52.5196 94.5318 52.1559C94.5318 51.5142 94.9169 50.9152 95.5158 50.6799C96.1148 50.4232 96.7993 50.5516 97.2699 51.0008L105.185 58.6803C106.254 59.7284 108.008 59.7284 109.078 58.6803L121.228 46.6797C122.191 45.7171 122.298 44.1983 121.463 43.1288L104.265 21.2241C92.6922 14.8495 83.0661 7.23417 80.9056 5.48009H46.5939C44.4334 7.23417 34.8073 14.8709 23.2346 21.2241L6.036 43.1074C5.20174 44.177 5.2873 45.7171 6.2713 46.6583L18.4216 58.6589C19.4911 59.707 21.2452 59.7284 22.3148 58.6589L30.2296 50.9794C30.529 50.6799 30.9355 50.5302 31.3419 50.5302V50.5516Z" fill="#189EC7"/>
<path d="M96.4147 65.5468H31.0643C30.1873 65.5468 29.46 64.8195 29.46 63.9425C29.46 63.0654 30.1873 62.3381 31.0643 62.3381H96.4147C97.2918 62.3381 98.0191 63.0654 98.0191 63.9425C98.0191 64.8195 97.2918 65.5468 96.4147 65.5468Z" fill="#189EC7"/>
<path d="M96.8205 74.5954H30.6786C29.8015 74.5954 29.0742 73.8681 29.0742 72.9911C29.0742 72.114 29.8015 71.3867 30.6786 71.3867H96.7991C97.6761 71.3867 98.4034 72.114 98.4034 72.9911C98.4034 73.8681 97.6761 74.5954 96.7991 74.5954H96.8205Z" fill="#189EC7"/>
<path d="M74.4025 33.9946C72.7553 33.9946 71.151 33.2887 69.9958 32.0266L62.5517 23.8979C62.1238 23.4273 62.0169 22.7428 62.2736 22.1652C62.5303 21.5877 63.1078 21.2026 63.7496 21.2026C77.7395 21.2026 79.7931 4.38907 79.8786 3.66176C79.9856 2.78472 80.7771 2.14298 81.6541 2.24994C82.5311 2.35689 83.1729 3.14837 83.0659 4.02541C83.0659 4.21794 80.9482 21.6518 67.108 24.1332L72.3489 29.8661C72.9692 30.5292 73.8891 30.8715 74.7447 30.7645C87.4298 29.0319 90.1678 11.5124 90.1892 11.3412C90.3176 10.4642 91.1304 9.86524 92.0075 9.99359C92.8845 10.1219 93.4835 10.9348 93.3551 11.8118C93.2268 12.6247 90.2534 31.8769 75.1725 33.9519C74.9158 33.9946 74.6378 33.9946 74.3811 33.9946H74.4025Z" fill="#189EC7"/>
<path d="M96.1575 53.7602C95.3874 53.7602 94.7243 53.204 94.5745 52.434C90.553 29.7378 103.773 19.1277 104.329 18.6785C105.035 18.1223 106.04 18.2507 106.575 18.9566C107.11 19.6625 107.003 20.6679 106.297 21.2027C105.784 21.6091 94.0398 31.171 97.7191 51.8564C97.8688 52.7334 97.2912 53.5677 96.4142 53.7174C96.3286 53.7174 96.2217 53.7388 96.1361 53.7388L96.1575 53.7602Z" fill="#189EC7"/>
<path d="M98.8535 100.051C98.4471 100.051 98.0406 99.9014 97.7198 99.5806L81.8688 83.9221C81.2485 83.3018 81.2271 82.275 81.8688 81.6546C82.4892 81.0129 83.5159 81.0129 84.1363 81.6546L99.9873 97.3131C100.608 97.9334 100.629 98.9602 99.9873 99.5806C99.6664 99.9014 99.26 100.051 98.8535 100.051Z" fill="#189EC7"/>
<path d="M63.7499 115.153C62.8728 115.153 62.1455 114.426 62.1455 113.549V97.8692C62.1455 96.9922 62.8728 96.2649 63.7499 96.2649C64.6269 96.2649 65.3542 96.9922 65.3542 97.8692V113.549C65.3542 114.426 64.6269 115.153 63.7499 115.153Z" fill="#189EC7"/>
</g>
<defs>
<clipPath id="clip0_5327_770">
<rect width="123" height="123" fill="white" transform="translate(2.25 2.25)"/>
</clipPath>
</defs>
</svg>
