<svg width="128" height="128" viewBox="0 0 128 128" fill="none" xmlns="http://www.w3.org/2000/svg">
<g clip-path="url(#clip0_5320_1098)">
<path d="M83.1855 9.93605C84.5604 8.33326 86.2894 7.02095 88.2528 6.12359C90.1432 5.25736 92.2472 4.76978 94.4501 4.76978C98.5174 4.76978 102.205 6.40369 104.881 9.04389C107.558 11.6841 109.214 15.3306 109.214 19.3557C109.214 22.9244 107.912 26.1974 105.751 28.7338C103.559 31.3066 100.481 33.1221 96.9811 33.7186C96.554 33.7912 96.1322 33.8483 95.7208 33.8794C95.2937 33.9157 94.8719 33.9312 94.4553 33.9312V30.1966C94.7834 30.1966 95.1062 30.181 95.4135 30.1551C95.7416 30.1292 96.0541 30.0877 96.3561 30.0358C98.9705 29.5897 101.262 28.2359 102.897 26.3167C104.501 24.4338 105.47 22.0011 105.47 19.3453C105.47 16.3472 104.241 13.6344 102.251 11.6737C100.262 9.70783 97.5071 8.49406 94.4553 8.49406C92.7888 8.49406 91.2108 8.85197 89.8099 9.49516C88.3517 10.1643 87.0602 11.1446 86.029 12.348L83.1855 9.92568V9.93605Z" fill="#189EC7"/>
<path d="M33.5448 33.9418C33.2583 33.9418 32.9355 33.9314 32.5813 33.9055C32.2949 33.8847 31.9772 33.8536 31.6231 33.8121C27.9776 33.3453 24.754 31.5661 22.4469 28.9726C20.1607 26.3999 18.7754 23.0387 18.7754 19.3611C18.7754 15.3359 20.4315 11.6895 23.1083 9.04926C25.7851 6.40906 29.4723 4.77515 33.5396 4.77515C35.8206 4.77515 37.987 5.29385 39.9348 6.22233C41.9502 7.18193 43.7052 8.57205 45.0801 10.2786L42.1637 12.6127C41.1326 11.3367 39.8202 10.2941 38.3203 9.57833C36.883 8.89365 35.2634 8.50981 33.5344 8.50981C30.4826 8.50981 27.7276 9.72357 25.7382 11.6895C23.7489 13.6502 22.5198 16.363 22.5198 19.3611C22.5198 22.105 23.5458 24.6052 25.2383 26.5088C26.9621 28.4487 29.3681 29.7766 32.0866 30.1242C32.2897 30.1501 32.5292 30.1708 32.8105 30.1916C33.0136 30.202 33.2583 30.2123 33.5396 30.2123V33.947L33.5448 33.9418Z" fill="#189EC7"/>
<path d="M91.8101 24.0708C87.4303 13.9146 77.6865 5.73466 64.0003 5.73466C50.3142 5.73466 40.5703 13.9146 36.1906 24.0708C34.5657 27.8418 33.67 31.8721 33.5866 35.8454C33.5033 39.7979 34.2116 43.7089 35.7948 47.262C39.6277 55.888 48.6737 62.4341 64.0055 62.4341C79.3374 62.4341 88.3833 55.888 92.2163 47.262C93.7943 43.7089 94.5077 39.7979 94.4244 35.8454C94.3411 31.8721 93.4454 27.8418 91.8205 24.0708M64.0003 2C79.3842 2 90.3311 11.1862 95.2525 22.5925C97.0596 26.7888 98.0543 31.2963 98.148 35.7676C98.2417 40.2647 97.4345 44.71 95.6326 48.7611C91.2372 58.6579 81.0664 66.1635 63.9951 66.1635C46.9239 66.1635 36.753 58.6579 32.3576 48.7611C30.5609 44.71 29.7485 40.2647 29.8422 35.7676C29.936 31.2911 30.9307 26.7836 32.7378 22.5925C37.6696 11.1862 48.6112 2 64.0003 2Z" fill="#189EC7"/>
<path d="M32.6643 96.9537C31.5029 96.6114 30.1749 96.7099 28.9563 97.3272C27.7429 97.9444 26.8836 98.9559 26.4774 100.097C26.0816 101.202 26.1128 102.421 26.6649 103.505C27.2169 104.584 28.1908 105.331 29.3209 105.663C30.4822 106.005 31.8102 105.907 33.0288 105.289C34.2423 104.672 35.1016 103.661 35.5078 102.525C35.9036 101.42 35.8723 100.201 35.3203 99.1167C34.7682 98.0378 33.7944 97.2909 32.6643 96.9589M27.2586 94.0075C29.3521 92.9442 31.6696 92.7834 33.7215 93.385C35.8098 93.9971 37.6221 95.3924 38.6585 97.4206C39.7001 99.4539 39.7678 101.736 39.0387 103.775C38.32 105.777 36.8253 107.551 34.7266 108.614C32.633 109.678 30.3156 109.838 28.2637 109.237C26.1753 108.625 24.363 107.234 23.3267 105.201C22.2851 103.168 22.2174 100.885 22.9465 98.847C23.6652 96.8448 25.1598 95.0708 27.2586 94.0075Z" fill="#189EC7"/>
<path d="M23.4257 86.5175C30.8885 82.731 38.1586 85.1429 43.4081 90.2729C45.3714 92.1921 47.0483 94.5055 48.3347 97.0108C49.6262 99.5266 50.522 102.234 50.923 104.937C51.9906 112.11 49.6627 119.3 42.1478 123.117C34.6329 126.93 27.4253 124.575 22.2227 119.497C20.2593 117.577 18.5876 115.264 17.3065 112.759C16.0254 110.253 15.1348 107.541 14.7338 104.828C13.6558 97.5866 15.9681 90.3092 23.4309 86.5227L23.4257 86.5175ZM25.1234 89.8424C19.3427 92.7731 17.5721 98.5255 18.4314 104.283C18.7751 106.602 19.5406 108.925 20.6395 111.078C21.7383 113.231 23.1653 115.207 24.837 116.841C28.9564 120.861 34.6121 122.754 40.4448 119.792C46.2724 116.836 48.0587 111.161 47.215 105.476C46.8713 103.157 46.1057 100.844 45.0069 98.707C43.9028 96.5596 42.4655 94.5781 40.7833 92.9338C36.6171 88.862 30.9041 86.9117 25.1234 89.8476V89.8424Z" fill="#189EC7"/>
<path d="M71.0205 30.6221C73.9004 31.8514 76.3324 33.8121 78.0302 36.2448C79.6967 38.6308 80.6601 41.4578 80.6601 44.4974C80.6601 48.7559 78.7697 52.5995 75.7127 55.3746C72.7026 58.1081 68.5624 59.7991 63.9951 59.7991C59.4278 59.7991 55.2876 58.1081 52.2775 55.3746C49.2205 52.5995 47.3301 48.7507 47.3301 44.4974C47.3301 41.437 48.3091 38.5893 49.9965 36.1929C51.7151 33.755 54.1732 31.7995 57.0791 30.5806L58.5269 34.0092C56.2771 34.9532 54.3763 36.4627 53.0535 38.3404C51.7984 40.1195 51.0745 42.2306 51.0745 44.5026C51.0745 47.6666 52.4962 50.5351 54.7929 52.6254C57.1364 54.7521 60.3861 56.0696 63.9899 56.0696C67.5937 56.0696 70.8434 54.7521 73.1869 52.6254C75.4836 50.5403 76.9053 47.6666 76.9053 44.5026C76.9053 42.2514 76.1866 40.1506 74.9472 38.3767C73.6452 36.5093 71.7704 35.0051 69.5466 34.0559L71.01 30.6272L71.0205 30.6221Z" fill="#189EC7"/>
<path d="M66.9843 30.0099C66.2239 29.2474 65.1667 28.7806 64.0002 28.7806C62.8336 28.7806 61.7817 29.2526 61.0161 30.0099C60.2506 30.7672 59.7819 31.8202 59.7819 32.9821C59.7819 34.1439 60.2558 35.1917 61.0161 35.9542C61.7817 36.7115 62.8336 37.1835 64.0002 37.1835C65.1667 37.1835 66.2187 36.7115 66.9843 35.9542C67.7446 35.1917 68.2185 34.1439 68.2185 32.9821C68.2185 31.8202 67.7446 30.7724 66.9843 30.0099ZM64.0002 25.0459C66.1979 25.0459 68.1925 25.9329 69.6351 27.3697C71.0776 28.8065 71.9682 30.7879 71.9682 32.9821C71.9682 35.1762 71.0776 37.1576 69.6351 38.5944C68.1925 40.0312 66.2031 40.9182 64.0002 40.9182C61.7973 40.9182 59.8079 40.0312 58.3653 38.5944C56.9228 37.1576 56.0322 35.1762 56.0322 32.9821C56.0322 30.7879 56.9228 28.8065 58.3653 27.3697C59.8079 25.9329 61.7973 25.0459 64.0002 25.0459Z" fill="#189EC7"/>
<path d="M67.9792 47.9053C68.5312 47.0338 69.6925 46.7797 70.5622 47.3295C71.4372 47.8793 71.6975 49.036 71.1403 49.9023C70.4216 51.0279 69.3592 51.9719 68.0781 52.6151C66.8751 53.222 65.4794 53.5695 64.0004 53.5695C62.5214 53.5695 61.1257 53.222 59.9227 52.6151C58.6415 51.9667 57.5791 51.0279 56.8605 49.9023C56.3084 49.0309 56.5636 47.8793 57.4385 47.3295C58.3134 46.7797 59.4696 47.0338 60.0216 47.9053C60.3809 48.4707 60.933 48.953 61.6048 49.2902C62.2922 49.6377 63.1098 49.8348 64.0004 49.8348C64.8909 49.8348 65.7085 49.6377 66.396 49.2902C67.073 48.9479 67.6198 48.4707 67.9792 47.9053Z" fill="#189EC7"/>
<path fill-rule="evenodd" clip-rule="evenodd" d="M48.7931 24.3716C50.1158 24.3716 51.1887 25.4401 51.1887 26.7576C51.1887 28.0751 50.1158 29.1436 48.7931 29.1436C47.4703 29.1436 46.3975 28.0751 46.3975 26.7576C46.3975 25.4401 47.4703 24.3716 48.7931 24.3716Z" fill="#189EC7"/>
<path fill-rule="evenodd" clip-rule="evenodd" d="M79.2071 24.3716C80.5299 24.3716 81.6027 25.4401 81.6027 26.7576C81.6027 28.0751 80.5299 29.1436 79.2071 29.1436C77.8843 29.1436 76.8115 28.0751 76.8115 26.7576C76.8115 25.4401 77.8843 24.3716 79.2071 24.3716Z" fill="#189EC7"/>
<path d="M33.6588 49.9075C24.8836 54.1193 19.0821 61.2982 16.4261 69.7219C13.6451 78.5295 14.2805 88.7116 18.5196 98.3076L15.0929 99.8119C10.484 89.3756 9.80694 78.2649 12.8535 68.6171C15.8116 59.2389 22.2693 51.2405 32.0339 46.5566L33.6588 49.9126V49.9075Z" fill="#189EC7"/>
<path d="M29.3265 85.8431C28.436 79.8884 28.6495 74.2293 29.9567 68.8711C31.269 63.5077 33.6751 58.4711 37.1747 53.7561L40.1744 55.971C36.9716 60.2814 34.7739 64.8719 33.5865 69.7425C32.3939 74.6183 32.2117 79.8054 33.0293 85.2984L29.3213 85.8379L29.3265 85.8431Z" fill="#189EC7"/>
<path d="M95.9657 46.5513C105.73 51.2352 112.188 59.2336 115.146 68.6118C118.193 78.2648 117.516 89.3702 112.907 99.8065L109.48 98.3023C113.719 88.7063 114.354 78.5242 111.573 69.7166C108.918 61.2929 103.116 54.114 94.3408 49.9022L95.9657 46.5461V46.5513Z" fill="#189EC7"/>
<path d="M94.9658 85.3036C95.7834 79.8105 95.6011 74.6235 94.4085 69.7477C93.2159 64.877 91.0234 60.2865 87.8154 55.9761L90.8151 53.7612C94.32 58.4711 96.726 63.5128 98.0332 68.8762C99.3403 74.2344 99.5539 79.8935 98.6633 85.8482L94.9554 85.3087L94.9658 85.3036Z" fill="#189EC7"/>
<path d="M94.4141 93.3799C96.4659 92.7782 98.7782 92.939 100.877 94.0024C102.976 95.0657 104.47 96.8397 105.189 98.8419C105.918 100.88 105.85 103.157 104.809 105.196C103.767 107.229 101.955 108.625 99.8719 109.231C97.82 109.833 95.5077 109.672 93.409 108.609C91.3102 107.546 89.8156 105.772 89.0969 103.77C88.3678 101.731 88.4355 99.4539 89.4771 97.4154C90.5186 95.3821 92.3257 93.9868 94.4141 93.3799ZM99.1792 97.3324C97.9606 96.7152 96.6326 96.6166 95.4713 96.959C94.3464 97.2858 93.3725 98.0327 92.8153 99.1168C92.2632 100.196 92.232 101.42 92.6278 102.525C93.034 103.666 93.8933 104.677 95.1067 105.289C96.3253 105.907 97.6533 106.005 98.8147 105.663C99.9396 105.336 100.913 104.589 101.471 103.505C102.023 102.426 102.054 101.202 101.658 100.097C101.252 98.956 100.393 97.9445 99.1792 97.3273V97.3324Z" fill="#189EC7"/>
<path d="M84.7272 90.2729C89.9767 85.1429 97.2468 82.731 104.71 86.5175C112.172 90.304 114.49 97.5814 113.407 104.823C113 107.535 112.11 110.248 110.829 112.753C109.548 115.264 107.876 117.577 105.913 119.491C100.71 124.57 93.5024 126.93 85.9875 123.112C78.4674 119.294 76.1447 112.105 77.2123 104.931C77.6133 102.229 78.509 99.5214 79.8006 97.0057C81.0869 94.5003 82.7638 92.1869 84.7272 90.2677M103.012 89.8424C97.2312 86.9065 91.5182 88.8568 87.3519 92.9287C85.6646 94.5729 84.2272 96.5544 83.1284 98.7018C82.0295 100.844 81.264 103.157 80.9203 105.471C80.0766 111.156 81.8629 116.83 87.6904 119.787C93.5232 122.749 99.1789 120.856 103.298 116.836C104.97 115.202 106.402 113.225 107.496 111.073C108.595 108.92 109.36 106.596 109.704 104.278C110.563 98.5203 108.793 92.773 103.012 89.8372V89.8424Z" fill="#189EC7"/>
<path d="M46.179 115.902C51.9492 116.986 57.756 117.525 63.5939 117.525C69.4319 117.525 75.2803 116.986 81.1182 115.902L81.79 119.564C75.6865 120.695 69.6194 121.26 63.5887 121.26C57.5581 121.26 51.517 120.695 45.4863 119.564L46.1738 115.902H46.179Z" fill="#189EC7"/>
</g>
<defs>
<clipPath id="clip0_5320_1098">
<rect width="106" height="123" fill="white" transform="translate(11 2)"/>
</clipPath>
</defs>
</svg>
