<svg width="128" height="128" viewBox="0 0 128 128" fill="none" xmlns="http://www.w3.org/2000/svg">
<g clip-path="url(#clip0_5327_709)">
<path d="M126.481 95.1069C122.752 79.914 114.119 66.3717 107.536 57.6838L107.344 57.4312C101.5 49.7572 96.314 44.5424 94.6279 42.9086V35.3964C95.5013 31.0002 97.093 26.7859 99.359 22.8681C100.516 20.8637 101.858 18.9469 103.345 17.1615C104.448 15.841 104.903 14.1195 104.596 12.4453C104.11 9.81094 102.799 7.73918 100.688 6.28727C96.1791 3.18804 89.5933 4.06054 88.1804 4.29298H78.091C77.2445 4.29298 76.4454 4.61638 75.8417 5.20591C69.7213 11.1416 60.0804 11.6065 53.4136 6.28727L51.8017 5.00041C51.2319 4.54564 50.5136 4.29298 49.7852 4.29298H40.6332C39.2405 4.06391 32.6345 3.18804 28.126 6.28727C26.0184 7.73581 24.7032 9.80758 24.2176 12.4453C23.9108 14.1195 24.366 15.8376 25.4687 17.1615C26.9558 18.9469 28.2979 20.8671 29.4546 22.8681C31.6903 26.7388 33.2752 30.9564 34.1587 35.3997V42.8446C32.0478 44.6267 25.5193 50.3602 18.7582 58.6136C11.245 67.7698 2.08292 81.8645 1.06453 96.9597C1.0207 97.4078 0.828484 99.7827 1.43547 102.437C2.24478 105.958 4.13655 108.41 6.9152 109.528C8.46301 110.152 10.2334 109.97 12.1049 109.781C13.8652 109.603 15.6828 109.414 17.0384 109.98C17.8342 110.313 18.6873 111.415 19.5911 112.584C20.8961 114.272 22.3765 116.188 24.6088 116.919C26.5377 117.553 28.5879 116.973 30.5741 116.414C32.1051 115.983 33.69 115.535 34.8264 115.811C35.7537 116.037 36.8058 117.027 37.922 118.078C39.517 119.577 41.1626 121.127 43.3916 121.484C45.4486 121.814 47.4112 120.905 49.3097 120.025C50.726 119.368 52.1929 118.691 53.3125 118.776C54.287 118.853 55.501 119.668 56.7858 120.534C58.5831 121.747 60.4445 123 62.687 123C64.7845 122.993 66.5818 121.774 68.3185 120.591C69.6033 119.719 70.9319 118.813 72.0346 118.718C73.0192 118.634 74.3512 119.244 75.7675 119.891C77.7402 120.793 79.7804 121.727 81.9757 121.359C84.0495 121.012 85.6209 119.517 87.1418 118.068C88.2681 116.997 89.4315 115.892 90.5004 115.622C91.4581 115.38 92.871 115.774 94.3717 116.188C96.459 116.764 98.6205 117.364 100.725 116.66C102.532 116.054 103.837 115.016 105.098 114.012C106.113 113.204 107.071 112.442 108.258 111.944C109.513 111.418 111.435 111.543 113.299 111.668C114.857 111.772 116.469 111.876 117.977 111.647C120.86 111.213 123.298 109.488 125.021 106.665C126.997 103.428 127.516 99.3246 126.481 95.1069ZM113.532 108.114C111.259 107.965 108.912 107.81 106.879 108.659C105.237 109.346 104.04 110.3 102.876 111.226C101.811 112.075 100.802 112.877 99.5917 113.281C98.5194 113.642 96.8974 113.19 95.3192 112.756C93.4409 112.237 91.4986 111.701 89.6304 112.169C87.651 112.668 86.1436 114.103 84.6835 115.488C83.4999 116.616 82.3803 117.681 81.3822 117.846C80.266 118.031 78.7283 117.33 77.2344 116.647C75.4708 115.838 73.6465 115.006 71.7311 115.168C69.6977 115.339 67.9779 116.512 66.3087 117.647C64.9565 118.567 63.6818 119.436 62.6668 119.439C61.5304 119.439 60.1309 118.496 58.772 117.58C57.1635 116.495 55.501 115.376 53.5924 115.225C53.4271 115.211 53.2619 115.205 53.0967 115.205C51.2352 115.205 49.4952 116.01 47.8091 116.795C46.3321 117.479 44.9394 118.125 43.9582 117.967C42.8116 117.782 41.5673 116.613 40.3635 115.481C38.9606 114.16 37.5072 112.796 35.6694 112.348C33.6259 111.853 31.5824 112.429 29.6063 112.985C28.0686 113.419 26.6186 113.827 25.7182 113.534C24.5279 113.143 23.4522 111.752 22.4102 110.404C21.2637 108.922 20.08 107.386 18.4108 106.692C16.2223 105.779 13.8416 106.022 11.7441 106.237C10.3851 106.375 8.97895 106.52 8.24719 106.227C3.9376 104.492 4.60191 97.3741 4.60865 97.2999L4.6154 97.2326C4.65923 96.5993 4.71656 95.9592 4.79749 95.2922C5.3539 95.7436 6.00135 96.158 6.76008 96.5521C8.38208 97.3943 10.284 97.1753 12.3005 96.9395C14.0001 96.7441 15.7603 96.5386 17.0384 97.0709C17.8342 97.4044 18.6873 98.506 19.5911 99.6749C20.8961 101.363 22.3765 103.279 24.6088 104.01C26.5377 104.644 28.5913 104.064 30.5741 103.505C32.1051 103.074 33.6934 102.626 34.8264 102.902C35.7537 103.128 36.8058 104.118 37.922 105.169C39.517 106.668 41.166 108.218 43.3916 108.575C45.4486 108.905 47.4079 107.996 49.3064 107.116C50.7227 106.459 52.1895 105.782 53.3091 105.867C54.2836 105.944 55.4976 106.759 56.7824 107.625C58.5798 108.838 60.4412 110.091 62.6836 110.091C64.7811 110.084 66.5751 108.865 68.3151 107.682C69.5999 106.806 70.9285 105.904 72.0312 105.809C73.0125 105.725 74.3479 106.335 75.7642 106.985C77.7369 107.888 79.777 108.821 81.9689 108.454C84.0428 108.107 85.6142 106.611 87.135 105.163C88.2613 104.091 89.4247 102.986 90.4937 102.717C91.4514 102.474 92.8643 102.868 94.3683 103.283C96.4556 103.859 98.6138 104.458 100.718 103.751C102.525 103.145 103.83 102.107 105.092 101.103C106.107 100.295 107.064 99.5334 108.251 99.0348C109.162 98.6542 110.625 98.8327 112.177 99.0247C114.318 99.2875 116.533 99.5604 118.509 98.57C120.118 97.7581 120.863 96.3533 121.585 94.9924C121.834 94.5241 122.087 94.0424 122.384 93.5674C122.617 94.3826 122.822 95.1675 123.015 95.9491C123.824 99.237 123.453 102.383 121.973 104.809L121.922 104.893C120.755 106.766 119.245 107.854 117.437 108.127C116.307 108.299 114.955 108.208 113.525 108.114H113.532ZM21.0849 60.5809L21.4761 60.9009C27.7618 53.2203 34.0407 47.6248 36.1685 45.8023C36.4821 45.9438 36.8025 46.0853 37.1363 46.2302C33.4708 49.8482 27.5257 57.5895 24.8718 71.4417C24.6864 72.4051 25.3203 73.3382 26.2848 73.5235C26.396 73.5437 26.5107 73.5572 26.622 73.5572C27.4751 73.5572 28.2103 72.9508 28.3688 72.112C30.1695 62.7099 33.6596 56.4071 36.2697 52.7722C38.1513 50.1547 39.8441 48.5209 40.7985 47.6989C43.4726 48.6759 46.2276 49.4945 49.0029 50.1345C47.8361 55.3089 47.482 60.9245 47.9575 66.8366C48.0351 67.8034 48.9085 68.5479 49.8763 68.4671C50.8542 68.3896 51.5893 67.5272 51.5084 66.5503C51.0599 60.9649 51.3903 55.6828 52.493 50.8386C55.8382 51.4315 59.2306 51.7751 62.5993 51.8694V69.6933C62.5993 70.6736 63.3985 71.472 64.3798 71.472C65.3611 71.472 66.1603 70.6736 66.1603 69.6933V51.8795C69.5561 51.7919 72.9653 51.4483 76.3003 50.8588C77.5177 55.6794 77.9729 60.9717 77.656 66.5941C77.629 67.0691 77.7908 67.5238 78.1044 67.8809C78.4214 68.2346 78.8564 68.4435 79.3353 68.4705C80.3267 68.521 81.1562 67.7698 81.2136 66.7928C81.5474 60.8706 81.0686 55.2718 79.7939 50.1413C82.586 49.4945 85.3478 48.6725 88.0152 47.6888C88.9729 48.5142 90.6657 50.1514 92.5473 52.7655C95.1607 56.4003 98.6576 62.7099 100.458 72.112C100.62 72.9508 101.355 73.5572 102.205 73.5572C102.316 73.5572 102.431 73.5471 102.542 73.5269C103.507 73.3416 104.141 72.4085 103.955 71.445C101.301 57.5895 95.3428 49.8414 91.6706 46.2201C91.9572 46.0954 92.2371 45.9708 92.5136 45.8461C96.4927 49.7943 113.502 67.5339 121.086 89.4744C119.757 90.8286 119.022 92.2132 118.428 93.3383C117.832 94.4669 117.464 95.117 116.898 95.4034C115.889 95.912 114.22 95.7032 112.598 95.5044C110.659 95.2652 108.649 95.0193 106.865 95.7672C105.227 96.4544 104.026 97.4077 102.866 98.3341C101.8 99.1831 100.792 99.9848 99.5816 100.389C98.5093 100.746 96.8873 100.298 95.3091 99.8635C93.4308 99.3448 91.4885 98.8058 89.6203 99.2774C87.6408 99.7759 86.1335 101.208 84.6734 102.596C83.4898 103.724 82.3702 104.789 81.372 104.954C80.2559 105.142 78.7215 104.438 77.2344 103.758C75.4674 102.949 73.6397 102.114 71.721 102.276C69.6876 102.447 67.9678 103.62 66.3019 104.752C64.9497 105.671 63.6751 106.54 62.66 106.544C61.5236 106.544 60.1242 105.6 58.7652 104.684C57.1567 103.599 55.4942 102.481 53.5856 102.329C53.4204 102.316 53.2551 102.309 53.0899 102.309C51.2285 102.309 49.4885 103.114 47.8024 103.899C46.3254 104.583 44.9361 105.23 43.9514 105.072C42.8015 104.886 41.5606 103.717 40.3567 102.585C38.9539 101.265 37.5005 99.9006 35.6593 99.4526C33.6158 98.9574 31.5723 99.5334 29.5962 100.089C28.0585 100.524 26.6051 100.931 25.7081 100.638C24.5144 100.248 23.4421 98.8563 22.4001 97.5088C21.2535 96.0266 20.0699 94.4904 18.4007 93.7965C16.2661 92.9071 13.936 93.1766 11.879 93.4125C10.4863 93.5742 9.04639 93.7392 8.39219 93.4023C6.30147 92.3176 6.00135 91.4519 5.67762 90.2896C8.45964 78.5497 15.794 67.8338 21.466 60.9043L21.0748 60.5843L21.0849 60.5809ZM36.8261 31.2865C35.8212 27.7056 34.3779 24.2796 32.5333 21.086C31.2755 18.9099 29.8188 16.8212 28.2001 14.8809C27.7753 14.3722 27.5999 13.7187 27.7179 13.0853C28.2541 10.1579 30.392 8.37587 34.071 7.77961C34.9444 7.63812 35.8853 7.56738 36.8733 7.56738C36.9981 7.56738 37.1195 7.56738 37.2442 7.56738C37.2476 7.82003 37.2813 8.07269 37.3454 8.3186C40.6467 20.9917 38.4649 28.1166 36.8227 31.2832L36.8261 31.2865ZM86.5921 19.6173C86.6461 25.0072 87.6038 29.6729 89.4416 33.493C83.2065 35.1538 74.6918 37.4109 66.6088 37.6938C55.8112 38.0711 47.6776 35.8175 40.495 33.8299C40.2083 33.7491 39.9251 33.6716 39.6486 33.5941C41.8337 29.8548 44.4808 21.9316 40.9064 7.85372H49.6638L51.1847 9.06646C59.2137 15.4738 70.8105 14.9449 78.2191 7.85372H87.7724C87.2767 10.2758 86.5449 14.6956 86.5955 19.6207L86.5921 19.6173ZM91.3367 8.18722C91.3806 7.9851 91.4042 7.78298 91.4075 7.57412C92.5912 7.5438 93.7073 7.61454 94.7325 7.77961C98.4115 8.3725 100.546 10.1579 101.086 13.0853C101.204 13.7187 101.025 14.3722 100.603 14.8809C98.9881 16.8179 97.528 18.9065 96.2702 21.0827C94.5099 24.128 93.1172 27.3586 92.1224 30.697C88.9695 22.7839 90.2475 13.2976 91.3401 8.18385L91.3367 8.18722ZM91.0602 42.5987C83.1323 46.1695 74.7256 48.0931 66.0625 48.3154C56.3845 48.5647 46.5952 46.5872 37.713 42.5987V36.7506C38.3098 36.9123 38.9168 37.0807 39.544 37.2559C46.6019 39.2098 55.383 41.642 66.7302 41.2478C75.2482 40.9514 84.0226 38.6169 90.4296 36.9123L91.0602 36.7439V42.6021V42.5987Z" fill="#189EC7"/>
<path d="M64.9324 18.3069C63.7353 18.3069 62.7607 19.2804 62.7607 20.4763C62.7607 21.6722 63.7353 22.6458 64.9324 22.6458C66.1295 22.6458 67.1041 21.6722 67.1041 20.4763C67.1041 19.2804 66.1295 18.3069 64.9324 18.3069Z" fill="#189EC7"/>
<path d="M64.9324 25.7451C63.7353 25.7451 62.7607 26.7187 62.7607 27.9146C62.7607 29.1105 63.7353 30.084 64.9324 30.084C66.1295 30.084 67.1041 29.1105 67.1041 27.9146C67.1041 26.7187 66.1295 25.7451 64.9324 25.7451Z" fill="#189EC7"/>
</g>
<defs>
<clipPath id="clip0_5327_709">
<rect width="126" height="119" fill="white" transform="translate(1 4)"/>
</clipPath>
</defs>
</svg>
