<svg width="128" height="128" viewBox="0 0 128 128" fill="none" xmlns="http://www.w3.org/2000/svg">
<g clip-path="url(#clip0_5329_843)">
<path d="M124.986 70.3093C124.844 67.7039 122.003 64.9489 119.455 64.9489H112.758V42.4028C112.758 40.594 110.242 38.1031 108.414 38.1031H93.6917C93.8028 34.0366 93.6916 29.6752 92.4021 25.2347C87.8133 9.51445 71.7835 0.694923 55.9049 5.1575C43.419 8.66506 34.7971 20.0459 34.4547 33.4909V38.1031H19.9634C17.918 38.1031 15.4991 40.4356 15.4991 42.4028V64.9489H8.6825C6.04125 64.9489 3.1999 67.7744 3.15099 70.4721C3.30662 74.2878 3.2088 78.2178 3.11542 82.0115C2.99536 86.8129 2.8753 91.7772 3.25771 96.6006C3.61343 101.098 8.33122 106.806 13.1202 106.806H15.4991C15.4991 107.167 15.4991 107.533 15.4946 107.894C15.4813 109.605 15.4679 111.375 15.7836 113.117C16.9709 119.719 22.6269 124.6 29.5591 124.987C38.7101 124.952 48.0122 124.965 57.0121 124.987C61.9744 124.996 66.9946 125.004 72.0458 125.004C81.308 125.004 90.668 124.974 99.939 124.864C106.796 124.107 112.305 118.187 112.754 111.093C112.794 110.437 112.763 109.724 112.736 109.033C112.701 108.237 112.665 107.409 112.75 106.714L115.373 106.692C120.02 106.692 124.889 100.808 124.995 96.5698L124.982 70.3093H124.986ZM121.469 83.4902V96.8031C121.469 99.4921 117.73 103.193 115.013 103.193H112.758V84.1195H119.935C120.175 84.1195 120.544 84.0051 121.469 83.4902ZM121.443 78.8296C121.345 79.6085 120.104 80.7484 119.335 80.7484H112.758V68.3245H118.855C119.024 68.3245 119.775 68.5181 120.02 68.6237C120.825 68.967 121.398 69.7372 121.474 70.591C121.603 71.9993 121.54 73.5572 121.483 75.0623C121.434 76.3166 121.38 77.6105 121.438 78.8296H121.443ZM85.0164 26.5858C81.9661 17.2337 74.1802 11.244 64.7001 10.958C55.3224 10.6807 47.2697 16.1291 43.6724 25.1995C41.9071 29.6532 41.7648 34.3843 41.8849 38.1031H37.8474C37.4517 29.3804 39.5238 22.2112 44.0103 16.7892C49.7731 9.83132 58.6173 6.42497 67.6704 7.67485C76.7325 8.92472 84.3005 14.5932 87.92 22.8406C90.2634 28.1833 90.4501 33.5305 90.2811 38.1031H86.2437C86.3371 34.2478 86.2748 30.4586 85.012 26.5858H85.0164ZM47.5276 24.9926C52.1431 15.491 60.7605 13.4445 67.288 14.6988C74.527 16.0895 82.1395 22.1936 82.8287 32.6899C82.8821 33.4733 82.8554 34.2963 82.8332 35.0884C82.8065 36.0786 82.7754 37.0997 82.8865 38.0987H45.2998C45.1664 34.3095 45.3488 29.486 47.532 24.9882L47.5276 24.9926ZM109.237 111.265C108.77 116.722 104.381 121.123 99.0586 121.492H29.1011C23.3339 120.89 19.043 116.299 18.9007 110.587V43.3842C18.9852 42.328 19.2697 41.8923 20.0612 41.6239L107.916 41.593C108.712 41.6327 109.157 42.1212 109.237 42.9925V111.265ZM6.66821 70.4413C6.77493 69.6888 7.44191 68.8658 8.18004 68.5885C8.4246 68.4961 9.13605 68.3201 9.27834 68.3201H15.4946V80.744H8.43794C7.81987 80.744 6.79271 79.4853 6.69044 78.7724C6.49924 77.4477 6.57483 75.8809 6.64598 74.367C6.70823 73.0423 6.77493 71.6736 6.66376 70.4413H6.66821ZM15.4991 84.2383V103.312H13.6048C10.3633 103.312 6.66821 99.4657 6.66821 96.0901V83.5386C7.29962 83.8863 8.11334 84.2383 8.56244 84.2383H15.4991Z" fill="#189EC7"/>
<path d="M100.251 77.7776H98.0721C98.1432 77.2187 98.161 76.5541 98.121 75.7576C98.0943 75.2118 98.0365 74.3845 97.9609 73.8519C97.8542 73.1214 97.5252 72.382 97.0849 71.8539C97.912 70.8241 98.2188 69.1781 97.992 66.9512C97.8186 65.2173 96.4624 63.6373 94.8795 63.2412C94.8483 61.274 94.1502 59.4564 92.9007 58.0877C92.5361 57.6872 92.1315 57.388 91.7402 57.0931C91.0554 56.5826 90.4685 56.1469 90.2328 55.3019C90.0238 54.5537 90.0461 53.81 90.0727 53.0266C90.1128 51.7283 90.1528 50.3816 89.0767 49.0789C87.885 47.631 86.0308 47.0457 84.2389 47.5606C82.4291 48.0799 81.1663 49.5586 80.944 51.4158C80.8684 52.0452 80.8951 52.6921 80.9173 53.3215C80.9395 53.898 80.9618 54.4393 80.9084 54.9542C80.7839 56.1821 80.1214 56.7014 79.281 57.3571C78.8319 57.7092 78.365 58.0745 77.947 58.5806C76.9243 59.8129 76.4485 61.2344 76.4174 63.1532C75.0523 63.5229 74.0474 64.4163 73.4915 65.7498C72.7223 67.6026 72.9624 70.0847 74.0652 71.9199C73.5138 72.5845 73.1892 73.5263 73.1136 74.1952C73.038 74.8818 73.0691 75.6255 73.1002 76.3429C73.1225 76.827 73.1447 77.3199 73.1314 77.7864C72.9624 77.7864 72.7845 77.7732 72.6067 77.76C71.4639 77.694 69.8987 77.606 69.6319 79.5248L69.623 102.515V102.564C69.9788 105.825 72.6334 108.351 76.0883 108.708H76.1239H76.1595C79.0675 108.571 82.1179 108.655 85.0704 108.734C86.889 108.782 88.7388 108.835 90.5796 108.835C92.0337 108.835 93.4788 108.804 94.8972 108.716C98.5078 108.492 101.185 106.12 101.709 102.678L101.732 79.3884C101.772 79.1375 101.683 78.8646 101.456 78.5786C101.256 78.3189 100.696 77.7776 100.264 77.7776H100.251ZM84.3056 54.0388C84.2655 53.0002 84.2077 51.5743 84.7502 51.0066C84.9281 50.8217 85.1682 50.7337 85.4928 50.7337H85.5061C85.8485 50.7337 86.1064 50.8261 86.2976 51.0154C86.8668 51.5919 86.8268 53.0002 86.7912 54.1268C86.7734 54.6418 86.7601 55.1303 86.8045 55.5043C87.0357 57.4496 88.2274 58.5058 89.2812 59.4388C90.1661 60.2222 91.0021 60.9571 91.3044 62.163C91.3711 62.4183 91.4156 62.7307 91.4467 63.0476H79.8723C79.8723 62.8407 79.8723 62.6471 79.9035 62.4579C80.0991 61.1904 80.8862 60.473 81.7933 59.65C82.8827 58.6598 84.1232 57.5332 84.3144 55.2711C84.3411 54.9322 84.3278 54.5009 84.3056 54.0432V54.0388ZM76.6264 76.1228C76.5508 74.6221 76.5597 73.6759 77.6624 73.337L93.8434 73.4207C94.0746 73.5043 94.5682 74.1204 94.5904 74.3537V77.7732H76.613C76.6886 77.2495 76.6575 76.6774 76.6308 76.1228H76.6264ZM94.1191 69.9043L77.1555 69.9351C77.0088 69.8691 76.7242 69.5346 76.6753 69.3322C76.5819 68.9493 76.573 67.4794 76.6353 67.0657C76.6797 66.8016 76.9599 66.5464 77.2044 66.5375L94.0835 66.5463C94.2925 66.5904 94.4215 66.8544 94.4926 67.0701C94.8305 68.0735 94.5415 69.561 94.3147 69.7855C94.2747 69.8207 94.1991 69.8647 94.1191 69.9043ZM73.0291 84.2206V81.1487H98.3077V102.388C98.3077 103.426 96.5736 105.112 95.4397 105.204L76.1506 105.218C74.4075 104.998 73.1847 103.69 73.0336 101.873C72.7845 98.9462 72.8957 95.7731 73.0069 92.7057C73.1047 89.867 73.2114 86.9316 73.0291 84.2162V84.2206Z" fill="#189EC7"/>
<path d="M60.4136 73.6145L29.479 73.6541H29.4478C28.0872 73.7509 26.9889 74.8028 26.8955 76.1363V102.511L26.9044 102.56C27.2957 105.997 29.9903 108.47 33.6098 108.717C35.3617 108.835 37.1537 108.875 38.959 108.875C41.2267 108.875 43.5167 108.809 45.7578 108.743C49.4128 108.637 53.1924 108.527 56.7808 108.708H56.8075H56.8341C60.2802 108.453 62.9259 106.08 63.4239 102.81L63.4328 76.0922C63.2905 74.6135 62.1077 73.6409 60.4092 73.6145H60.4136ZM60.0223 77.1133V102.392C60.0223 102.903 59.6443 103.585 59.0396 104.17C58.3771 104.813 57.5678 105.222 56.9631 105.222C56.9542 105.222 56.9453 105.222 56.932 105.222L33.2719 105.205C32.8183 105.244 32.0224 104.804 31.3509 104.175C30.7151 103.576 30.4305 103.026 30.4305 102.749V77.1133H60.0268H60.0223Z" fill="#189EC7"/>
<path d="M60.9295 51.4688L60.8806 51.46L29.5902 51.4336L29.4879 51.4468C28.1273 51.7593 27.1223 52.8155 26.9311 54.1314C26.691 55.7729 26.7444 60.0991 26.9134 61.679C27.238 64.7641 30.0215 67.3211 33.2764 67.4971L57.39 67.4795H57.4389C60.6138 67.1098 63.1928 64.5705 63.4329 61.569C63.5796 59.7294 63.6374 55.7905 63.4151 54.1182C63.2506 52.8727 62.2056 51.7593 60.9295 51.4732V51.4688ZM44.6062 64.148C42.3918 64.082 40.1329 64.0159 37.8874 64.0159C36.4423 64.0159 35.0061 64.0423 33.5921 64.1172C33.0674 64.192 32.0891 63.7299 31.3154 63.0565C30.7774 62.59 30.4306 62.0795 30.4306 61.7626V54.7783H59.9912C60.0135 54.8311 60.0313 54.8927 60.0357 54.9236C60.1958 56.103 60.1602 60.1431 59.9779 61.2829C59.72 62.9025 58.4038 63.9895 56.5452 64.1172C52.6856 64.3856 48.577 64.2624 44.6062 64.1436V64.148Z" fill="#189EC7"/>
</g>
<defs>
<clipPath id="clip0_5329_843">
<rect width="122" height="121" fill="white" transform="translate(3 4)"/>
</clipPath>
</defs>
</svg>
