<svg width="128" height="128" viewBox="0 0 128 128" fill="none" xmlns="http://www.w3.org/2000/svg">
<g clip-path="url(#clip0_5320_1168)">
<path d="M53.3984 57.7971V52.2358C53.3984 50.5858 54.078 49.0899 55.1804 48.0064C56.2778 46.923 57.793 46.2471 59.4642 46.2471H84.1401C85.8114 46.2471 87.3266 46.918 88.424 48.0064C89.5213 49.0899 90.2059 50.5858 90.2059 52.2358V58.7911H86.5816V52.2358C86.5816 51.5748 86.3047 50.9734 85.8617 50.5361C85.4187 50.0987 84.8096 49.8254 84.1401 49.8254H59.4642C58.7947 49.8254 58.1856 50.0987 57.7426 50.5361C57.2997 50.9734 57.0228 51.5748 57.0228 52.2358V57.7971H53.3984Z" fill="#189EC7"/>
<path d="M90.7705 61.0473H52.8304C51.3806 61.0473 50.0668 61.6338 49.1103 62.578C48.1539 63.5223 47.5599 64.8195 47.5599 66.2508V116.228C47.5599 117.654 48.1539 118.957 49.1103 119.901C50.0668 120.845 51.3806 121.432 52.8304 121.432H90.7705C92.2152 121.432 93.534 120.845 94.4905 119.901C95.4469 118.957 96.0409 117.659 96.0409 116.228V66.2508C96.0409 64.8244 95.4469 63.5223 94.4905 62.578C93.534 61.6338 92.2202 61.0473 90.7705 61.0473ZM52.8304 57.469H90.7705C93.2169 57.469 95.4419 58.458 97.0527 60.0484C98.6635 61.6387 99.6653 63.8354 99.6653 66.2508V116.228C99.6653 118.643 98.6635 120.84 97.0527 122.431C95.4419 124.021 93.2169 125.01 90.7705 125.01H52.8304C50.3839 125.01 48.1589 124.021 46.5481 122.431C44.9373 120.84 43.9355 118.643 43.9355 116.228V66.2508C43.9355 63.8354 44.9373 61.6387 46.5481 60.0484C48.1589 58.458 50.3839 57.469 52.8304 57.469Z" fill="#189EC7"/>
<path d="M60.7031 48.4239V28.8276C60.7031 25.9898 61.876 23.4154 63.7687 21.5467C65.6615 19.678 68.269 18.52 71.1433 18.52H72.4622C75.3365 18.52 77.9441 19.678 79.8368 21.5467C81.7295 23.4154 82.9024 25.9898 82.9024 28.8276V48.2251H79.278V28.8276C79.278 26.9788 78.5129 25.299 77.2746 24.0764C76.0413 22.8538 74.3348 22.0983 72.4622 22.0983H71.1433C69.2707 22.0983 67.5693 22.8538 66.331 24.0764C65.0926 25.294 64.3275 26.9788 64.3275 28.8276V48.4239H60.7031Z" fill="#189EC7"/>
<path d="M33.9375 7.62608C33.5701 6.81599 32.8854 6.14008 31.9844 5.80213C31.0733 5.45921 30.1017 5.51884 29.2762 5.88165C28.4506 6.24942 27.7711 6.92036 27.4288 7.81494L9.96634 53.1851L9.84553 53.4982C9.49819 54.3978 9.5586 55.357 9.9311 56.172C10.2986 56.9821 10.9832 57.658 11.8842 57.996C12.7954 58.3389 13.7669 58.2793 14.5924 57.9165C15.418 57.5487 16.0976 56.8778 16.4449 55.9832L33.9023 10.613L34.0231 10.2999C34.3704 9.40033 34.31 8.44114 33.9375 7.62608ZM32.9157 2.33811H32.9408L33.258 2.45739C35.1003 3.1482 36.4847 4.5199 37.2397 6.1699C37.9445 7.71554 38.0905 9.5047 37.5317 11.2193V11.2442L37.4109 11.5573L19.8327 57.2406C19.133 59.0596 17.7436 60.4263 16.0724 61.1718C14.5069 61.8675 12.6947 62.0117 10.958 61.46H10.9328L10.6157 61.3407C8.77332 60.6499 7.38901 59.2782 6.63393 57.6282C5.92919 56.0826 5.78321 54.2934 6.34197 52.5788V52.554L6.46278 52.2408L24.041 6.55755C24.7407 4.73857 26.13 3.37185 27.8013 2.62636C29.3668 1.93058 31.179 1.78645 32.9157 2.33811Z" fill="#189EC7"/>
<path d="M36.5197 7.13892C43.9094 9.91212 49.4618 15.379 52.467 21.979C55.4671 28.5741 55.9252 36.2973 53.1214 43.5881C50.3125 50.884 44.7752 56.3658 38.0903 59.3328C31.4104 62.2948 23.5878 62.7471 16.2031 59.9789L17.4767 56.6391C23.9351 59.0594 30.7761 58.6718 36.6154 56.0775C42.4496 53.4882 47.2821 48.7022 49.7336 42.3308C52.1851 35.9544 51.7924 29.2003 49.1648 23.4352C46.5421 17.6751 41.6945 12.904 35.2411 10.4837L36.5147 7.14389L36.5197 7.13892Z" fill="#189EC7"/>
<path d="M62.6405 49.8202H48.8428V46.2419H62.6405V49.8202ZM52.2708 29.6772H62.4392V33.2556H52.2708V29.6772Z" fill="#189EC7"/>
<path d="M80.209 23.6887H101.029C104.86 23.6887 108.388 24.8417 110.885 27.6597C112.979 30.0204 114.278 33.5043 114.308 38.3996V38.4344L114.162 46.6596V46.6795C113.825 57.3896 116.04 61.0922 118.708 65.5502C119.342 66.6088 120.002 67.7121 120.731 69.0838C121.315 70.1871 121.99 71.6482 122.005 72.9901C122.03 74.988 121.059 76.5088 117.968 76.4989C116.221 76.4989 114.142 75.6043 112.169 74.2326C110.211 72.8708 108.273 70.9922 106.858 69.049L106.803 68.9645C105.021 66.2062 103.606 63.5821 102.625 60.6946C101.638 57.7872 101.099 54.6412 101.074 50.8641L101.019 44.9947C100.994 42.798 100.833 41.4511 100.37 40.7901C100.068 40.3578 99.3477 40.2037 98.0791 40.2037H95.8743C95.4968 40.1888 95.2753 40.2136 95.1444 40.2832C94.9783 40.3677 94.7417 40.6063 94.3893 40.9889C94.188 41.2026 93.896 41.5406 93.6242 41.8487C91.953 43.7671 90.9814 44.8804 87.6289 44.9251H81.0245V41.3617H87.5886C89.3052 41.3368 89.884 40.6709 90.8807 39.5278C91.0972 39.2793 91.3288 39.0159 91.7164 38.5885C92.3355 37.9076 92.8288 37.4454 93.4883 37.1074C94.183 36.7496 94.8978 36.6154 95.9045 36.6303L98.0842 36.6254C100.621 36.6254 102.242 37.1919 103.35 38.7624C104.291 40.0993 104.603 42.0326 104.638 44.9499L104.694 50.8343C104.714 54.2089 105.187 57.0019 106.058 59.5614C106.929 62.1259 108.202 64.4916 109.818 66.9964C110.996 68.6067 112.617 70.1722 114.258 71.3153C115.672 72.2993 117.027 72.9404 117.978 72.9404C118.3 72.9404 118.406 73.0895 118.406 73.0348C118.396 72.4335 117.943 71.4842 117.545 70.7338C116.941 69.5907 116.261 68.4576 115.607 67.3692C112.652 62.4291 110.196 58.3289 110.568 46.585L110.714 38.3897C110.689 34.4535 109.727 31.7449 108.187 30.0055C106.461 28.0622 103.893 27.267 101.049 27.267H80.2291V23.6887H80.209Z" fill="#189EC7"/>
<path d="M54.738 115.329C53.7362 115.329 52.9258 114.528 52.9258 113.539C52.9258 112.55 53.7362 111.75 54.738 111.75H68.7874C69.7892 111.75 70.5996 112.55 70.5996 113.539C70.5996 114.528 69.7892 115.329 68.7874 115.329H54.738Z" fill="#189EC7"/>
<path d="M54.738 104.176C53.7362 104.176 52.9258 103.376 52.9258 102.387C52.9258 101.398 53.7362 100.598 54.738 100.598H64.0556C65.0574 100.598 65.8678 101.398 65.8678 102.387C65.8678 103.376 65.0574 104.176 64.0556 104.176H54.738Z" fill="#189EC7"/>
<path d="M54.738 93.0236C53.7362 93.0236 52.9258 92.2235 52.9258 91.2345C52.9258 90.2455 53.7362 89.4453 54.738 89.4453H68.7874C69.7892 89.4453 70.5996 90.2455 70.5996 91.2345C70.5996 92.2235 69.7892 93.0236 68.7874 93.0236H54.738Z" fill="#189EC7"/>
<path d="M54.738 81.8713C53.7362 81.8713 52.9258 81.0711 52.9258 80.0821C52.9258 79.0931 53.7362 78.293 54.738 78.293H64.0556C65.0574 78.293 65.8678 79.0931 65.8678 80.0821C65.8678 81.0711 65.0574 81.8713 64.0556 81.8713H54.738Z" fill="#189EC7"/>
<path d="M54.738 70.7187C53.7362 70.7187 52.9258 69.9185 52.9258 68.9295C52.9258 67.9405 53.7362 67.1404 54.738 67.1404H68.7874C69.7892 67.1404 70.5996 67.9405 70.5996 68.9295C70.5996 69.9185 69.7892 70.7187 68.7874 70.7187H54.738Z" fill="#189EC7"/>
</g>
<defs>
<clipPath id="clip0_5320_1168">
<rect width="116" height="123" fill="white" transform="translate(6 2)"/>
</clipPath>
</defs>
</svg>
