<svg width="160" height="102" viewBox="0 0 160 102" fill="none" xmlns="http://www.w3.org/2000/svg">
<path d="M39.8059 62.7914C39.7965 60.3937 40.1051 57.9867 40.7691 55.6359C41.737 52.22 43.6401 49.4469 46.497 47.3448C49.3633 45.2333 52.6223 44.0744 56.0684 43.3424C57.8219 42.967 59.594 42.8403 61.3708 42.953C65.0367 43.1782 68.3285 44.3559 70.9516 47.0351C72.5274 48.6445 73.528 50.5871 74.0237 52.7877C74.4538 54.7068 74.7204 56.6212 74.4024 58.5966C74.0751 60.6236 73.8132 62.6647 73.5607 64.7058C73.2194 67.4554 73.1633 70.2285 73.3457 72.9875C73.4859 75.1647 74.1826 77.2292 75.0383 79.2281C76.1418 81.7994 77.0302 84.4411 77.6287 87.1813C78.0355 89.0347 77.9841 90.8506 77.3014 92.6383C76.8432 93.8395 76.1231 94.8765 75.23 95.7633C73.341 97.6308 71.2088 99.1276 68.5342 99.6296C66.9024 99.9346 65.2705 99.8877 63.6713 99.4372C60.3842 98.5129 57.6722 96.6782 55.5027 94.0459C51.112 88.7203 46.5765 82.9208 43.3876 76.7741C41.1432 72.4526 39.8386 67.6337 39.8152 62.7914H39.8059Z" fill="white"/>
<path d="M92.9706 67.1927C92.9005 65.1235 93.1343 63.0824 93.3307 61.0272C93.5832 58.3761 93.4055 55.7298 92.6246 53.135C91.7689 50.2822 90.6888 47.5232 89.403 44.8393C88.4958 42.9436 87.6589 41.0245 87.224 38.9553C86.3824 34.9622 86.9061 31.2273 89.4637 27.9381C91.0021 25.9627 93.008 24.5832 95.2992 23.626C97.5716 22.6735 99.9376 22.2277 102.402 22.0682C105.502 21.8711 108.518 22.1761 111.454 23.1661C115.415 24.4987 118.29 27.1404 120.268 30.7956C127.146 43.4926 121.33 58.1181 116.256 70.374C114.807 73.8697 112.478 76.6756 109.126 78.4821C107.232 79.5003 105.193 79.9507 102.977 79.641C100.994 79.3642 99.1942 78.6838 97.4968 77.7079C95.0934 76.3237 93.6019 74.2591 93.1576 71.4814C93.1062 71.1717 92.9893 70.8667 92.9846 70.557C92.9613 69.4356 92.9753 68.3142 92.9753 67.1927H92.9706Z" fill="white"/>
<path d="M72.4852 30.2607C72.373 33.0854 71.6202 35.408 69.8948 37.3412C68.6837 38.6972 67.1267 39.4808 65.3124 39.584C63.9144 39.6638 62.6005 39.1993 61.5016 38.35C59.4489 36.7593 58.3408 34.615 57.934 32.0343C57.6207 30.0308 57.9012 28.1351 58.6026 26.2817C59.2198 24.6442 60.2205 23.2741 61.7027 22.2887C64.1528 20.6605 67.1313 20.9233 69.3337 22.894C71.0123 24.3955 71.9334 26.324 72.2701 28.5434C72.3683 29.1956 72.4384 29.8572 72.4899 30.2607H72.4852Z" fill="white"/>
<path d="M87.9205 3.16821C90.1602 3.16821 91.6985 3.88611 93.0125 5.04039C95.1446 6.91256 96.2996 9.30087 96.6035 12.1443C96.856 14.4998 96.4305 16.6582 95.0792 18.6007C93.9336 20.243 92.3158 21.1767 90.3332 21.2753C88.7621 21.355 87.2939 20.8061 86.0455 19.8676C83.5158 17.9626 82.1926 15.3725 81.8325 12.2241C81.6174 10.3613 81.8886 8.60643 82.6976 6.94541C83.8478 4.58994 85.7088 3.26206 87.9298 3.17291L87.9205 3.16821Z" fill="white"/>
<path d="M109.771 12.2006C109.57 14.237 109.027 16.1092 107.302 17.423C104.931 19.2201 102.467 18.1784 101.144 16.2406C99.3999 13.688 99.6337 9.92961 101.686 7.68206C103.29 5.92719 105.68 5.45797 107.718 7.31138C109.163 8.62519 109.631 10.3378 109.771 12.2006Z" fill="white"/>
<path d="M45.1502 33.9863C45.0987 32.513 45.5617 31.2367 46.5202 30.1341C47.9089 28.5434 50.172 28.4777 51.6636 29.3974C53.8379 30.7394 54.9648 32.7195 55.0817 35.2814C55.1284 36.309 54.9788 37.2849 54.5206 38.2234C53.2581 40.8087 50.4947 41.5876 48.0492 39.8281C46.0713 38.4064 45.1969 36.384 45.1455 33.9816L45.1502 33.9863Z" fill="white"/>
<path d="M41.4474 45.3133C40.7553 45.379 40.0119 45.0271 39.3806 44.5438C37.7488 43.305 36.8744 41.6299 37.038 39.556C37.1549 38.0733 37.9685 36.6703 39.5723 36.3419C40.0306 36.248 40.5543 36.2246 41.0032 36.3419C43.1447 36.9049 44.3183 38.4017 44.8046 40.5038C45.0758 41.6722 44.9262 42.7842 44.3043 43.8212C43.6964 44.8394 42.7987 45.3368 41.452 45.318L41.4474 45.3133Z" fill="white"/>
<path d="M119.047 15.2834C119.057 16.8412 118.486 18.1785 117.327 19.1779C115.4 20.8389 112.908 20.2383 111.94 17.8875C111.089 15.8136 111.44 13.0499 113.623 11.4077C115.194 10.2252 117.317 10.7085 118.374 12.4869C118.888 13.3502 119.075 14.2933 119.043 15.2881L119.047 15.2834Z" fill="white"/>
<path d="M38.7773 50.0193C38.8755 50.9296 37.8047 52.4311 36.7433 52.7314C35.7847 53.0035 34.9197 52.8487 34.1575 52.3185C32.4976 51.1736 31.67 49.5501 32.0067 47.5325C32.4135 45.0879 34.6251 44.5248 36.1635 45.3553C37.8328 46.2562 38.6791 47.6967 38.782 50.0193H38.7773Z" fill="white"/>
<path d="M119.758 22.0682C119.726 20.5902 120.179 19.4265 121.194 18.4975C122.704 17.118 124.827 17.5121 125.748 19.3374C126.758 21.3362 126.15 23.6025 124.748 24.8976C123.261 26.2724 121.227 25.9345 120.259 24.1703C119.88 23.4759 119.688 22.7486 119.758 22.0682Z" fill="white"/>
<path d="M131.032 28.2665C130.864 29.9463 129.826 31.7621 128.096 32.3017C126.983 32.649 126.015 32.3627 125.332 31.429C124.748 30.6313 124.584 29.7539 124.785 28.7638C125.103 27.2107 125.898 26.0846 127.38 25.4793C128.61 24.9773 129.999 25.484 130.55 26.6899C130.78 27.1826 130.873 27.741 131.027 28.2712L131.032 28.2665Z" fill="white"/>
<path d="M29.3885 56.3679C29.3978 54.6881 30.7678 53.379 32.9047 53.928C34.4337 54.3174 35.8131 55.9831 35.9814 57.5691C36.1871 59.4882 34.4804 60.9756 32.6569 60.4688C30.7959 59.9527 29.3136 58.2025 29.3885 56.3679Z" fill="white"/>
<path d="M66.4587 100.995C65.3973 100.995 64.3546 100.85 63.3399 100.564C59.8892 99.5923 56.9434 97.6497 54.5868 94.7922C50.126 89.3821 45.553 83.5169 42.3314 77.3139C39.928 72.6827 38.6468 67.6621 38.6281 62.7963C38.6188 60.2297 38.9554 57.71 39.6381 55.3123C40.6761 51.643 42.7475 48.6447 45.7962 46.3972C48.4941 44.4077 51.6737 43.0751 55.8165 42.193C57.6541 41.8036 59.5431 41.6628 61.4322 41.7801C65.6732 42.0429 69.152 43.5303 71.7751 46.2095C73.4631 47.9315 74.5993 50.0571 75.1511 52.5252C75.5532 54.3269 75.9179 56.476 75.5439 58.7798C75.2119 60.835 74.9454 62.9042 74.7069 64.8468C74.3889 67.4275 74.3188 70.1395 74.4965 72.9079C74.6087 74.6393 75.1043 76.4411 76.0956 78.759C77.288 81.5368 78.1577 84.2113 78.7562 86.9234C79.2331 89.0865 79.1069 91.1511 78.3821 93.0514C77.8865 94.3511 77.1009 95.5382 76.0395 96.5893C73.6455 98.9588 71.3216 100.287 68.7358 100.775C67.9737 100.92 67.2115 100.991 66.4634 100.991L66.4587 100.995ZM40.966 62.7869C40.9847 67.282 42.1724 71.9319 44.4028 76.23C47.5216 82.2359 52.001 87.9838 56.3823 93.2954C58.4303 95.7775 60.9833 97.462 63.9665 98.3066C65.3505 98.6961 66.8094 98.7524 68.2963 98.4755C70.4051 98.0814 72.3409 96.9506 74.3889 94.9236C75.2119 94.1118 75.8151 93.2015 76.1891 92.2162C76.7549 90.7288 76.8484 89.1663 76.465 87.4302C75.8992 84.8636 75.0763 82.3298 73.9401 79.6881C73.1966 77.9567 72.3222 75.6388 72.1539 73.0628C71.9622 70.1442 72.037 67.282 72.3783 64.5606C72.6215 62.5992 72.888 60.5065 73.2293 58.4044C73.5379 56.4947 73.22 54.6225 72.8646 53.0413C72.4064 51.0049 71.4806 49.2594 70.1012 47.8518C67.8661 45.5667 64.9811 44.3467 61.2826 44.1168C59.6086 44.0136 57.93 44.1356 56.2981 44.4828C52.4967 45.2945 49.5976 46.5004 47.1802 48.2834C44.5618 50.2119 42.7803 52.7926 41.8872 55.9504C41.27 58.137 40.9567 60.4361 40.966 62.7822V62.7869Z" fill="#6ABFDD"/>
<path d="M104.323 80.908C103.818 80.908 103.313 80.8705 102.803 80.8001C100.769 80.5186 98.8382 79.8382 96.9024 78.7215C94.1389 77.1308 92.4884 74.7566 91.9881 71.6645C91.974 71.58 91.9506 71.4908 91.9319 71.4064C91.8758 71.1812 91.8057 70.8996 91.801 70.5759C91.787 69.7547 91.787 68.9336 91.7917 68.1125V67.2069C91.7309 65.3206 91.9086 63.4532 92.0862 61.6514L92.1564 60.91C92.4089 58.2308 92.1938 55.7955 91.4971 53.4682C90.6741 50.728 89.6127 47.9925 88.3409 45.3414C87.4385 43.4552 86.536 41.4047 86.0684 39.19C85.1005 34.587 85.9282 30.5564 88.5326 27.2062C90.085 25.2073 92.2078 23.6355 94.8403 22.5328C97.0567 21.6037 99.5021 21.0688 102.317 20.8858C105.749 20.6653 108.854 21.0454 111.814 22.0401C115.9 23.4196 119.089 26.1692 121.282 30.2186C128.562 43.6663 122.068 59.3522 117.322 70.8058C115.709 74.705 113.132 77.6282 109.667 79.4957C107.947 80.4247 106.156 80.8892 104.323 80.8892V80.908ZM104.164 23.185C103.608 23.185 103.042 23.2038 102.467 23.2413C99.9136 23.4055 97.7113 23.8841 95.7428 24.71C93.4563 25.6672 91.6982 26.9622 90.3749 28.6608C88.1866 31.4761 87.5273 34.7653 88.3549 38.7161C88.7711 40.6868 89.6034 42.5824 90.445 44.3326C91.7683 47.0916 92.8718 49.9397 93.7321 52.7973C94.5083 55.3826 94.7608 58.1886 94.4803 61.1352L94.4101 61.8813C94.2325 63.6972 94.0641 65.4098 94.1249 67.1506V67.1928V68.1266C94.1249 68.9289 94.1202 69.7313 94.1343 70.5336C94.1343 70.5946 94.1717 70.7307 94.195 70.8433C94.2325 70.9935 94.2699 71.1436 94.2932 71.2938C94.6767 73.6868 95.9111 75.451 98.062 76.6898C99.7359 77.6517 101.391 78.2382 103.121 78.4775C105.006 78.7402 106.782 78.4024 108.555 77.4452C111.533 75.8405 113.754 73.3067 115.157 69.919C119.973 58.2871 125.972 43.8118 119.225 31.3494C117.294 27.788 114.628 25.4701 111.065 24.2736C108.891 23.5416 106.619 23.1803 104.159 23.1803L104.164 23.185Z" fill="#6ABFDD"/>
<path d="M64.9858 40.7619C63.4848 40.7619 62.0353 40.2504 60.7728 39.2745C58.5846 37.5806 57.2379 35.2063 56.7657 32.2127C56.4337 30.1107 56.6721 28.032 57.4951 25.8642C58.2292 23.917 59.4262 22.3827 61.044 21.3082C63.9244 19.3937 67.478 19.6753 70.0965 22.0167C71.9013 23.6308 73.0189 25.7657 73.4116 28.3652C73.4865 28.8485 73.5426 29.3364 73.5893 29.7259L73.6454 30.2092V30.3077C73.5145 33.5359 72.5653 36.0932 70.7511 38.1249C69.3203 39.7249 67.4593 40.6352 65.3645 40.7525C65.2383 40.7619 65.112 40.7619 64.9858 40.7619ZM65.1261 22.392C64.1769 22.392 63.2183 22.683 62.3393 23.2695C61.1189 24.0765 60.2538 25.2027 59.6881 26.6995C59.0147 28.4778 58.8183 30.167 59.0849 31.8514C59.4636 34.2632 60.4876 36.0838 62.2083 37.421C63.1248 38.1296 64.1675 38.4721 65.2383 38.4111C66.7205 38.3266 67.9923 37.7026 69.0163 36.5577C70.4565 34.9436 71.1859 32.9588 71.3075 30.3077L71.2701 30.0027C71.228 29.6367 71.1719 29.1769 71.1064 28.7218C70.7932 26.6478 69.9562 25.029 68.5488 23.7715C67.5248 22.8566 66.3324 22.392 65.1307 22.392H65.1261Z" fill="#6ABFDD"/>
<path d="M90.0202 22.453C88.3836 22.453 86.7705 21.8852 85.3303 20.8013C82.637 18.7743 81.0659 15.9355 80.6545 12.3507C80.4113 10.2393 80.7433 8.24508 81.627 6.42452C82.969 3.6796 85.1854 2.10773 87.8646 1.99512H87.916C90.2399 1.99512 92.1056 2.68487 93.7749 4.15351C96.0801 6.18053 97.4173 8.82691 97.7587 12.0176C98.0486 14.7672 97.4688 17.2024 96.0286 19.267C94.6633 21.2283 92.7088 22.3216 90.3849 22.4436C90.2633 22.4483 90.1464 22.453 90.0248 22.453H90.0202ZM87.9347 4.3412C86.1345 4.42566 84.6804 5.50016 83.7312 7.4568C83.0345 8.88791 82.7866 10.4035 82.9784 12.088C83.315 15.044 84.5448 17.2822 86.7331 18.9244C87.8366 19.755 89.0616 20.1632 90.2633 20.0975C91.8671 20.0177 93.1623 19.2857 94.1115 17.9203C95.2337 16.3109 95.6639 14.4622 95.4301 12.2616C95.1496 9.63865 94.1068 7.56472 92.2318 5.91308C91.0021 4.82919 89.6742 4.3412 87.9347 4.33182V4.3412Z" fill="#6ABFDD"/>
<path d="M104.748 19.5203C104.487 19.5203 104.229 19.5015 103.968 19.4546C102.499 19.2153 101.115 18.2863 100.171 16.9021C98.1274 13.9132 98.4126 9.51192 100.816 6.88431C103 4.50069 106.16 4.31301 108.494 6.43856C110.425 8.19343 110.804 10.516 110.925 12.1067L110.935 12.2099L110.925 12.3131C110.733 14.2369 110.228 16.6628 107.998 18.352C106.983 19.1215 105.875 19.5156 104.748 19.5156V19.5203ZM104.907 7.29253C103.752 7.29253 102.869 8.11835 102.541 8.47496C100.867 10.3002 100.671 13.4862 102.102 15.5742C102.686 16.4329 103.505 17.0053 104.346 17.1414C105.099 17.2634 105.852 17.0428 106.591 16.4845C107.764 15.593 108.367 14.3026 108.592 12.1865C108.438 10.2955 107.937 9.09432 106.932 8.17935C106.212 7.52245 105.525 7.29253 104.912 7.29253H104.907Z" fill="#6ABFDD"/>
<path d="M50.7663 41.9537C49.6067 41.9537 48.433 41.5548 47.3622 40.7853C45.1786 39.2134 44.0377 36.9377 43.9723 34.0192C43.9115 32.2597 44.4679 30.6925 45.6322 29.3599C47.4932 27.225 50.439 27.2719 52.2672 28.398C54.7688 29.9417 56.1061 32.2409 56.2417 35.2298C56.3025 36.5389 56.078 37.6838 55.5637 38.7442C54.7922 40.3302 53.5203 41.4141 51.9913 41.8035C51.5892 41.9067 51.1777 41.9537 50.7663 41.9537ZM49.4898 29.9699C48.7416 29.9699 47.9701 30.2467 47.395 30.9083C46.6235 31.7904 46.2728 32.7852 46.3149 33.9441V33.9629C46.3616 36.1354 47.1518 37.7448 48.7323 38.8803C49.6113 39.5137 50.5699 39.7437 51.4256 39.5278C52.2812 39.312 53.006 38.6692 53.4689 37.712C53.8102 37.0081 53.9552 36.2527 53.9131 35.3377C53.8149 33.1418 52.8797 31.5277 51.0515 30.3969C50.6166 30.1294 50.0649 29.9699 49.4944 29.9699H49.4898Z" fill="#6ABFDD"/>
<path d="M41.2696 46.4909C40.4373 46.4909 39.5396 46.1436 38.6605 45.4727C36.6406 43.9383 35.6727 41.855 35.8597 39.4573C36.0327 37.2238 37.3606 35.5863 39.3245 35.1827C39.8108 35.0842 40.5496 35.0044 41.2837 35.1968C43.7057 35.8303 45.3142 37.5711 45.9268 40.2268C46.2728 41.7189 46.0577 43.1313 45.2909 44.4122C44.4679 45.7823 43.1914 46.4768 41.4987 46.4768H41.48C41.4099 46.4815 41.3398 46.4862 41.2696 46.4862V46.4909ZM40.3158 37.4256C40.1521 37.4256 39.9697 37.4444 39.7921 37.4819C38.4407 37.7587 38.2257 39.2039 38.1929 39.6403C38.0667 41.2497 38.6839 42.5448 40.0773 43.6052C40.5589 43.9712 41.0265 44.1729 41.3304 44.1448H41.3912L41.452 44.1401C42.3685 44.1636 42.8875 43.882 43.2896 43.211C43.7431 42.4556 43.86 41.6579 43.6543 40.7617C43.2288 38.9318 42.289 37.8854 40.6945 37.4678C40.587 37.4397 40.4607 37.4256 40.3204 37.4256H40.3158Z" fill="#6ABFDD"/>
<path d="M114.965 21.2892C114.638 21.2892 114.315 21.2517 113.993 21.1766C112.604 20.8435 111.458 19.8065 110.855 18.3331C109.901 16.0105 110.14 12.5571 112.922 10.4644C113.922 9.70895 115.133 9.42742 116.33 9.66203C117.574 9.91071 118.687 10.7178 119.374 11.8814C119.964 12.8762 120.244 14.0257 120.207 15.2973C120.207 17.2117 119.477 18.8634 118.079 20.0646C117.149 20.8622 116.055 21.2892 114.965 21.2892ZM115.512 11.9283C115.096 11.9283 114.68 12.0691 114.32 12.3413C112.534 13.6832 112.393 15.9214 113.015 17.4369C113.338 18.2158 113.876 18.7367 114.54 18.8962C115.204 19.0557 115.919 18.8399 116.56 18.2909C117.439 17.5355 117.878 16.5267 117.873 15.2973V15.2551C117.902 14.4199 117.738 13.7114 117.368 13.092C117.008 12.4914 116.48 12.0926 115.877 11.9706C115.755 11.9471 115.634 11.933 115.512 11.933V11.9283Z" fill="#6ABFDD"/>
<path d="M35.8361 54.0312C35.0038 54.0312 34.2042 53.7779 33.4888 53.2852C31.3894 51.84 30.4495 49.7285 30.847 47.3402C31.0855 45.8997 31.857 44.7877 33.0213 44.2152C34.1668 43.6522 35.5462 43.6897 36.7105 44.3185C38.7585 45.4258 39.8153 47.2651 39.9415 49.9303C40.0724 51.4412 38.6323 53.4072 37.0565 53.8529C36.645 53.9702 36.2382 54.0266 35.8408 54.0266L35.8361 54.0312ZM34.742 46.1719C34.4988 46.1719 34.2604 46.2235 34.0453 46.3267C33.573 46.5613 33.2644 47.0446 33.1475 47.7297C32.9044 49.2077 33.4608 50.4277 34.8074 51.352C35.2984 51.6899 35.8127 51.7696 36.4159 51.6007C36.949 51.4506 37.6129 50.498 37.6036 50.1414V50.0711C37.5194 48.2083 36.9162 47.1056 35.593 46.3877C35.3264 46.2422 35.0272 46.1719 34.7373 46.1719H34.742Z" fill="#6ABFDD"/>
<path d="M122.709 26.92C122.508 26.92 122.307 26.9059 122.11 26.8731C120.913 26.676 119.861 25.9018 119.225 24.7428C118.73 23.8466 118.51 22.9082 118.58 22.0308C118.557 20.2384 119.165 18.7603 120.399 17.6342C121.39 16.7286 122.667 16.3392 123.897 16.5691C125.126 16.7943 126.178 17.6154 126.782 18.8119C127.955 21.1393 127.441 24.0015 125.528 25.7657C124.715 26.5165 123.714 26.92 122.709 26.92ZM123.2 18.8495C122.774 18.8495 122.344 19.0278 121.97 19.3703C121.213 20.0601 120.89 20.8859 120.918 22.0448V22.1152L120.913 22.1856C120.871 22.6079 120.998 23.1006 121.273 23.6026C121.568 24.1329 121.998 24.4707 122.489 24.5505C122.985 24.6302 123.504 24.4472 123.953 24.0343C124.888 23.171 125.524 21.4959 124.701 19.8677C124.425 19.3187 123.99 18.9668 123.476 18.8729C123.382 18.8542 123.293 18.8495 123.2 18.8495Z" fill="#6ABFDD"/>
<path d="M127.212 33.6155C126.094 33.6155 125.098 33.0994 124.383 32.1234C123.611 31.0724 123.359 29.8618 123.635 28.5245C124.051 26.5022 125.159 25.1133 126.936 24.3907C128.75 23.654 130.803 24.447 131.607 26.1925C131.808 26.6289 131.92 27.0793 132.023 27.4735C132.06 27.6283 132.103 27.7831 132.145 27.9333L132.21 28.1538L132.187 28.3837C131.99 30.3732 130.751 32.7005 128.432 33.4231C128.016 33.5545 127.604 33.6155 127.212 33.6155ZM128.348 26.46C128.17 26.46 127.992 26.4928 127.815 26.5679C126.767 26.9949 126.183 27.7456 125.926 29.0031C125.785 29.6882 125.888 30.2231 126.267 30.7345C126.646 31.2554 127.09 31.3867 127.745 31.185C128.96 30.8096 129.662 29.4958 129.839 28.3603C129.811 28.2617 129.788 28.1585 129.76 28.0553C129.676 27.7315 129.601 27.4219 129.489 27.1826C129.278 26.7274 128.834 26.4647 128.348 26.4647V26.46Z" fill="#6ABFDD"/>
<path d="M33.3671 61.7357C33.0257 61.7357 32.6797 61.6888 32.343 61.5949C29.9023 60.9192 28.1301 58.6623 28.2096 56.3397C28.2236 55.1479 28.7333 54.0734 29.617 53.3883C30.5615 52.6563 31.8334 52.4405 33.1847 52.7877C35.1766 53.2945 36.9113 55.3403 37.1358 57.4424C37.2761 58.7421 36.7804 60.0137 35.8078 60.8395C35.1205 61.426 34.2508 61.7357 33.3624 61.7357H33.3671ZM31.9456 54.9743C31.5856 54.9743 31.2816 55.0681 31.0478 55.2464C30.7299 55.4951 30.5522 55.8939 30.5522 56.3725V56.4101C30.5008 57.6394 31.5856 58.9485 32.9649 59.3333C33.4465 59.4647 33.9282 59.3614 34.2975 59.0471C34.6856 58.7186 34.8727 58.2213 34.8166 57.6863C34.6997 56.5743 33.6476 55.3215 32.6142 55.0587C32.3758 54.9977 32.156 54.9696 31.9503 54.9696L31.9456 54.9743Z" fill="#6ABFDD"/>
<path d="M104.952 67.5974C102.711 72.1085 98.9537 75.7355 94.7563 78.5685C92.7943 79.8918 90.7372 81.0527 88.6266 82.1293C86.3436 83.2902 83.6564 83.2902 81.3793 82.1293C79.2687 81.0527 77.2116 79.8918 75.2497 78.5685C71.0582 75.7415 67.3008 72.1085 65.0535 67.5974C62.8121 63.0862 62.2235 57.6307 64.2033 52.9992C66.1831 48.3677 70.9572 44.843 76.0285 45.0054C79.4768 45.1137 82.717 46.8881 85 49.4745C87.283 46.882 90.5232 45.1137 93.9715 45.0054C99.0428 44.849 103.823 48.3737 105.797 52.9992C107.777 57.6307 107.188 63.0862 104.947 67.5974H104.952Z" fill="#FC7B69"/>
</svg>
