<svg width="150" height="48" viewBox="0 0 150 48" fill="none" xmlns="http://www.w3.org/2000/svg">
<g clip-path="url(#clip0_5425_2963)">
<g clip-path="url(#clip1_5425_2963)">
<path d="M46.788 12.4083C42.7413 12.4083 39.0096 13.7316 36.0072 15.9586V4.48868C36.0072 2.52569 34.3981 0.934998 32.4124 0.934998C30.4267 0.934998 28.8177 2.52569 28.8177 4.48868V13.5455C32.9431 16.1685 36.0345 20.2501 37.3389 25.0459C39.1739 21.7528 42.7208 19.5157 46.788 19.5157C52.7313 19.5157 57.5688 24.2979 57.5688 30.1734C57.5688 36.0488 52.7313 40.831 46.788 40.831C40.8446 40.831 36.0072 36.0488 36.0072 30.1734H36.0003C36.0003 20.3821 27.9412 12.4151 18.0369 12.4151V12.4083C13.9902 12.4083 10.2585 13.7316 7.25607 15.9586V4.48868C7.25607 2.52569 5.64699 0.934998 3.66475 0.934998C1.68251 0.934998 0.0700073 2.52569 0.0700073 4.48868V30.1734C0.0700073 39.9849 8.11538 47.9384 18.0403 47.9384C23.1688 47.9384 27.794 45.8129 31.0669 42.4082C29.4202 40.3437 28.1809 37.9441 27.4688 35.338C25.6269 38.6142 22.0904 40.8344 18.0403 40.8344C12.097 40.8344 7.25949 36.0522 7.25949 30.1767C7.25949 24.3013 12.097 19.5191 18.0403 19.5191C23.9836 19.5191 28.8211 24.3013 28.8211 30.1767C28.8211 30.3257 28.8142 30.4712 28.8108 30.6167C28.9033 34.4479 30.2282 37.9813 32.4056 40.8479C32.4056 40.8446 32.4124 40.8412 32.4158 40.8344C35.6956 45.1496 40.9131 47.9384 46.7914 47.9384C56.7163 47.9384 64.7582 39.9849 64.7582 30.1734C64.7582 20.3618 56.7129 12.4083 46.7914 12.4083H46.788Z" fill="white"/>
<path d="M81.3762 43.3897C81.205 43.4032 80.8661 43.4168 80.5374 43.4168C79.2673 43.4168 77.7609 43.366 77.7096 41.7482C77.6822 41.2033 77.6822 40.232 77.6822 39.1862C77.6822 37.6056 77.6959 35.8457 77.7233 35.0165C77.7609 33.3987 79.2159 33.3717 80.3286 33.3717C80.6162 33.3717 80.8901 33.3852 81.0886 33.3987C83.2626 33.5409 84.074 34.6815 84.074 35.7679C84.074 36.7527 83.4201 37.7106 82.5026 37.8392C82.3725 37.8662 82.2937 37.8899 82.2937 37.917C82.2937 37.9305 82.3451 37.9576 82.4889 37.9678C83.9028 38.0727 84.6628 39.1862 84.6628 40.3877C84.6628 41.7719 83.6426 43.2611 81.3762 43.3931V43.3897ZM83.1565 40.2421C83.1565 39.4772 82.6327 38.7259 81.4276 38.6379C81.0989 38.6108 80.76 38.5973 80.4313 38.5973C79.2125 38.5973 79.0961 38.6379 79.0961 38.8951C79.0961 40.5129 79.0961 41.1086 79.1338 41.4572C79.1988 41.9377 79.3289 42.0934 80.5477 42.0934C80.849 42.0934 81.1777 42.0799 81.4241 42.0664C82.5128 42.002 83.153 41.1086 83.153 40.2421H83.1565ZM80.2773 34.7018C79.4385 34.7018 79.1783 34.8067 79.1372 35.2974C79.1098 35.6088 79.1235 36.3466 79.1098 37.098C79.1098 37.3687 79.2947 37.3687 80.1574 37.3687C80.4724 37.3687 80.8113 37.3687 81.0476 37.3552C81.989 37.3044 82.5916 36.5801 82.5916 35.8931C82.5916 35.2839 82.1054 34.7153 80.9551 34.7153C80.9551 34.7153 80.6162 34.7018 80.2738 34.7018H80.2773Z" fill="white"/>
<path d="M86.4328 43.2983C86.0802 43.2983 85.5153 43.1426 85.5153 42.3913C85.5153 41.755 86.0665 41.5113 86.4328 41.5113C86.8642 41.5113 87.364 41.8227 87.364 42.3777C87.364 42.7128 87.0901 43.2983 86.4328 43.2983Z" fill="white"/>
<path d="M92.9958 43.3897C92.8246 43.4032 92.4857 43.4168 92.157 43.4168C90.8869 43.4168 89.3805 43.366 89.3291 41.7482C89.3018 41.2033 89.3018 40.232 89.3018 39.1862C89.3018 37.6056 89.3155 35.8457 89.3428 35.0165C89.3805 33.3987 90.8355 33.3717 91.9482 33.3717C92.2357 33.3717 92.5096 33.3852 92.7082 33.3987C94.8822 33.5409 95.6935 34.6815 95.6935 35.7679C95.6935 36.7527 95.0396 37.7106 94.1221 37.8392C93.992 37.8662 93.9133 37.8899 93.9133 37.917C93.9133 37.9305 93.9646 37.9576 94.1084 37.9678C95.5224 38.0727 96.2824 39.1862 96.2824 40.3877C96.2824 41.7719 95.2622 43.2611 92.9958 43.3931V43.3897ZM94.776 40.2421C94.776 39.4772 94.2522 38.7259 93.0471 38.6379C92.7185 38.6108 92.3795 38.5973 92.0509 38.5973C90.8321 38.5973 90.7157 38.6379 90.7157 38.8951C90.7157 40.5129 90.7157 41.1086 90.7533 41.4572C90.8184 41.9377 90.9485 42.0934 92.1673 42.0934C92.4686 42.0934 92.7972 42.0799 93.0437 42.0664C94.1324 42.002 94.7726 41.1086 94.7726 40.2421H94.776ZM91.8934 34.7018C91.0546 34.7018 90.7944 34.8067 90.7533 35.2974C90.726 35.6088 90.7396 36.3466 90.726 37.098C90.726 37.3687 90.9108 37.3687 91.7736 37.3687C92.0885 37.3687 92.4275 37.3687 92.6637 37.3552C93.6052 37.3044 94.2077 36.5801 94.2077 35.8931C94.2077 35.2839 93.7216 34.7153 92.5713 34.7153C92.5713 34.7153 92.2323 34.7018 91.89 34.7018H91.8934Z" fill="white"/>
<path d="M98.0524 43.2983C97.6998 43.2983 97.1349 43.1426 97.1349 42.3913C97.1349 41.755 97.6861 41.5113 98.0524 41.5113C98.4837 41.5113 98.9836 41.8227 98.9836 42.3777C98.9836 42.7128 98.7097 43.2983 98.0524 43.2983Z" fill="white"/>
<path d="M107.18 43.4032C105.043 43.4032 103.944 42.1984 103.944 41.5655C103.944 41.139 104.324 40.8276 104.704 40.8276C104.913 40.8276 105.122 40.9326 105.28 41.1526C105.622 41.6331 106.262 42.019 107.19 42.019C108.631 42.019 108.946 41.0476 108.946 40.6347C108.946 40.1169 108.631 39.5619 107.95 39.1862C107.375 38.8613 106.666 38.4754 105.971 38.1641C104.817 37.6463 104.294 36.7257 104.294 35.8356C104.294 34.5799 105.314 33.3751 107.121 33.3751C108.929 33.3751 109.963 34.2279 109.963 34.8371C109.963 35.2264 109.634 35.5885 109.23 35.5885C109.035 35.5885 108.813 35.4971 108.614 35.2771C108.364 35.0064 107.919 34.6815 107.108 34.6815C106.296 34.6815 105.759 35.1993 105.759 35.7814C105.759 36.1842 106.009 36.6241 106.584 36.922C107.121 37.2063 108.025 37.6226 108.628 37.9441C109.939 38.6548 110.487 39.6397 110.487 40.5975C110.487 41.9817 109.295 43.4066 107.173 43.4066L107.18 43.4032Z" fill="white"/>
<path d="M113.965 38.1438C113.77 38.1438 113.77 38.2081 113.77 38.2859C113.77 38.7665 113.729 39.8665 113.729 40.7193C113.729 41.7279 113.77 42.1442 114.503 42.1442C114.595 42.1442 114.698 42.1307 114.804 42.1171C114.845 42.1171 114.869 42.1036 114.91 42.1036C115.263 42.1036 115.471 42.3879 115.471 42.6722C115.471 43.1392 115.04 43.3592 114.359 43.3592C112.421 43.3592 112.421 41.6636 112.421 41.1322C112.421 40.3809 112.448 39.088 112.448 38.5161V38.3231C112.448 38.1539 112.37 38.1404 112.24 38.1404H111.846C111.466 38.1404 111.257 37.829 111.257 37.5176C111.257 37.2063 111.452 36.922 111.846 36.922H112.226C112.435 36.922 112.448 36.8847 112.448 36.702C112.448 36.702 112.462 36.4448 112.462 36.1469C112.462 35.9913 112.462 35.8356 112.448 35.6934V35.6528C112.448 35.2636 112.763 35.0707 113.102 35.0707C113.797 35.0707 113.797 35.6934 113.797 35.8593C113.797 36.2079 113.77 36.702 113.77 36.702C113.77 36.9084 113.821 36.922 113.955 36.922H114.831C115.225 36.922 115.406 37.2198 115.406 37.5312C115.406 37.8426 115.222 38.1404 114.831 38.1404H113.965V38.1438Z" fill="white"/>
<path d="M121.288 43.0377C121.172 42.9463 121.052 42.8042 120.935 42.6112C120.922 42.5842 120.898 42.5706 120.884 42.5706C120.857 42.5706 120.833 42.5842 120.805 42.6112C120.36 43.1155 119.535 43.3863 118.762 43.3863C117.32 43.3863 116.468 42.3506 116.468 41.3522C116.468 40.6923 116.861 40.0323 117.738 39.7345C118.642 39.4231 119.768 39.1794 119.977 39.1659C120.107 39.1523 120.213 38.9966 120.213 38.7259C120.213 38.5702 120.172 37.9102 119.282 37.9102C118.693 37.9102 118.248 38.181 117.998 38.4551C117.854 38.6244 117.669 38.6887 117.512 38.6887C117.173 38.6887 116.882 38.4281 116.882 38.093C116.882 37.4703 118.036 36.7866 119.357 36.7866C120.799 36.7866 121.583 37.4872 121.583 38.973C121.583 39.1422 121.569 39.2979 121.555 39.4772C121.528 39.6701 121.49 40.1643 121.49 40.5501C121.49 40.6652 121.49 40.7701 121.504 40.8479C121.62 41.8836 122.106 41.9242 122.212 42.002C122.356 42.107 122.421 42.2728 122.421 42.4556C122.421 42.8177 122.134 43.2306 121.754 43.2306C121.61 43.2306 121.439 43.1663 121.281 43.0377H121.288ZM120.083 40.2557C117.871 40.5264 117.738 41.0713 117.738 41.3827C117.738 41.7854 118.09 42.1848 118.758 42.1848C119.819 42.1848 120.278 41.6534 120.278 40.7363C120.278 40.5433 120.251 40.2557 120.093 40.2557H120.08H120.083Z" fill="white"/>
<path d="M125.65 38.1438C125.455 38.1438 125.455 38.2081 125.455 38.2859C125.455 38.7665 125.413 39.8665 125.413 40.7193C125.413 41.7279 125.455 42.1442 126.187 42.1442C126.28 42.1442 126.382 42.1307 126.488 42.1171C126.53 42.1171 126.554 42.1036 126.595 42.1036C126.947 42.1036 127.156 42.3879 127.156 42.6722C127.156 43.1392 126.725 43.3592 126.043 43.3592C124.106 43.3592 124.106 41.6636 124.106 41.1322C124.106 40.3809 124.133 39.088 124.133 38.5161V38.3231C124.133 38.1539 124.054 38.1404 123.924 38.1404H123.531C123.151 38.1404 122.942 37.829 122.942 37.5176C122.942 37.2063 123.137 36.922 123.531 36.922H123.911C124.119 36.922 124.133 36.8847 124.133 36.702C124.133 36.702 124.147 36.4448 124.147 36.1469C124.147 35.9913 124.147 35.8356 124.133 35.6934V35.6528C124.133 35.2636 124.448 35.0707 124.787 35.0707C125.482 35.0707 125.482 35.6934 125.482 35.8593C125.482 36.2079 125.455 36.702 125.455 36.702C125.455 36.9084 125.506 36.922 125.639 36.922H126.516C126.91 36.922 127.091 37.2198 127.091 37.5312C127.091 37.8426 126.906 38.1404 126.516 38.1404H125.65V38.1438Z" fill="white"/>
<path d="M128.426 34.2855C128.426 33.6526 128.977 33.4055 129.344 33.4055C129.816 33.4055 130.261 33.7947 130.261 34.2855C130.261 34.7525 129.909 35.2061 129.344 35.2061C128.834 35.2061 128.426 34.8811 128.426 34.2855ZM129.344 43.3491C128.991 43.3491 128.649 43.1291 128.649 42.6891C128.649 41.6128 128.662 40.1372 128.662 38.9594C128.662 38.3773 128.662 37.8595 128.649 37.5109C128.635 37.0844 128.964 36.8509 129.357 36.8509C129.7 36.8509 130.052 37.0573 130.052 37.4736V37.5007C130.039 38.0321 130.025 39.0542 130.025 40.1406C130.025 41.0341 130.039 41.9547 130.052 42.6654V42.6925C130.052 43.1325 129.7 43.3524 129.344 43.3524V43.3491Z" fill="white"/>
<path d="M131.754 40.0864C131.754 38.1979 133.182 36.8103 135.054 36.8103C136.927 36.8103 138.341 38.1945 138.341 40.0864C138.341 41.9783 136.927 43.3626 135.054 43.3626C133.182 43.3626 131.754 42.0426 131.754 40.0864ZM137.019 40.0864C137.019 38.8037 136.129 38.0016 135.054 38.0016C133.979 38.0016 133.075 38.8037 133.075 40.0864C133.075 41.3691 133.966 42.1442 135.054 42.1442C136.143 42.1442 137.019 41.3556 137.019 40.0864Z" fill="white"/>
<path d="M140.032 42.6519C140.06 41.3184 140.07 39.7514 140.07 38.2622C140.07 36.966 140.056 35.7374 140.042 34.7661V34.7153C140.042 33.8083 140.552 33.4461 141.128 33.4461C141.614 33.4461 142.138 33.7169 142.411 34.1467C143.237 35.443 145.424 39.4806 146.42 40.9563C146.499 41.0713 146.564 41.139 146.605 41.139C146.646 41.139 146.698 41.0984 146.698 40.5941C146.698 39.3757 146.66 35.338 146.619 34.1467C146.605 33.7203 146.961 33.4461 147.379 33.4461C147.759 33.4461 148.139 33.6797 148.139 34.1196V34.1467C148.112 35.0538 148.098 36.3094 148.098 37.6023C148.098 39.2471 148.112 40.9427 148.139 42.0697V42.0968C148.139 42.8719 147.564 43.3254 146.948 43.3254C146.53 43.3254 146.109 43.1189 145.821 42.6789C144.904 41.2405 142.456 36.8137 141.747 35.6359C141.696 35.558 141.604 35.3888 141.538 35.3888C141.46 35.3888 141.46 35.5174 141.46 36.1131C141.46 37.4601 141.501 41.2778 141.538 42.6519V42.6789C141.538 43.0918 141.172 43.2881 140.792 43.2881C140.412 43.2881 140.032 43.0817 140.032 42.6654V42.6519Z" fill="white"/>
<path d="M91.5955 11.7111V13.1969C91.979 13.1969 92.3624 13.1969 92.7185 13.1732C93.0506 13.1732 93.2012 13.0987 93.2012 12.8449V12.4658C93.2012 12.036 93.6873 11.8363 94.1701 11.8363C94.6528 11.8363 95.1389 12.0394 95.1389 12.4658C95.1389 13.4744 95.1389 14.5574 93.4819 14.6082C92.6158 14.6319 91.6469 14.6319 90.702 14.6319C89.7571 14.6319 88.8156 14.6319 87.9221 14.6082C86.6964 14.5845 86.2377 14.0532 86.2137 13.3492V12.4151C86.2137 12.0123 86.6964 11.8093 87.1586 11.8093C87.6208 11.8093 88.1035 12.0123 88.1035 12.4151V12.8449C88.1035 13.1224 88.1549 13.1732 88.3329 13.1732C88.7677 13.1969 89.1991 13.1969 89.6578 13.1969V11.7111L86.0357 11.7348C85.4742 11.7348 85.2209 11.3828 85.2209 11.0274C85.2209 10.6721 85.5016 10.2964 86.0357 10.2964L89.6578 10.3201V9.46383L88.3055 9.48752C88.0522 9.86658 87.6687 10.0933 87.2339 10.0933C86.7512 10.0933 86.3164 9.79212 86.3164 9.3386C86.3164 9.16261 86.3678 8.95954 86.5458 8.75986C86.9292 8.27927 87.21 7.70052 87.412 7.22331C84.7861 7.22331 82.1328 7.22331 80.2704 7.27408C79.0961 7.29777 78.8667 7.60237 78.8154 8.05589H84.8854C85.4194 8.05589 85.6762 8.40787 85.6762 8.78693C85.6762 9.13892 85.4194 9.51798 84.8854 9.51798L82.4615 9.49429V10.5536H84.1185C84.6526 10.5536 84.9093 10.9056 84.9093 11.261C84.9093 11.6163 84.6526 11.9683 84.1185 11.9683L82.4615 11.9413V12.9498C83.2249 12.7975 83.9918 12.6486 84.68 12.4692C84.7553 12.4455 84.858 12.4455 84.9367 12.4455C85.3955 12.4455 85.7002 12.8246 85.7002 13.2273C85.7002 13.5286 85.5221 13.8332 85.1387 13.9584C82.2321 14.9162 78.5347 15.1937 77.9732 15.1937C77.2337 15.1937 76.929 14.7639 76.929 14.3374C76.929 13.8839 77.2611 13.4304 77.8465 13.4304C78.7127 13.4067 79.5549 13.356 80.3971 13.2544V11.9446L78.4833 11.9717C77.9218 11.9717 77.6685 11.6434 77.6685 11.2914C77.6685 10.9395 77.9492 10.5604 78.4833 10.5604H80.3971V9.50105L78.764 9.52475C78.6374 10.029 78.0759 10.3066 77.5384 10.3066C76.2888 10.3066 76.2648 9.42321 76.2648 8.51618C76.2648 7.35531 76.2648 5.46678 78.9934 5.4397C81.0339 5.41601 83.3037 5.38894 85.6249 5.38894V4.50559C85.6249 3.67301 86.289 3.27026 86.9498 3.27026C87.6105 3.27026 88.2747 3.67301 88.2747 4.50559V5.38894C90.4178 5.38894 92.5096 5.41263 94.42 5.4397C95.7963 5.46339 97.354 6.09629 97.4053 7.65652C97.4293 7.93405 97.4293 8.23527 97.4293 8.56356C97.4293 9.52136 97.3026 10.2761 96.1283 10.2761C95.4916 10.2761 94.8787 9.9478 94.8787 9.2946V9.24384C94.8787 7.55499 94.8787 7.30116 93.5025 7.27746C92.2529 7.25377 90.7499 7.25377 89.1682 7.25377C89.2196 7.35531 89.2436 7.45684 89.2436 7.58207C89.2436 7.6836 89.2162 7.85959 89.0895 8.08635H93.6531C94.1872 8.08635 94.444 8.43833 94.444 8.7937C94.444 9.14907 94.1906 9.50105 93.6531 9.50105L91.5887 9.47736V10.3336L95.3375 10.3099C95.8716 10.3099 96.1283 10.6619 96.1283 11.0173C96.1283 11.3964 95.8716 11.7483 95.3375 11.7483L91.5887 11.7246L91.5955 11.7111ZM91.3662 23.2555C92.9718 23.7598 94.5535 23.9595 96.2379 24.0102C97.0527 24.0339 97.4122 24.5653 97.4122 25.144C97.4122 25.7735 96.9534 26.3557 96.0873 26.3557C95.6525 26.3557 92.4925 26.1526 89.4319 24.8191C88.9731 24.6161 88.7951 24.2641 88.7951 23.9121C88.7951 23.6853 88.8704 23.4586 89.0005 23.2826H84.769C84.923 23.4856 84.9983 23.7124 84.9983 23.9629C84.9983 24.3148 84.8203 24.6702 84.3855 24.8699C83.7214 25.1711 80.4073 26.508 77.6788 26.508C76.7612 26.508 76.3025 25.9021 76.3025 25.3234C76.3025 24.7954 76.7099 24.2641 77.5281 24.2404C79.3392 24.1896 81.0715 23.9392 82.7559 23.2589H82.3211C80.6128 23.2318 79.7706 22.5008 79.7192 21.6445C79.6679 20.8864 79.6439 20.1553 79.6439 19.4243C79.6439 18.5917 79.6679 17.7862 79.7192 17.0044C79.7706 16.2971 80.332 15.3392 82.2184 15.3156C83.8514 15.2919 85.7104 15.2919 87.6242 15.2919C89.0279 15.2919 90.4281 15.2919 91.7565 15.3156C93.5162 15.3392 94.129 16.1211 94.1803 16.7269C94.2317 17.5324 94.2557 18.3413 94.2557 19.1468C94.2557 19.9523 94.2317 20.7341 94.1803 21.5903C94.129 22.3958 93.1841 23.2284 91.6058 23.2555H91.3764H91.3662ZM91.9516 18.744H81.8795V19.6511H91.9516V18.744ZM91.9002 20.8627H81.9034L81.9274 21.1165C81.9514 21.5937 82.2595 21.8205 82.9476 21.8476C84.0945 21.8713 85.4982 21.8713 86.9018 21.8713C88.3055 21.8713 89.7057 21.8713 90.904 21.8476C91.5168 21.8205 91.8489 21.5193 91.8729 21.0658L91.8968 20.8627H91.9002ZM91.8763 17.3056C91.842 16.8521 90.1839 16.6253 86.9018 16.6253C85.4742 16.6253 84.0192 16.649 82.8723 16.6761C82.1328 16.6761 81.9548 17.1533 81.9274 17.4816V17.5324H91.9002L91.8763 17.3056Z" fill="white"/>
<path d="M121.278 21.1132V21.3399L121.329 23.3063V23.3808C121.329 24.6668 120.665 26.332 118.217 26.332C116.992 26.332 116.05 26.1289 116.05 25.0459C116.05 24.4909 116.433 23.9629 117.094 23.9629C117.197 23.9629 117.3 23.9629 117.399 23.99C117.755 24.0644 118.087 24.1423 118.368 24.1423C118.878 24.1423 119.183 23.8918 119.183 22.9577V22.8832L119.159 21.1199H115.156C115.259 21.1707 116.94 21.851 116.94 22.7851C116.94 23.3638 116.454 23.9189 115.971 23.9189C115.766 23.9189 115.564 23.8444 115.41 23.6414C114.848 23.0118 114.184 22.7072 113.575 22.406C113.294 22.2808 113.191 22.0777 113.191 21.8781C113.191 21.6005 113.369 21.323 113.626 21.1233H112.709C112.147 21.1233 111.842 20.8221 111.74 20.4938C111.74 20.4938 111.767 20.6461 111.767 20.7443C111.767 21.2485 111.411 21.7528 110.696 21.7528L108.172 21.7291V25.4351C108.172 26.0917 107.587 26.4437 107.026 26.4437C106.464 26.4437 105.903 26.1154 105.903 25.4351L105.927 21.7291L102.688 21.7528C101.976 21.7528 101.616 21.2485 101.616 20.7443C101.616 20.24 101.972 19.7357 102.688 19.7357L105.927 19.7594V18.4496C104.523 18.4496 102.815 18.2736 102.712 16.3309C102.684 15.7522 102.66 14.9941 102.66 14.2122C102.66 11.4404 102.66 9.90045 105.084 9.77522C105.29 9.77522 105.567 9.75153 105.899 9.75153V8.5162L103.119 8.53989C102.404 8.53989 102.048 8.03561 102.048 7.53132C102.048 7.02704 102.404 6.54645 103.119 6.54645L105.899 6.57014V4.72899C105.899 4.07241 106.461 3.7475 107.022 3.7475C107.584 3.7475 108.169 4.07579 108.169 4.72899V6.57014L110.668 6.54645C111.38 6.54645 111.74 7.05073 111.74 7.53132C111.74 8.03561 111.384 8.53989 110.668 8.53989L108.169 8.5162V9.75153C108.604 9.75153 108.984 9.77522 109.213 9.77522C110.411 9.82599 111.278 10.5063 111.329 11.6164C111.38 12.3474 111.404 13.3797 111.404 14.3882C111.404 15.0956 111.377 15.7996 111.353 16.3309C111.302 17.062 110.969 18.4496 108.166 18.4496V19.7594L110.689 19.7357C111.25 19.7357 111.582 20.064 111.709 20.443C111.709 20.443 111.685 20.3178 111.685 20.24C111.685 19.7865 112.041 19.3059 112.705 19.3059H119.131V18.6764C119.131 18.3481 119.258 18.0976 119.463 17.9453C119.029 17.9961 114.133 18.5004 112.729 18.5004C112.041 18.5004 111.685 17.9961 111.685 17.5155C111.685 17.062 111.99 16.6084 112.63 16.6084C113.88 16.5848 115.283 16.5577 116.735 16.4832V15.451C113.01 15.451 112.527 15.099 112.527 12.1985C112.527 9.29801 112.654 8.87157 116.632 8.87157V7.96454H112.986C112.298 7.96454 111.942 7.48394 111.942 7.00673C111.942 6.52952 112.298 6.04893 112.986 6.04893H116.632V5.11482C116.632 4.36008 117.166 4.00472 117.728 4.00472C118.289 4.00472 118.851 4.38378 118.851 5.11482V6.04893H122.983C123.671 6.04893 124.003 6.52952 124.003 7.00673C124.003 7.48394 123.671 7.96454 122.983 7.96454H118.851V8.87157C119.487 8.87157 120.1 8.87157 120.662 8.89526C122.165 8.94603 123.007 9.70076 123.085 10.6349C123.109 11.0884 123.137 11.4911 123.137 11.8939C123.137 14.0363 123.01 14.6658 122.041 15.1193C122.425 15.346 124.208 16.5306 124.208 17.5155C124.208 18.0942 123.75 18.5477 123.263 18.5477C123.034 18.5477 122.777 18.4225 122.575 18.1179C122.449 17.9148 122.322 17.7152 122.192 17.5392C121.733 17.6407 121.199 17.7152 120.638 17.7896C120.97 17.9148 121.25 18.1924 121.25 18.6459V19.3025H123.75C124.386 19.3025 124.695 19.756 124.695 20.2095C124.695 20.663 124.39 21.1165 123.75 21.1165H121.274L121.278 21.1132ZM106.105 14.8113H104.626C104.626 16.0703 104.65 16.6524 105.44 16.7032C105.594 16.7032 105.824 16.7269 106.105 16.7269V14.8113ZM106.105 11.4573C105.851 11.4573 105.646 11.481 105.543 11.481C104.804 11.5554 104.701 11.9345 104.677 12.4151C104.677 12.6182 104.653 12.8686 104.653 13.1461H106.108V11.4573H106.105ZM109.395 13.1461C109.395 12.7942 109.371 12.4659 109.371 12.212C109.347 11.7822 109.141 11.5318 108.58 11.481C108.477 11.481 108.248 11.4573 107.994 11.4573V13.1461H109.398H109.395ZM107.991 14.8113V16.7269C108.22 16.7269 108.426 16.7032 108.525 16.7032C109.035 16.6524 109.34 16.5272 109.367 15.9722C109.367 15.671 109.391 15.2648 109.391 14.8113H107.988H107.991ZM116.738 10.2964C115.208 10.2964 114.725 10.3201 114.674 11.0512L114.646 11.3524H116.738V10.293V10.2964ZM116.738 12.7942H114.646C114.646 12.9194 114.674 13.0717 114.674 13.1969C114.698 13.7012 115.006 13.9043 115.643 13.928C115.947 13.928 116.307 13.955 116.738 13.955V12.7942ZM121.024 11.0275C120.997 10.3201 120.641 10.2964 118.731 10.2964V11.3558H121.024V11.0275ZM121.024 12.7942H118.731V13.955C120.364 13.955 121.001 13.955 121.024 13.1969V12.7942ZM118.727 16.3478C119.467 16.2971 120.206 16.2734 120.87 16.1955C120.768 16.1211 120.665 16.0703 120.566 15.9925C120.36 15.8909 120.312 15.7149 120.312 15.5119V15.4103C119.826 15.434 119.292 15.4611 118.731 15.4611V16.3445L118.727 16.3478Z" fill="white"/>
<path d="M134.003 12.7197C134.055 12.0123 134.589 11.7111 135.126 11.7111C135.763 11.7111 136.427 12.1139 136.427 12.7942C136.427 13.0717 135.636 16.3242 134.695 19.2212C135.256 18.9945 135.79 18.7677 136.276 18.541C136.482 18.4394 136.66 18.4157 136.838 18.4157C137.423 18.4157 137.831 18.8693 137.831 19.3972C137.831 19.8 137.577 20.2298 136.989 20.531C134.185 21.9187 129.645 23.4315 129.056 23.4315C128.317 23.4315 127.933 22.8528 127.933 22.2706C127.933 21.7901 128.214 21.3128 128.799 21.1605C129.922 20.8593 131.145 20.4803 132.343 20.0775C132.829 18.5884 133.846 14.4796 134 12.7163L134.003 12.7197ZM129.262 10.6755C128.546 10.6755 128.166 10.1475 128.166 9.61615C128.166 9.08479 128.549 8.55681 129.262 8.55681H131.887L131.864 5.65633C131.864 4.92529 132.476 4.5733 133.089 4.5733C133.702 4.5733 134.339 4.92529 134.339 5.65633L134.315 8.55681H136.838C137.502 8.55681 137.831 9.08479 137.831 9.61615C137.831 10.1475 137.499 10.6755 136.838 10.6755H129.265H129.262ZM130.23 17.106C130.104 15.9959 129.44 13.928 129.21 13.3763C129.159 13.2511 129.135 13.0988 129.135 12.9972C129.135 12.4422 129.669 12.0631 130.23 12.0631C130.587 12.0631 130.97 12.2154 131.227 12.6182C131.737 13.4 132.528 15.9959 132.528 16.8284C132.528 17.661 131.891 18.1145 131.278 18.1145C130.768 18.1145 130.309 17.8133 130.234 17.106H130.23ZM144.818 11.1561L144.794 15.39C145.407 15.39 145.993 15.4137 146.527 15.4408C147.982 15.4916 149.231 16.4223 149.279 17.8607C149.331 19.0216 149.382 20.6089 149.382 21.9457C149.382 22.3485 149.358 22.7276 149.358 23.0558C149.307 24.5687 148.362 25.601 146.578 25.7533C145.787 25.804 144.894 25.8277 144.003 25.8277C140.46 25.8277 138.42 25.8277 138.317 23.1303C138.293 22.6497 138.293 22.1217 138.293 21.6174C138.293 20.3314 138.344 18.9945 138.368 17.9859C138.444 15.39 140.792 15.39 142.422 15.39L142.37 5.30435C142.37 4.54961 142.983 4.19424 143.596 4.19424C144.209 4.19424 144.846 4.5733 144.846 5.30435L144.822 9.01033H149.005C149.721 9.01033 150.077 9.53831 150.077 10.0697C150.077 10.601 149.721 11.1527 149.005 11.1527H144.822L144.818 11.1561ZM146.934 18.4394C146.883 17.4072 146.4 17.4072 143.747 17.4072C143.007 17.4072 142.292 17.4309 141.706 17.4579C140.583 17.4816 140.583 17.9115 140.583 21.4922C140.583 21.9457 140.583 22.3485 140.607 22.6531C140.635 23.4586 140.837 23.638 143.846 23.638C147.009 23.638 147.009 23.5127 147.009 21.3704C147.009 20.3855 146.958 19.1536 146.934 18.4462V18.4394Z" fill="white"/>
</g>
</g>
<defs>
<clipPath id="clip0_5425_2963">
<rect width="150" height="48" fill="white"/>
</clipPath>
<clipPath id="clip1_5425_2963">
<rect width="150" height="47" fill="white" transform="translate(0.0700073 0.934998)"/>
</clipPath>
</defs>
</svg>
